G04 #@! TF.GenerationSoftware,KiCad,Pcbnew,(5.0.2)-1*
G04 #@! TF.CreationDate,2019-10-04T12:45:50+03:00*
G04 #@! TF.ProjectId,UI-Micro-SD,55492d4d-6963-4726-9f2d-53442e6b6963,rev?*
G04 #@! TF.SameCoordinates,Original*
G04 #@! TF.FileFunction,Paste,Top*
G04 #@! TF.FilePolarity,Positive*
%FSLAX46Y46*%
G04 Gerber Fmt 4.6, Leading zero omitted, Abs format (unit mm)*
G04 Created by KiCad (PCBNEW (5.0.2)-1) date 04.10.2019 12:45:50*
%MOMM*%
%LPD*%
G01*
G04 APERTURE LIST*
%ADD10C,0.100000*%
%ADD11C,0.875000*%
%ADD12C,0.975000*%
%ADD13R,1.475000X0.450000*%
%ADD14R,1.300000X0.600000*%
%ADD15R,3.000000X2.500000*%
%ADD16R,0.300000X1.600000*%
%ADD17R,1.400000X1.800000*%
%ADD18R,1.900000X1.450000*%
%ADD19R,2.000000X0.800000*%
G04 APERTURE END LIST*
D10*
G04 #@! TO.C,C1*
G36*
X142342831Y-138966973D02*
X142364066Y-138970123D01*
X142384890Y-138975339D01*
X142405102Y-138982571D01*
X142424508Y-138991750D01*
X142442921Y-139002786D01*
X142460164Y-139015574D01*
X142476070Y-139029990D01*
X142490486Y-139045896D01*
X142503274Y-139063139D01*
X142514310Y-139081552D01*
X142523489Y-139100958D01*
X142530721Y-139121170D01*
X142535937Y-139141994D01*
X142539087Y-139163229D01*
X142540140Y-139184670D01*
X142540140Y-139697170D01*
X142539087Y-139718611D01*
X142535937Y-139739846D01*
X142530721Y-139760670D01*
X142523489Y-139780882D01*
X142514310Y-139800288D01*
X142503274Y-139818701D01*
X142490486Y-139835944D01*
X142476070Y-139851850D01*
X142460164Y-139866266D01*
X142442921Y-139879054D01*
X142424508Y-139890090D01*
X142405102Y-139899269D01*
X142384890Y-139906501D01*
X142364066Y-139911717D01*
X142342831Y-139914867D01*
X142321390Y-139915920D01*
X141883890Y-139915920D01*
X141862449Y-139914867D01*
X141841214Y-139911717D01*
X141820390Y-139906501D01*
X141800178Y-139899269D01*
X141780772Y-139890090D01*
X141762359Y-139879054D01*
X141745116Y-139866266D01*
X141729210Y-139851850D01*
X141714794Y-139835944D01*
X141702006Y-139818701D01*
X141690970Y-139800288D01*
X141681791Y-139780882D01*
X141674559Y-139760670D01*
X141669343Y-139739846D01*
X141666193Y-139718611D01*
X141665140Y-139697170D01*
X141665140Y-139184670D01*
X141666193Y-139163229D01*
X141669343Y-139141994D01*
X141674559Y-139121170D01*
X141681791Y-139100958D01*
X141690970Y-139081552D01*
X141702006Y-139063139D01*
X141714794Y-139045896D01*
X141729210Y-139029990D01*
X141745116Y-139015574D01*
X141762359Y-139002786D01*
X141780772Y-138991750D01*
X141800178Y-138982571D01*
X141820390Y-138975339D01*
X141841214Y-138970123D01*
X141862449Y-138966973D01*
X141883890Y-138965920D01*
X142321390Y-138965920D01*
X142342831Y-138966973D01*
X142342831Y-138966973D01*
G37*
D11*
X142102640Y-139440920D03*
D10*
G36*
X143917831Y-138966973D02*
X143939066Y-138970123D01*
X143959890Y-138975339D01*
X143980102Y-138982571D01*
X143999508Y-138991750D01*
X144017921Y-139002786D01*
X144035164Y-139015574D01*
X144051070Y-139029990D01*
X144065486Y-139045896D01*
X144078274Y-139063139D01*
X144089310Y-139081552D01*
X144098489Y-139100958D01*
X144105721Y-139121170D01*
X144110937Y-139141994D01*
X144114087Y-139163229D01*
X144115140Y-139184670D01*
X144115140Y-139697170D01*
X144114087Y-139718611D01*
X144110937Y-139739846D01*
X144105721Y-139760670D01*
X144098489Y-139780882D01*
X144089310Y-139800288D01*
X144078274Y-139818701D01*
X144065486Y-139835944D01*
X144051070Y-139851850D01*
X144035164Y-139866266D01*
X144017921Y-139879054D01*
X143999508Y-139890090D01*
X143980102Y-139899269D01*
X143959890Y-139906501D01*
X143939066Y-139911717D01*
X143917831Y-139914867D01*
X143896390Y-139915920D01*
X143458890Y-139915920D01*
X143437449Y-139914867D01*
X143416214Y-139911717D01*
X143395390Y-139906501D01*
X143375178Y-139899269D01*
X143355772Y-139890090D01*
X143337359Y-139879054D01*
X143320116Y-139866266D01*
X143304210Y-139851850D01*
X143289794Y-139835944D01*
X143277006Y-139818701D01*
X143265970Y-139800288D01*
X143256791Y-139780882D01*
X143249559Y-139760670D01*
X143244343Y-139739846D01*
X143241193Y-139718611D01*
X143240140Y-139697170D01*
X143240140Y-139184670D01*
X143241193Y-139163229D01*
X143244343Y-139141994D01*
X143249559Y-139121170D01*
X143256791Y-139100958D01*
X143265970Y-139081552D01*
X143277006Y-139063139D01*
X143289794Y-139045896D01*
X143304210Y-139029990D01*
X143320116Y-139015574D01*
X143337359Y-139002786D01*
X143355772Y-138991750D01*
X143375178Y-138982571D01*
X143395390Y-138975339D01*
X143416214Y-138970123D01*
X143437449Y-138966973D01*
X143458890Y-138965920D01*
X143896390Y-138965920D01*
X143917831Y-138966973D01*
X143917831Y-138966973D01*
G37*
D11*
X143677640Y-139440920D03*
G04 #@! TD*
D10*
G04 #@! TO.C,C2*
G36*
X94437902Y-136948854D02*
X94461563Y-136952364D01*
X94484767Y-136958176D01*
X94507289Y-136966234D01*
X94528913Y-136976462D01*
X94549430Y-136988759D01*
X94568643Y-137003009D01*
X94586367Y-137019073D01*
X94602431Y-137036797D01*
X94616681Y-137056010D01*
X94628978Y-137076527D01*
X94639206Y-137098151D01*
X94647264Y-137120673D01*
X94653076Y-137143877D01*
X94656586Y-137167538D01*
X94657760Y-137191430D01*
X94657760Y-138103930D01*
X94656586Y-138127822D01*
X94653076Y-138151483D01*
X94647264Y-138174687D01*
X94639206Y-138197209D01*
X94628978Y-138218833D01*
X94616681Y-138239350D01*
X94602431Y-138258563D01*
X94586367Y-138276287D01*
X94568643Y-138292351D01*
X94549430Y-138306601D01*
X94528913Y-138318898D01*
X94507289Y-138329126D01*
X94484767Y-138337184D01*
X94461563Y-138342996D01*
X94437902Y-138346506D01*
X94414010Y-138347680D01*
X93926510Y-138347680D01*
X93902618Y-138346506D01*
X93878957Y-138342996D01*
X93855753Y-138337184D01*
X93833231Y-138329126D01*
X93811607Y-138318898D01*
X93791090Y-138306601D01*
X93771877Y-138292351D01*
X93754153Y-138276287D01*
X93738089Y-138258563D01*
X93723839Y-138239350D01*
X93711542Y-138218833D01*
X93701314Y-138197209D01*
X93693256Y-138174687D01*
X93687444Y-138151483D01*
X93683934Y-138127822D01*
X93682760Y-138103930D01*
X93682760Y-137191430D01*
X93683934Y-137167538D01*
X93687444Y-137143877D01*
X93693256Y-137120673D01*
X93701314Y-137098151D01*
X93711542Y-137076527D01*
X93723839Y-137056010D01*
X93738089Y-137036797D01*
X93754153Y-137019073D01*
X93771877Y-137003009D01*
X93791090Y-136988759D01*
X93811607Y-136976462D01*
X93833231Y-136966234D01*
X93855753Y-136958176D01*
X93878957Y-136952364D01*
X93902618Y-136948854D01*
X93926510Y-136947680D01*
X94414010Y-136947680D01*
X94437902Y-136948854D01*
X94437902Y-136948854D01*
G37*
D12*
X94170260Y-137647680D03*
D10*
G36*
X96312902Y-136948854D02*
X96336563Y-136952364D01*
X96359767Y-136958176D01*
X96382289Y-136966234D01*
X96403913Y-136976462D01*
X96424430Y-136988759D01*
X96443643Y-137003009D01*
X96461367Y-137019073D01*
X96477431Y-137036797D01*
X96491681Y-137056010D01*
X96503978Y-137076527D01*
X96514206Y-137098151D01*
X96522264Y-137120673D01*
X96528076Y-137143877D01*
X96531586Y-137167538D01*
X96532760Y-137191430D01*
X96532760Y-138103930D01*
X96531586Y-138127822D01*
X96528076Y-138151483D01*
X96522264Y-138174687D01*
X96514206Y-138197209D01*
X96503978Y-138218833D01*
X96491681Y-138239350D01*
X96477431Y-138258563D01*
X96461367Y-138276287D01*
X96443643Y-138292351D01*
X96424430Y-138306601D01*
X96403913Y-138318898D01*
X96382289Y-138329126D01*
X96359767Y-138337184D01*
X96336563Y-138342996D01*
X96312902Y-138346506D01*
X96289010Y-138347680D01*
X95801510Y-138347680D01*
X95777618Y-138346506D01*
X95753957Y-138342996D01*
X95730753Y-138337184D01*
X95708231Y-138329126D01*
X95686607Y-138318898D01*
X95666090Y-138306601D01*
X95646877Y-138292351D01*
X95629153Y-138276287D01*
X95613089Y-138258563D01*
X95598839Y-138239350D01*
X95586542Y-138218833D01*
X95576314Y-138197209D01*
X95568256Y-138174687D01*
X95562444Y-138151483D01*
X95558934Y-138127822D01*
X95557760Y-138103930D01*
X95557760Y-137191430D01*
X95558934Y-137167538D01*
X95562444Y-137143877D01*
X95568256Y-137120673D01*
X95576314Y-137098151D01*
X95586542Y-137076527D01*
X95598839Y-137056010D01*
X95613089Y-137036797D01*
X95629153Y-137019073D01*
X95646877Y-137003009D01*
X95666090Y-136988759D01*
X95686607Y-136976462D01*
X95708231Y-136966234D01*
X95730753Y-136958176D01*
X95753957Y-136952364D01*
X95777618Y-136948854D01*
X95801510Y-136947680D01*
X96289010Y-136947680D01*
X96312902Y-136948854D01*
X96312902Y-136948854D01*
G37*
D12*
X96045260Y-137647680D03*
G04 #@! TD*
D10*
G04 #@! TO.C,C3*
G36*
X124207531Y-112942133D02*
X124228766Y-112945283D01*
X124249590Y-112950499D01*
X124269802Y-112957731D01*
X124289208Y-112966910D01*
X124307621Y-112977946D01*
X124324864Y-112990734D01*
X124340770Y-113005150D01*
X124355186Y-113021056D01*
X124367974Y-113038299D01*
X124379010Y-113056712D01*
X124388189Y-113076118D01*
X124395421Y-113096330D01*
X124400637Y-113117154D01*
X124403787Y-113138389D01*
X124404840Y-113159830D01*
X124404840Y-113672330D01*
X124403787Y-113693771D01*
X124400637Y-113715006D01*
X124395421Y-113735830D01*
X124388189Y-113756042D01*
X124379010Y-113775448D01*
X124367974Y-113793861D01*
X124355186Y-113811104D01*
X124340770Y-113827010D01*
X124324864Y-113841426D01*
X124307621Y-113854214D01*
X124289208Y-113865250D01*
X124269802Y-113874429D01*
X124249590Y-113881661D01*
X124228766Y-113886877D01*
X124207531Y-113890027D01*
X124186090Y-113891080D01*
X123748590Y-113891080D01*
X123727149Y-113890027D01*
X123705914Y-113886877D01*
X123685090Y-113881661D01*
X123664878Y-113874429D01*
X123645472Y-113865250D01*
X123627059Y-113854214D01*
X123609816Y-113841426D01*
X123593910Y-113827010D01*
X123579494Y-113811104D01*
X123566706Y-113793861D01*
X123555670Y-113775448D01*
X123546491Y-113756042D01*
X123539259Y-113735830D01*
X123534043Y-113715006D01*
X123530893Y-113693771D01*
X123529840Y-113672330D01*
X123529840Y-113159830D01*
X123530893Y-113138389D01*
X123534043Y-113117154D01*
X123539259Y-113096330D01*
X123546491Y-113076118D01*
X123555670Y-113056712D01*
X123566706Y-113038299D01*
X123579494Y-113021056D01*
X123593910Y-113005150D01*
X123609816Y-112990734D01*
X123627059Y-112977946D01*
X123645472Y-112966910D01*
X123664878Y-112957731D01*
X123685090Y-112950499D01*
X123705914Y-112945283D01*
X123727149Y-112942133D01*
X123748590Y-112941080D01*
X124186090Y-112941080D01*
X124207531Y-112942133D01*
X124207531Y-112942133D01*
G37*
D11*
X123967340Y-113416080D03*
D10*
G36*
X122632531Y-112942133D02*
X122653766Y-112945283D01*
X122674590Y-112950499D01*
X122694802Y-112957731D01*
X122714208Y-112966910D01*
X122732621Y-112977946D01*
X122749864Y-112990734D01*
X122765770Y-113005150D01*
X122780186Y-113021056D01*
X122792974Y-113038299D01*
X122804010Y-113056712D01*
X122813189Y-113076118D01*
X122820421Y-113096330D01*
X122825637Y-113117154D01*
X122828787Y-113138389D01*
X122829840Y-113159830D01*
X122829840Y-113672330D01*
X122828787Y-113693771D01*
X122825637Y-113715006D01*
X122820421Y-113735830D01*
X122813189Y-113756042D01*
X122804010Y-113775448D01*
X122792974Y-113793861D01*
X122780186Y-113811104D01*
X122765770Y-113827010D01*
X122749864Y-113841426D01*
X122732621Y-113854214D01*
X122714208Y-113865250D01*
X122694802Y-113874429D01*
X122674590Y-113881661D01*
X122653766Y-113886877D01*
X122632531Y-113890027D01*
X122611090Y-113891080D01*
X122173590Y-113891080D01*
X122152149Y-113890027D01*
X122130914Y-113886877D01*
X122110090Y-113881661D01*
X122089878Y-113874429D01*
X122070472Y-113865250D01*
X122052059Y-113854214D01*
X122034816Y-113841426D01*
X122018910Y-113827010D01*
X122004494Y-113811104D01*
X121991706Y-113793861D01*
X121980670Y-113775448D01*
X121971491Y-113756042D01*
X121964259Y-113735830D01*
X121959043Y-113715006D01*
X121955893Y-113693771D01*
X121954840Y-113672330D01*
X121954840Y-113159830D01*
X121955893Y-113138389D01*
X121959043Y-113117154D01*
X121964259Y-113096330D01*
X121971491Y-113076118D01*
X121980670Y-113056712D01*
X121991706Y-113038299D01*
X122004494Y-113021056D01*
X122018910Y-113005150D01*
X122034816Y-112990734D01*
X122052059Y-112977946D01*
X122070472Y-112966910D01*
X122089878Y-112957731D01*
X122110090Y-112950499D01*
X122130914Y-112945283D01*
X122152149Y-112942133D01*
X122173590Y-112941080D01*
X122611090Y-112941080D01*
X122632531Y-112942133D01*
X122632531Y-112942133D01*
G37*
D11*
X122392340Y-113416080D03*
G04 #@! TD*
D10*
G04 #@! TO.C,DS1*
G36*
X81215142Y-127571174D02*
X81238803Y-127574684D01*
X81262007Y-127580496D01*
X81284529Y-127588554D01*
X81306153Y-127598782D01*
X81326670Y-127611079D01*
X81345883Y-127625329D01*
X81363607Y-127641393D01*
X81379671Y-127659117D01*
X81393921Y-127678330D01*
X81406218Y-127698847D01*
X81416446Y-127720471D01*
X81424504Y-127742993D01*
X81430316Y-127766197D01*
X81433826Y-127789858D01*
X81435000Y-127813750D01*
X81435000Y-128726250D01*
X81433826Y-128750142D01*
X81430316Y-128773803D01*
X81424504Y-128797007D01*
X81416446Y-128819529D01*
X81406218Y-128841153D01*
X81393921Y-128861670D01*
X81379671Y-128880883D01*
X81363607Y-128898607D01*
X81345883Y-128914671D01*
X81326670Y-128928921D01*
X81306153Y-128941218D01*
X81284529Y-128951446D01*
X81262007Y-128959504D01*
X81238803Y-128965316D01*
X81215142Y-128968826D01*
X81191250Y-128970000D01*
X80703750Y-128970000D01*
X80679858Y-128968826D01*
X80656197Y-128965316D01*
X80632993Y-128959504D01*
X80610471Y-128951446D01*
X80588847Y-128941218D01*
X80568330Y-128928921D01*
X80549117Y-128914671D01*
X80531393Y-128898607D01*
X80515329Y-128880883D01*
X80501079Y-128861670D01*
X80488782Y-128841153D01*
X80478554Y-128819529D01*
X80470496Y-128797007D01*
X80464684Y-128773803D01*
X80461174Y-128750142D01*
X80460000Y-128726250D01*
X80460000Y-127813750D01*
X80461174Y-127789858D01*
X80464684Y-127766197D01*
X80470496Y-127742993D01*
X80478554Y-127720471D01*
X80488782Y-127698847D01*
X80501079Y-127678330D01*
X80515329Y-127659117D01*
X80531393Y-127641393D01*
X80549117Y-127625329D01*
X80568330Y-127611079D01*
X80588847Y-127598782D01*
X80610471Y-127588554D01*
X80632993Y-127580496D01*
X80656197Y-127574684D01*
X80679858Y-127571174D01*
X80703750Y-127570000D01*
X81191250Y-127570000D01*
X81215142Y-127571174D01*
X81215142Y-127571174D01*
G37*
D12*
X80947500Y-128270000D03*
D10*
G36*
X79340142Y-127571174D02*
X79363803Y-127574684D01*
X79387007Y-127580496D01*
X79409529Y-127588554D01*
X79431153Y-127598782D01*
X79451670Y-127611079D01*
X79470883Y-127625329D01*
X79488607Y-127641393D01*
X79504671Y-127659117D01*
X79518921Y-127678330D01*
X79531218Y-127698847D01*
X79541446Y-127720471D01*
X79549504Y-127742993D01*
X79555316Y-127766197D01*
X79558826Y-127789858D01*
X79560000Y-127813750D01*
X79560000Y-128726250D01*
X79558826Y-128750142D01*
X79555316Y-128773803D01*
X79549504Y-128797007D01*
X79541446Y-128819529D01*
X79531218Y-128841153D01*
X79518921Y-128861670D01*
X79504671Y-128880883D01*
X79488607Y-128898607D01*
X79470883Y-128914671D01*
X79451670Y-128928921D01*
X79431153Y-128941218D01*
X79409529Y-128951446D01*
X79387007Y-128959504D01*
X79363803Y-128965316D01*
X79340142Y-128968826D01*
X79316250Y-128970000D01*
X78828750Y-128970000D01*
X78804858Y-128968826D01*
X78781197Y-128965316D01*
X78757993Y-128959504D01*
X78735471Y-128951446D01*
X78713847Y-128941218D01*
X78693330Y-128928921D01*
X78674117Y-128914671D01*
X78656393Y-128898607D01*
X78640329Y-128880883D01*
X78626079Y-128861670D01*
X78613782Y-128841153D01*
X78603554Y-128819529D01*
X78595496Y-128797007D01*
X78589684Y-128773803D01*
X78586174Y-128750142D01*
X78585000Y-128726250D01*
X78585000Y-127813750D01*
X78586174Y-127789858D01*
X78589684Y-127766197D01*
X78595496Y-127742993D01*
X78603554Y-127720471D01*
X78613782Y-127698847D01*
X78626079Y-127678330D01*
X78640329Y-127659117D01*
X78656393Y-127641393D01*
X78674117Y-127625329D01*
X78693330Y-127611079D01*
X78713847Y-127598782D01*
X78735471Y-127588554D01*
X78757993Y-127580496D01*
X78781197Y-127574684D01*
X78804858Y-127571174D01*
X78828750Y-127570000D01*
X79316250Y-127570000D01*
X79340142Y-127571174D01*
X79340142Y-127571174D01*
G37*
D12*
X79072500Y-128270000D03*
G04 #@! TD*
D13*
G04 #@! TO.C,IC1*
X116473750Y-115834000D03*
X116473750Y-116484000D03*
X116473750Y-117134000D03*
X116473750Y-117784000D03*
X116473750Y-118434000D03*
X116473750Y-119084000D03*
X116473750Y-119734000D03*
X116473750Y-120384000D03*
X122349750Y-120384000D03*
X122349750Y-119734000D03*
X122349750Y-119084000D03*
X122349750Y-118434000D03*
X122349750Y-117784000D03*
X122349750Y-117134000D03*
X122349750Y-116484000D03*
X122349750Y-115834000D03*
G04 #@! TD*
D14*
G04 #@! TO.C,Q1*
X143226500Y-134683500D03*
X141126500Y-135633500D03*
X141126500Y-133733500D03*
G04 #@! TD*
D10*
G04 #@! TO.C,R1*
G36*
X107961691Y-129510553D02*
X107982926Y-129513703D01*
X108003750Y-129518919D01*
X108023962Y-129526151D01*
X108043368Y-129535330D01*
X108061781Y-129546366D01*
X108079024Y-129559154D01*
X108094930Y-129573570D01*
X108109346Y-129589476D01*
X108122134Y-129606719D01*
X108133170Y-129625132D01*
X108142349Y-129644538D01*
X108149581Y-129664750D01*
X108154797Y-129685574D01*
X108157947Y-129706809D01*
X108159000Y-129728250D01*
X108159000Y-130240750D01*
X108157947Y-130262191D01*
X108154797Y-130283426D01*
X108149581Y-130304250D01*
X108142349Y-130324462D01*
X108133170Y-130343868D01*
X108122134Y-130362281D01*
X108109346Y-130379524D01*
X108094930Y-130395430D01*
X108079024Y-130409846D01*
X108061781Y-130422634D01*
X108043368Y-130433670D01*
X108023962Y-130442849D01*
X108003750Y-130450081D01*
X107982926Y-130455297D01*
X107961691Y-130458447D01*
X107940250Y-130459500D01*
X107502750Y-130459500D01*
X107481309Y-130458447D01*
X107460074Y-130455297D01*
X107439250Y-130450081D01*
X107419038Y-130442849D01*
X107399632Y-130433670D01*
X107381219Y-130422634D01*
X107363976Y-130409846D01*
X107348070Y-130395430D01*
X107333654Y-130379524D01*
X107320866Y-130362281D01*
X107309830Y-130343868D01*
X107300651Y-130324462D01*
X107293419Y-130304250D01*
X107288203Y-130283426D01*
X107285053Y-130262191D01*
X107284000Y-130240750D01*
X107284000Y-129728250D01*
X107285053Y-129706809D01*
X107288203Y-129685574D01*
X107293419Y-129664750D01*
X107300651Y-129644538D01*
X107309830Y-129625132D01*
X107320866Y-129606719D01*
X107333654Y-129589476D01*
X107348070Y-129573570D01*
X107363976Y-129559154D01*
X107381219Y-129546366D01*
X107399632Y-129535330D01*
X107419038Y-129526151D01*
X107439250Y-129518919D01*
X107460074Y-129513703D01*
X107481309Y-129510553D01*
X107502750Y-129509500D01*
X107940250Y-129509500D01*
X107961691Y-129510553D01*
X107961691Y-129510553D01*
G37*
D11*
X107721500Y-129984500D03*
D10*
G36*
X106386691Y-129510553D02*
X106407926Y-129513703D01*
X106428750Y-129518919D01*
X106448962Y-129526151D01*
X106468368Y-129535330D01*
X106486781Y-129546366D01*
X106504024Y-129559154D01*
X106519930Y-129573570D01*
X106534346Y-129589476D01*
X106547134Y-129606719D01*
X106558170Y-129625132D01*
X106567349Y-129644538D01*
X106574581Y-129664750D01*
X106579797Y-129685574D01*
X106582947Y-129706809D01*
X106584000Y-129728250D01*
X106584000Y-130240750D01*
X106582947Y-130262191D01*
X106579797Y-130283426D01*
X106574581Y-130304250D01*
X106567349Y-130324462D01*
X106558170Y-130343868D01*
X106547134Y-130362281D01*
X106534346Y-130379524D01*
X106519930Y-130395430D01*
X106504024Y-130409846D01*
X106486781Y-130422634D01*
X106468368Y-130433670D01*
X106448962Y-130442849D01*
X106428750Y-130450081D01*
X106407926Y-130455297D01*
X106386691Y-130458447D01*
X106365250Y-130459500D01*
X105927750Y-130459500D01*
X105906309Y-130458447D01*
X105885074Y-130455297D01*
X105864250Y-130450081D01*
X105844038Y-130442849D01*
X105824632Y-130433670D01*
X105806219Y-130422634D01*
X105788976Y-130409846D01*
X105773070Y-130395430D01*
X105758654Y-130379524D01*
X105745866Y-130362281D01*
X105734830Y-130343868D01*
X105725651Y-130324462D01*
X105718419Y-130304250D01*
X105713203Y-130283426D01*
X105710053Y-130262191D01*
X105709000Y-130240750D01*
X105709000Y-129728250D01*
X105710053Y-129706809D01*
X105713203Y-129685574D01*
X105718419Y-129664750D01*
X105725651Y-129644538D01*
X105734830Y-129625132D01*
X105745866Y-129606719D01*
X105758654Y-129589476D01*
X105773070Y-129573570D01*
X105788976Y-129559154D01*
X105806219Y-129546366D01*
X105824632Y-129535330D01*
X105844038Y-129526151D01*
X105864250Y-129518919D01*
X105885074Y-129513703D01*
X105906309Y-129510553D01*
X105927750Y-129509500D01*
X106365250Y-129509500D01*
X106386691Y-129510553D01*
X106386691Y-129510553D01*
G37*
D11*
X106146500Y-129984500D03*
G04 #@! TD*
D10*
G04 #@! TO.C,R2*
G36*
X94360451Y-135314453D02*
X94381686Y-135317603D01*
X94402510Y-135322819D01*
X94422722Y-135330051D01*
X94442128Y-135339230D01*
X94460541Y-135350266D01*
X94477784Y-135363054D01*
X94493690Y-135377470D01*
X94508106Y-135393376D01*
X94520894Y-135410619D01*
X94531930Y-135429032D01*
X94541109Y-135448438D01*
X94548341Y-135468650D01*
X94553557Y-135489474D01*
X94556707Y-135510709D01*
X94557760Y-135532150D01*
X94557760Y-136044650D01*
X94556707Y-136066091D01*
X94553557Y-136087326D01*
X94548341Y-136108150D01*
X94541109Y-136128362D01*
X94531930Y-136147768D01*
X94520894Y-136166181D01*
X94508106Y-136183424D01*
X94493690Y-136199330D01*
X94477784Y-136213746D01*
X94460541Y-136226534D01*
X94442128Y-136237570D01*
X94422722Y-136246749D01*
X94402510Y-136253981D01*
X94381686Y-136259197D01*
X94360451Y-136262347D01*
X94339010Y-136263400D01*
X93901510Y-136263400D01*
X93880069Y-136262347D01*
X93858834Y-136259197D01*
X93838010Y-136253981D01*
X93817798Y-136246749D01*
X93798392Y-136237570D01*
X93779979Y-136226534D01*
X93762736Y-136213746D01*
X93746830Y-136199330D01*
X93732414Y-136183424D01*
X93719626Y-136166181D01*
X93708590Y-136147768D01*
X93699411Y-136128362D01*
X93692179Y-136108150D01*
X93686963Y-136087326D01*
X93683813Y-136066091D01*
X93682760Y-136044650D01*
X93682760Y-135532150D01*
X93683813Y-135510709D01*
X93686963Y-135489474D01*
X93692179Y-135468650D01*
X93699411Y-135448438D01*
X93708590Y-135429032D01*
X93719626Y-135410619D01*
X93732414Y-135393376D01*
X93746830Y-135377470D01*
X93762736Y-135363054D01*
X93779979Y-135350266D01*
X93798392Y-135339230D01*
X93817798Y-135330051D01*
X93838010Y-135322819D01*
X93858834Y-135317603D01*
X93880069Y-135314453D01*
X93901510Y-135313400D01*
X94339010Y-135313400D01*
X94360451Y-135314453D01*
X94360451Y-135314453D01*
G37*
D11*
X94120260Y-135788400D03*
D10*
G36*
X95935451Y-135314453D02*
X95956686Y-135317603D01*
X95977510Y-135322819D01*
X95997722Y-135330051D01*
X96017128Y-135339230D01*
X96035541Y-135350266D01*
X96052784Y-135363054D01*
X96068690Y-135377470D01*
X96083106Y-135393376D01*
X96095894Y-135410619D01*
X96106930Y-135429032D01*
X96116109Y-135448438D01*
X96123341Y-135468650D01*
X96128557Y-135489474D01*
X96131707Y-135510709D01*
X96132760Y-135532150D01*
X96132760Y-136044650D01*
X96131707Y-136066091D01*
X96128557Y-136087326D01*
X96123341Y-136108150D01*
X96116109Y-136128362D01*
X96106930Y-136147768D01*
X96095894Y-136166181D01*
X96083106Y-136183424D01*
X96068690Y-136199330D01*
X96052784Y-136213746D01*
X96035541Y-136226534D01*
X96017128Y-136237570D01*
X95997722Y-136246749D01*
X95977510Y-136253981D01*
X95956686Y-136259197D01*
X95935451Y-136262347D01*
X95914010Y-136263400D01*
X95476510Y-136263400D01*
X95455069Y-136262347D01*
X95433834Y-136259197D01*
X95413010Y-136253981D01*
X95392798Y-136246749D01*
X95373392Y-136237570D01*
X95354979Y-136226534D01*
X95337736Y-136213746D01*
X95321830Y-136199330D01*
X95307414Y-136183424D01*
X95294626Y-136166181D01*
X95283590Y-136147768D01*
X95274411Y-136128362D01*
X95267179Y-136108150D01*
X95261963Y-136087326D01*
X95258813Y-136066091D01*
X95257760Y-136044650D01*
X95257760Y-135532150D01*
X95258813Y-135510709D01*
X95261963Y-135489474D01*
X95267179Y-135468650D01*
X95274411Y-135448438D01*
X95283590Y-135429032D01*
X95294626Y-135410619D01*
X95307414Y-135393376D01*
X95321830Y-135377470D01*
X95337736Y-135363054D01*
X95354979Y-135350266D01*
X95373392Y-135339230D01*
X95392798Y-135330051D01*
X95413010Y-135322819D01*
X95433834Y-135317603D01*
X95455069Y-135314453D01*
X95476510Y-135313400D01*
X95914010Y-135313400D01*
X95935451Y-135314453D01*
X95935451Y-135314453D01*
G37*
D11*
X95695260Y-135788400D03*
G04 #@! TD*
D10*
G04 #@! TO.C,R3*
G36*
X95935451Y-139033013D02*
X95956686Y-139036163D01*
X95977510Y-139041379D01*
X95997722Y-139048611D01*
X96017128Y-139057790D01*
X96035541Y-139068826D01*
X96052784Y-139081614D01*
X96068690Y-139096030D01*
X96083106Y-139111936D01*
X96095894Y-139129179D01*
X96106930Y-139147592D01*
X96116109Y-139166998D01*
X96123341Y-139187210D01*
X96128557Y-139208034D01*
X96131707Y-139229269D01*
X96132760Y-139250710D01*
X96132760Y-139763210D01*
X96131707Y-139784651D01*
X96128557Y-139805886D01*
X96123341Y-139826710D01*
X96116109Y-139846922D01*
X96106930Y-139866328D01*
X96095894Y-139884741D01*
X96083106Y-139901984D01*
X96068690Y-139917890D01*
X96052784Y-139932306D01*
X96035541Y-139945094D01*
X96017128Y-139956130D01*
X95997722Y-139965309D01*
X95977510Y-139972541D01*
X95956686Y-139977757D01*
X95935451Y-139980907D01*
X95914010Y-139981960D01*
X95476510Y-139981960D01*
X95455069Y-139980907D01*
X95433834Y-139977757D01*
X95413010Y-139972541D01*
X95392798Y-139965309D01*
X95373392Y-139956130D01*
X95354979Y-139945094D01*
X95337736Y-139932306D01*
X95321830Y-139917890D01*
X95307414Y-139901984D01*
X95294626Y-139884741D01*
X95283590Y-139866328D01*
X95274411Y-139846922D01*
X95267179Y-139826710D01*
X95261963Y-139805886D01*
X95258813Y-139784651D01*
X95257760Y-139763210D01*
X95257760Y-139250710D01*
X95258813Y-139229269D01*
X95261963Y-139208034D01*
X95267179Y-139187210D01*
X95274411Y-139166998D01*
X95283590Y-139147592D01*
X95294626Y-139129179D01*
X95307414Y-139111936D01*
X95321830Y-139096030D01*
X95337736Y-139081614D01*
X95354979Y-139068826D01*
X95373392Y-139057790D01*
X95392798Y-139048611D01*
X95413010Y-139041379D01*
X95433834Y-139036163D01*
X95455069Y-139033013D01*
X95476510Y-139031960D01*
X95914010Y-139031960D01*
X95935451Y-139033013D01*
X95935451Y-139033013D01*
G37*
D11*
X95695260Y-139506960D03*
D10*
G36*
X94360451Y-139033013D02*
X94381686Y-139036163D01*
X94402510Y-139041379D01*
X94422722Y-139048611D01*
X94442128Y-139057790D01*
X94460541Y-139068826D01*
X94477784Y-139081614D01*
X94493690Y-139096030D01*
X94508106Y-139111936D01*
X94520894Y-139129179D01*
X94531930Y-139147592D01*
X94541109Y-139166998D01*
X94548341Y-139187210D01*
X94553557Y-139208034D01*
X94556707Y-139229269D01*
X94557760Y-139250710D01*
X94557760Y-139763210D01*
X94556707Y-139784651D01*
X94553557Y-139805886D01*
X94548341Y-139826710D01*
X94541109Y-139846922D01*
X94531930Y-139866328D01*
X94520894Y-139884741D01*
X94508106Y-139901984D01*
X94493690Y-139917890D01*
X94477784Y-139932306D01*
X94460541Y-139945094D01*
X94442128Y-139956130D01*
X94422722Y-139965309D01*
X94402510Y-139972541D01*
X94381686Y-139977757D01*
X94360451Y-139980907D01*
X94339010Y-139981960D01*
X93901510Y-139981960D01*
X93880069Y-139980907D01*
X93858834Y-139977757D01*
X93838010Y-139972541D01*
X93817798Y-139965309D01*
X93798392Y-139956130D01*
X93779979Y-139945094D01*
X93762736Y-139932306D01*
X93746830Y-139917890D01*
X93732414Y-139901984D01*
X93719626Y-139884741D01*
X93708590Y-139866328D01*
X93699411Y-139846922D01*
X93692179Y-139826710D01*
X93686963Y-139805886D01*
X93683813Y-139784651D01*
X93682760Y-139763210D01*
X93682760Y-139250710D01*
X93683813Y-139229269D01*
X93686963Y-139208034D01*
X93692179Y-139187210D01*
X93699411Y-139166998D01*
X93708590Y-139147592D01*
X93719626Y-139129179D01*
X93732414Y-139111936D01*
X93746830Y-139096030D01*
X93762736Y-139081614D01*
X93779979Y-139068826D01*
X93798392Y-139057790D01*
X93817798Y-139048611D01*
X93838010Y-139041379D01*
X93858834Y-139036163D01*
X93880069Y-139033013D01*
X93901510Y-139031960D01*
X94339010Y-139031960D01*
X94360451Y-139033013D01*
X94360451Y-139033013D01*
G37*
D11*
X94120260Y-139506960D03*
G04 #@! TD*
D10*
G04 #@! TO.C,R4*
G36*
X84225191Y-127796053D02*
X84246426Y-127799203D01*
X84267250Y-127804419D01*
X84287462Y-127811651D01*
X84306868Y-127820830D01*
X84325281Y-127831866D01*
X84342524Y-127844654D01*
X84358430Y-127859070D01*
X84372846Y-127874976D01*
X84385634Y-127892219D01*
X84396670Y-127910632D01*
X84405849Y-127930038D01*
X84413081Y-127950250D01*
X84418297Y-127971074D01*
X84421447Y-127992309D01*
X84422500Y-128013750D01*
X84422500Y-128526250D01*
X84421447Y-128547691D01*
X84418297Y-128568926D01*
X84413081Y-128589750D01*
X84405849Y-128609962D01*
X84396670Y-128629368D01*
X84385634Y-128647781D01*
X84372846Y-128665024D01*
X84358430Y-128680930D01*
X84342524Y-128695346D01*
X84325281Y-128708134D01*
X84306868Y-128719170D01*
X84287462Y-128728349D01*
X84267250Y-128735581D01*
X84246426Y-128740797D01*
X84225191Y-128743947D01*
X84203750Y-128745000D01*
X83766250Y-128745000D01*
X83744809Y-128743947D01*
X83723574Y-128740797D01*
X83702750Y-128735581D01*
X83682538Y-128728349D01*
X83663132Y-128719170D01*
X83644719Y-128708134D01*
X83627476Y-128695346D01*
X83611570Y-128680930D01*
X83597154Y-128665024D01*
X83584366Y-128647781D01*
X83573330Y-128629368D01*
X83564151Y-128609962D01*
X83556919Y-128589750D01*
X83551703Y-128568926D01*
X83548553Y-128547691D01*
X83547500Y-128526250D01*
X83547500Y-128013750D01*
X83548553Y-127992309D01*
X83551703Y-127971074D01*
X83556919Y-127950250D01*
X83564151Y-127930038D01*
X83573330Y-127910632D01*
X83584366Y-127892219D01*
X83597154Y-127874976D01*
X83611570Y-127859070D01*
X83627476Y-127844654D01*
X83644719Y-127831866D01*
X83663132Y-127820830D01*
X83682538Y-127811651D01*
X83702750Y-127804419D01*
X83723574Y-127799203D01*
X83744809Y-127796053D01*
X83766250Y-127795000D01*
X84203750Y-127795000D01*
X84225191Y-127796053D01*
X84225191Y-127796053D01*
G37*
D11*
X83985000Y-128270000D03*
D10*
G36*
X85800191Y-127796053D02*
X85821426Y-127799203D01*
X85842250Y-127804419D01*
X85862462Y-127811651D01*
X85881868Y-127820830D01*
X85900281Y-127831866D01*
X85917524Y-127844654D01*
X85933430Y-127859070D01*
X85947846Y-127874976D01*
X85960634Y-127892219D01*
X85971670Y-127910632D01*
X85980849Y-127930038D01*
X85988081Y-127950250D01*
X85993297Y-127971074D01*
X85996447Y-127992309D01*
X85997500Y-128013750D01*
X85997500Y-128526250D01*
X85996447Y-128547691D01*
X85993297Y-128568926D01*
X85988081Y-128589750D01*
X85980849Y-128609962D01*
X85971670Y-128629368D01*
X85960634Y-128647781D01*
X85947846Y-128665024D01*
X85933430Y-128680930D01*
X85917524Y-128695346D01*
X85900281Y-128708134D01*
X85881868Y-128719170D01*
X85862462Y-128728349D01*
X85842250Y-128735581D01*
X85821426Y-128740797D01*
X85800191Y-128743947D01*
X85778750Y-128745000D01*
X85341250Y-128745000D01*
X85319809Y-128743947D01*
X85298574Y-128740797D01*
X85277750Y-128735581D01*
X85257538Y-128728349D01*
X85238132Y-128719170D01*
X85219719Y-128708134D01*
X85202476Y-128695346D01*
X85186570Y-128680930D01*
X85172154Y-128665024D01*
X85159366Y-128647781D01*
X85148330Y-128629368D01*
X85139151Y-128609962D01*
X85131919Y-128589750D01*
X85126703Y-128568926D01*
X85123553Y-128547691D01*
X85122500Y-128526250D01*
X85122500Y-128013750D01*
X85123553Y-127992309D01*
X85126703Y-127971074D01*
X85131919Y-127950250D01*
X85139151Y-127930038D01*
X85148330Y-127910632D01*
X85159366Y-127892219D01*
X85172154Y-127874976D01*
X85186570Y-127859070D01*
X85202476Y-127844654D01*
X85219719Y-127831866D01*
X85238132Y-127820830D01*
X85257538Y-127811651D01*
X85277750Y-127804419D01*
X85298574Y-127799203D01*
X85319809Y-127796053D01*
X85341250Y-127795000D01*
X85778750Y-127795000D01*
X85800191Y-127796053D01*
X85800191Y-127796053D01*
G37*
D11*
X85560000Y-128270000D03*
G04 #@! TD*
D10*
G04 #@! TO.C,R5*
G36*
X143648691Y-130717053D02*
X143669926Y-130720203D01*
X143690750Y-130725419D01*
X143710962Y-130732651D01*
X143730368Y-130741830D01*
X143748781Y-130752866D01*
X143766024Y-130765654D01*
X143781930Y-130780070D01*
X143796346Y-130795976D01*
X143809134Y-130813219D01*
X143820170Y-130831632D01*
X143829349Y-130851038D01*
X143836581Y-130871250D01*
X143841797Y-130892074D01*
X143844947Y-130913309D01*
X143846000Y-130934750D01*
X143846000Y-131447250D01*
X143844947Y-131468691D01*
X143841797Y-131489926D01*
X143836581Y-131510750D01*
X143829349Y-131530962D01*
X143820170Y-131550368D01*
X143809134Y-131568781D01*
X143796346Y-131586024D01*
X143781930Y-131601930D01*
X143766024Y-131616346D01*
X143748781Y-131629134D01*
X143730368Y-131640170D01*
X143710962Y-131649349D01*
X143690750Y-131656581D01*
X143669926Y-131661797D01*
X143648691Y-131664947D01*
X143627250Y-131666000D01*
X143189750Y-131666000D01*
X143168309Y-131664947D01*
X143147074Y-131661797D01*
X143126250Y-131656581D01*
X143106038Y-131649349D01*
X143086632Y-131640170D01*
X143068219Y-131629134D01*
X143050976Y-131616346D01*
X143035070Y-131601930D01*
X143020654Y-131586024D01*
X143007866Y-131568781D01*
X142996830Y-131550368D01*
X142987651Y-131530962D01*
X142980419Y-131510750D01*
X142975203Y-131489926D01*
X142972053Y-131468691D01*
X142971000Y-131447250D01*
X142971000Y-130934750D01*
X142972053Y-130913309D01*
X142975203Y-130892074D01*
X142980419Y-130871250D01*
X142987651Y-130851038D01*
X142996830Y-130831632D01*
X143007866Y-130813219D01*
X143020654Y-130795976D01*
X143035070Y-130780070D01*
X143050976Y-130765654D01*
X143068219Y-130752866D01*
X143086632Y-130741830D01*
X143106038Y-130732651D01*
X143126250Y-130725419D01*
X143147074Y-130720203D01*
X143168309Y-130717053D01*
X143189750Y-130716000D01*
X143627250Y-130716000D01*
X143648691Y-130717053D01*
X143648691Y-130717053D01*
G37*
D11*
X143408500Y-131191000D03*
D10*
G36*
X142073691Y-130717053D02*
X142094926Y-130720203D01*
X142115750Y-130725419D01*
X142135962Y-130732651D01*
X142155368Y-130741830D01*
X142173781Y-130752866D01*
X142191024Y-130765654D01*
X142206930Y-130780070D01*
X142221346Y-130795976D01*
X142234134Y-130813219D01*
X142245170Y-130831632D01*
X142254349Y-130851038D01*
X142261581Y-130871250D01*
X142266797Y-130892074D01*
X142269947Y-130913309D01*
X142271000Y-130934750D01*
X142271000Y-131447250D01*
X142269947Y-131468691D01*
X142266797Y-131489926D01*
X142261581Y-131510750D01*
X142254349Y-131530962D01*
X142245170Y-131550368D01*
X142234134Y-131568781D01*
X142221346Y-131586024D01*
X142206930Y-131601930D01*
X142191024Y-131616346D01*
X142173781Y-131629134D01*
X142155368Y-131640170D01*
X142135962Y-131649349D01*
X142115750Y-131656581D01*
X142094926Y-131661797D01*
X142073691Y-131664947D01*
X142052250Y-131666000D01*
X141614750Y-131666000D01*
X141593309Y-131664947D01*
X141572074Y-131661797D01*
X141551250Y-131656581D01*
X141531038Y-131649349D01*
X141511632Y-131640170D01*
X141493219Y-131629134D01*
X141475976Y-131616346D01*
X141460070Y-131601930D01*
X141445654Y-131586024D01*
X141432866Y-131568781D01*
X141421830Y-131550368D01*
X141412651Y-131530962D01*
X141405419Y-131510750D01*
X141400203Y-131489926D01*
X141397053Y-131468691D01*
X141396000Y-131447250D01*
X141396000Y-130934750D01*
X141397053Y-130913309D01*
X141400203Y-130892074D01*
X141405419Y-130871250D01*
X141412651Y-130851038D01*
X141421830Y-130831632D01*
X141432866Y-130813219D01*
X141445654Y-130795976D01*
X141460070Y-130780070D01*
X141475976Y-130765654D01*
X141493219Y-130752866D01*
X141511632Y-130741830D01*
X141531038Y-130732651D01*
X141551250Y-130725419D01*
X141572074Y-130720203D01*
X141593309Y-130717053D01*
X141614750Y-130716000D01*
X142052250Y-130716000D01*
X142073691Y-130717053D01*
X142073691Y-130717053D01*
G37*
D11*
X141833500Y-131191000D03*
G04 #@! TD*
D10*
G04 #@! TO.C,R6*
G36*
X139203691Y-133257053D02*
X139224926Y-133260203D01*
X139245750Y-133265419D01*
X139265962Y-133272651D01*
X139285368Y-133281830D01*
X139303781Y-133292866D01*
X139321024Y-133305654D01*
X139336930Y-133320070D01*
X139351346Y-133335976D01*
X139364134Y-133353219D01*
X139375170Y-133371632D01*
X139384349Y-133391038D01*
X139391581Y-133411250D01*
X139396797Y-133432074D01*
X139399947Y-133453309D01*
X139401000Y-133474750D01*
X139401000Y-133987250D01*
X139399947Y-134008691D01*
X139396797Y-134029926D01*
X139391581Y-134050750D01*
X139384349Y-134070962D01*
X139375170Y-134090368D01*
X139364134Y-134108781D01*
X139351346Y-134126024D01*
X139336930Y-134141930D01*
X139321024Y-134156346D01*
X139303781Y-134169134D01*
X139285368Y-134180170D01*
X139265962Y-134189349D01*
X139245750Y-134196581D01*
X139224926Y-134201797D01*
X139203691Y-134204947D01*
X139182250Y-134206000D01*
X138744750Y-134206000D01*
X138723309Y-134204947D01*
X138702074Y-134201797D01*
X138681250Y-134196581D01*
X138661038Y-134189349D01*
X138641632Y-134180170D01*
X138623219Y-134169134D01*
X138605976Y-134156346D01*
X138590070Y-134141930D01*
X138575654Y-134126024D01*
X138562866Y-134108781D01*
X138551830Y-134090368D01*
X138542651Y-134070962D01*
X138535419Y-134050750D01*
X138530203Y-134029926D01*
X138527053Y-134008691D01*
X138526000Y-133987250D01*
X138526000Y-133474750D01*
X138527053Y-133453309D01*
X138530203Y-133432074D01*
X138535419Y-133411250D01*
X138542651Y-133391038D01*
X138551830Y-133371632D01*
X138562866Y-133353219D01*
X138575654Y-133335976D01*
X138590070Y-133320070D01*
X138605976Y-133305654D01*
X138623219Y-133292866D01*
X138641632Y-133281830D01*
X138661038Y-133272651D01*
X138681250Y-133265419D01*
X138702074Y-133260203D01*
X138723309Y-133257053D01*
X138744750Y-133256000D01*
X139182250Y-133256000D01*
X139203691Y-133257053D01*
X139203691Y-133257053D01*
G37*
D11*
X138963500Y-133731000D03*
D10*
G36*
X137628691Y-133257053D02*
X137649926Y-133260203D01*
X137670750Y-133265419D01*
X137690962Y-133272651D01*
X137710368Y-133281830D01*
X137728781Y-133292866D01*
X137746024Y-133305654D01*
X137761930Y-133320070D01*
X137776346Y-133335976D01*
X137789134Y-133353219D01*
X137800170Y-133371632D01*
X137809349Y-133391038D01*
X137816581Y-133411250D01*
X137821797Y-133432074D01*
X137824947Y-133453309D01*
X137826000Y-133474750D01*
X137826000Y-133987250D01*
X137824947Y-134008691D01*
X137821797Y-134029926D01*
X137816581Y-134050750D01*
X137809349Y-134070962D01*
X137800170Y-134090368D01*
X137789134Y-134108781D01*
X137776346Y-134126024D01*
X137761930Y-134141930D01*
X137746024Y-134156346D01*
X137728781Y-134169134D01*
X137710368Y-134180170D01*
X137690962Y-134189349D01*
X137670750Y-134196581D01*
X137649926Y-134201797D01*
X137628691Y-134204947D01*
X137607250Y-134206000D01*
X137169750Y-134206000D01*
X137148309Y-134204947D01*
X137127074Y-134201797D01*
X137106250Y-134196581D01*
X137086038Y-134189349D01*
X137066632Y-134180170D01*
X137048219Y-134169134D01*
X137030976Y-134156346D01*
X137015070Y-134141930D01*
X137000654Y-134126024D01*
X136987866Y-134108781D01*
X136976830Y-134090368D01*
X136967651Y-134070962D01*
X136960419Y-134050750D01*
X136955203Y-134029926D01*
X136952053Y-134008691D01*
X136951000Y-133987250D01*
X136951000Y-133474750D01*
X136952053Y-133453309D01*
X136955203Y-133432074D01*
X136960419Y-133411250D01*
X136967651Y-133391038D01*
X136976830Y-133371632D01*
X136987866Y-133353219D01*
X137000654Y-133335976D01*
X137015070Y-133320070D01*
X137030976Y-133305654D01*
X137048219Y-133292866D01*
X137066632Y-133281830D01*
X137086038Y-133272651D01*
X137106250Y-133265419D01*
X137127074Y-133260203D01*
X137148309Y-133257053D01*
X137169750Y-133256000D01*
X137607250Y-133256000D01*
X137628691Y-133257053D01*
X137628691Y-133257053D01*
G37*
D11*
X137388500Y-133731000D03*
G04 #@! TD*
D15*
G04 #@! TO.C,U1*
X114126000Y-98354000D03*
X124626000Y-98354000D03*
D16*
X116126000Y-99354000D03*
X116626000Y-99354000D03*
X117126000Y-99354000D03*
X117626000Y-99354000D03*
X118126000Y-99354000D03*
X118626000Y-99354000D03*
X119126000Y-99354000D03*
X119626000Y-99354000D03*
X120126000Y-99354000D03*
X120626000Y-99354000D03*
X121126000Y-99354000D03*
X121626000Y-99354000D03*
X122126000Y-99354000D03*
X122626000Y-99354000D03*
G04 #@! TD*
D10*
G04 #@! TO.C,R7*
G36*
X135278691Y-111130413D02*
X135299926Y-111133563D01*
X135320750Y-111138779D01*
X135340962Y-111146011D01*
X135360368Y-111155190D01*
X135378781Y-111166226D01*
X135396024Y-111179014D01*
X135411930Y-111193430D01*
X135426346Y-111209336D01*
X135439134Y-111226579D01*
X135450170Y-111244992D01*
X135459349Y-111264398D01*
X135466581Y-111284610D01*
X135471797Y-111305434D01*
X135474947Y-111326669D01*
X135476000Y-111348110D01*
X135476000Y-111785610D01*
X135474947Y-111807051D01*
X135471797Y-111828286D01*
X135466581Y-111849110D01*
X135459349Y-111869322D01*
X135450170Y-111888728D01*
X135439134Y-111907141D01*
X135426346Y-111924384D01*
X135411930Y-111940290D01*
X135396024Y-111954706D01*
X135378781Y-111967494D01*
X135360368Y-111978530D01*
X135340962Y-111987709D01*
X135320750Y-111994941D01*
X135299926Y-112000157D01*
X135278691Y-112003307D01*
X135257250Y-112004360D01*
X134744750Y-112004360D01*
X134723309Y-112003307D01*
X134702074Y-112000157D01*
X134681250Y-111994941D01*
X134661038Y-111987709D01*
X134641632Y-111978530D01*
X134623219Y-111967494D01*
X134605976Y-111954706D01*
X134590070Y-111940290D01*
X134575654Y-111924384D01*
X134562866Y-111907141D01*
X134551830Y-111888728D01*
X134542651Y-111869322D01*
X134535419Y-111849110D01*
X134530203Y-111828286D01*
X134527053Y-111807051D01*
X134526000Y-111785610D01*
X134526000Y-111348110D01*
X134527053Y-111326669D01*
X134530203Y-111305434D01*
X134535419Y-111284610D01*
X134542651Y-111264398D01*
X134551830Y-111244992D01*
X134562866Y-111226579D01*
X134575654Y-111209336D01*
X134590070Y-111193430D01*
X134605976Y-111179014D01*
X134623219Y-111166226D01*
X134641632Y-111155190D01*
X134661038Y-111146011D01*
X134681250Y-111138779D01*
X134702074Y-111133563D01*
X134723309Y-111130413D01*
X134744750Y-111129360D01*
X135257250Y-111129360D01*
X135278691Y-111130413D01*
X135278691Y-111130413D01*
G37*
D11*
X135001000Y-111566860D03*
D10*
G36*
X135278691Y-112705413D02*
X135299926Y-112708563D01*
X135320750Y-112713779D01*
X135340962Y-112721011D01*
X135360368Y-112730190D01*
X135378781Y-112741226D01*
X135396024Y-112754014D01*
X135411930Y-112768430D01*
X135426346Y-112784336D01*
X135439134Y-112801579D01*
X135450170Y-112819992D01*
X135459349Y-112839398D01*
X135466581Y-112859610D01*
X135471797Y-112880434D01*
X135474947Y-112901669D01*
X135476000Y-112923110D01*
X135476000Y-113360610D01*
X135474947Y-113382051D01*
X135471797Y-113403286D01*
X135466581Y-113424110D01*
X135459349Y-113444322D01*
X135450170Y-113463728D01*
X135439134Y-113482141D01*
X135426346Y-113499384D01*
X135411930Y-113515290D01*
X135396024Y-113529706D01*
X135378781Y-113542494D01*
X135360368Y-113553530D01*
X135340962Y-113562709D01*
X135320750Y-113569941D01*
X135299926Y-113575157D01*
X135278691Y-113578307D01*
X135257250Y-113579360D01*
X134744750Y-113579360D01*
X134723309Y-113578307D01*
X134702074Y-113575157D01*
X134681250Y-113569941D01*
X134661038Y-113562709D01*
X134641632Y-113553530D01*
X134623219Y-113542494D01*
X134605976Y-113529706D01*
X134590070Y-113515290D01*
X134575654Y-113499384D01*
X134562866Y-113482141D01*
X134551830Y-113463728D01*
X134542651Y-113444322D01*
X134535419Y-113424110D01*
X134530203Y-113403286D01*
X134527053Y-113382051D01*
X134526000Y-113360610D01*
X134526000Y-112923110D01*
X134527053Y-112901669D01*
X134530203Y-112880434D01*
X134535419Y-112859610D01*
X134542651Y-112839398D01*
X134551830Y-112819992D01*
X134562866Y-112801579D01*
X134575654Y-112784336D01*
X134590070Y-112768430D01*
X134605976Y-112754014D01*
X134623219Y-112741226D01*
X134641632Y-112730190D01*
X134661038Y-112721011D01*
X134681250Y-112713779D01*
X134702074Y-112708563D01*
X134723309Y-112705413D01*
X134744750Y-112704360D01*
X135257250Y-112704360D01*
X135278691Y-112705413D01*
X135278691Y-112705413D01*
G37*
D11*
X135001000Y-113141860D03*
G04 #@! TD*
D17*
G04 #@! TO.C,SD1*
X91526360Y-132684520D03*
X91526360Y-138384520D03*
D18*
X78376360Y-130869520D03*
X77376360Y-144069520D03*
D19*
X81076360Y-131684520D03*
X81076360Y-139384520D03*
X81076360Y-138284520D03*
X81076360Y-137184520D03*
X81076360Y-136084520D03*
X81076360Y-134984520D03*
X81076360Y-133884520D03*
X81076360Y-132784520D03*
G04 #@! TD*
M02*
