G04 #@! TF.GenerationSoftware,KiCad,Pcbnew,(5.0.2)-1*
G04 #@! TF.CreationDate,2019-10-04T12:45:50+03:00*
G04 #@! TF.ProjectId,UI-Micro-SD,55492d4d-6963-4726-9f2d-53442e6b6963,rev?*
G04 #@! TF.SameCoordinates,Original*
G04 #@! TF.FileFunction,Copper,L1,Top*
G04 #@! TF.FilePolarity,Positive*
%FSLAX46Y46*%
G04 Gerber Fmt 4.6, Leading zero omitted, Abs format (unit mm)*
G04 Created by KiCad (PCBNEW (5.0.2)-1) date 04.10.2019 12:45:50*
%MOMM*%
%LPD*%
G01*
G04 APERTURE LIST*
G04 #@! TA.AperFunction,BGAPad,CuDef*
%ADD10C,1.500000*%
G04 #@! TD*
G04 #@! TA.AperFunction,ComponentPad*
%ADD11C,3.800000*%
G04 #@! TD*
G04 #@! TA.AperFunction,Conductor*
%ADD12C,0.100000*%
G04 #@! TD*
G04 #@! TA.AperFunction,SMDPad,CuDef*
%ADD13C,0.875000*%
G04 #@! TD*
G04 #@! TA.AperFunction,SMDPad,CuDef*
%ADD14C,0.975000*%
G04 #@! TD*
G04 #@! TA.AperFunction,SMDPad,CuDef*
%ADD15R,1.475000X0.450000*%
G04 #@! TD*
G04 #@! TA.AperFunction,ComponentPad*
%ADD16R,1.700000X1.700000*%
G04 #@! TD*
G04 #@! TA.AperFunction,ComponentPad*
%ADD17O,1.700000X1.700000*%
G04 #@! TD*
G04 #@! TA.AperFunction,SMDPad,CuDef*
%ADD18R,1.300000X0.600000*%
G04 #@! TD*
G04 #@! TA.AperFunction,SMDPad,CuDef*
%ADD19R,3.000000X2.500000*%
G04 #@! TD*
G04 #@! TA.AperFunction,SMDPad,CuDef*
%ADD20R,0.300000X1.600000*%
G04 #@! TD*
G04 #@! TA.AperFunction,ComponentPad*
%ADD21R,1.800000X1.800000*%
G04 #@! TD*
G04 #@! TA.AperFunction,SMDPad,CuDef*
%ADD22R,1.400000X1.800000*%
G04 #@! TD*
G04 #@! TA.AperFunction,SMDPad,CuDef*
%ADD23R,1.900000X1.450000*%
G04 #@! TD*
G04 #@! TA.AperFunction,SMDPad,CuDef*
%ADD24R,2.000000X0.800000*%
G04 #@! TD*
G04 #@! TA.AperFunction,ViaPad*
%ADD25C,0.800000*%
G04 #@! TD*
G04 #@! TA.AperFunction,Conductor*
%ADD26C,0.254000*%
G04 #@! TD*
G04 #@! TA.AperFunction,Conductor*
%ADD27C,0.310000*%
G04 #@! TD*
G04 #@! TA.AperFunction,Conductor*
%ADD28C,1.000000*%
G04 #@! TD*
G04 #@! TA.AperFunction,Conductor*
%ADD29C,0.508000*%
G04 #@! TD*
G04 APERTURE END LIST*
D10*
G04 #@! TO.P,FID2,1*
G04 #@! TO.N,N/C*
X103063040Y-97993200D03*
G04 #@! TD*
D11*
G04 #@! TO.P,H1,1*
G04 #@! TO.N,N/C*
X101600000Y-104775000D03*
G04 #@! TD*
G04 #@! TO.P,H2,1*
G04 #@! TO.N,N/C*
X137160000Y-104775000D03*
G04 #@! TD*
G04 #@! TO.P,H3,1*
G04 #@! TO.N,N/C*
X119380000Y-143510000D03*
G04 #@! TD*
D12*
G04 #@! TO.N,+3V3*
G04 #@! TO.C,C1*
G36*
X142342831Y-138966973D02*
X142364066Y-138970123D01*
X142384890Y-138975339D01*
X142405102Y-138982571D01*
X142424508Y-138991750D01*
X142442921Y-139002786D01*
X142460164Y-139015574D01*
X142476070Y-139029990D01*
X142490486Y-139045896D01*
X142503274Y-139063139D01*
X142514310Y-139081552D01*
X142523489Y-139100958D01*
X142530721Y-139121170D01*
X142535937Y-139141994D01*
X142539087Y-139163229D01*
X142540140Y-139184670D01*
X142540140Y-139697170D01*
X142539087Y-139718611D01*
X142535937Y-139739846D01*
X142530721Y-139760670D01*
X142523489Y-139780882D01*
X142514310Y-139800288D01*
X142503274Y-139818701D01*
X142490486Y-139835944D01*
X142476070Y-139851850D01*
X142460164Y-139866266D01*
X142442921Y-139879054D01*
X142424508Y-139890090D01*
X142405102Y-139899269D01*
X142384890Y-139906501D01*
X142364066Y-139911717D01*
X142342831Y-139914867D01*
X142321390Y-139915920D01*
X141883890Y-139915920D01*
X141862449Y-139914867D01*
X141841214Y-139911717D01*
X141820390Y-139906501D01*
X141800178Y-139899269D01*
X141780772Y-139890090D01*
X141762359Y-139879054D01*
X141745116Y-139866266D01*
X141729210Y-139851850D01*
X141714794Y-139835944D01*
X141702006Y-139818701D01*
X141690970Y-139800288D01*
X141681791Y-139780882D01*
X141674559Y-139760670D01*
X141669343Y-139739846D01*
X141666193Y-139718611D01*
X141665140Y-139697170D01*
X141665140Y-139184670D01*
X141666193Y-139163229D01*
X141669343Y-139141994D01*
X141674559Y-139121170D01*
X141681791Y-139100958D01*
X141690970Y-139081552D01*
X141702006Y-139063139D01*
X141714794Y-139045896D01*
X141729210Y-139029990D01*
X141745116Y-139015574D01*
X141762359Y-139002786D01*
X141780772Y-138991750D01*
X141800178Y-138982571D01*
X141820390Y-138975339D01*
X141841214Y-138970123D01*
X141862449Y-138966973D01*
X141883890Y-138965920D01*
X142321390Y-138965920D01*
X142342831Y-138966973D01*
X142342831Y-138966973D01*
G37*
D13*
G04 #@! TD*
G04 #@! TO.P,C1,1*
G04 #@! TO.N,+3V3*
X142102640Y-139440920D03*
D12*
G04 #@! TO.N,GND*
G04 #@! TO.C,C1*
G36*
X143917831Y-138966973D02*
X143939066Y-138970123D01*
X143959890Y-138975339D01*
X143980102Y-138982571D01*
X143999508Y-138991750D01*
X144017921Y-139002786D01*
X144035164Y-139015574D01*
X144051070Y-139029990D01*
X144065486Y-139045896D01*
X144078274Y-139063139D01*
X144089310Y-139081552D01*
X144098489Y-139100958D01*
X144105721Y-139121170D01*
X144110937Y-139141994D01*
X144114087Y-139163229D01*
X144115140Y-139184670D01*
X144115140Y-139697170D01*
X144114087Y-139718611D01*
X144110937Y-139739846D01*
X144105721Y-139760670D01*
X144098489Y-139780882D01*
X144089310Y-139800288D01*
X144078274Y-139818701D01*
X144065486Y-139835944D01*
X144051070Y-139851850D01*
X144035164Y-139866266D01*
X144017921Y-139879054D01*
X143999508Y-139890090D01*
X143980102Y-139899269D01*
X143959890Y-139906501D01*
X143939066Y-139911717D01*
X143917831Y-139914867D01*
X143896390Y-139915920D01*
X143458890Y-139915920D01*
X143437449Y-139914867D01*
X143416214Y-139911717D01*
X143395390Y-139906501D01*
X143375178Y-139899269D01*
X143355772Y-139890090D01*
X143337359Y-139879054D01*
X143320116Y-139866266D01*
X143304210Y-139851850D01*
X143289794Y-139835944D01*
X143277006Y-139818701D01*
X143265970Y-139800288D01*
X143256791Y-139780882D01*
X143249559Y-139760670D01*
X143244343Y-139739846D01*
X143241193Y-139718611D01*
X143240140Y-139697170D01*
X143240140Y-139184670D01*
X143241193Y-139163229D01*
X143244343Y-139141994D01*
X143249559Y-139121170D01*
X143256791Y-139100958D01*
X143265970Y-139081552D01*
X143277006Y-139063139D01*
X143289794Y-139045896D01*
X143304210Y-139029990D01*
X143320116Y-139015574D01*
X143337359Y-139002786D01*
X143355772Y-138991750D01*
X143375178Y-138982571D01*
X143395390Y-138975339D01*
X143416214Y-138970123D01*
X143437449Y-138966973D01*
X143458890Y-138965920D01*
X143896390Y-138965920D01*
X143917831Y-138966973D01*
X143917831Y-138966973D01*
G37*
D13*
G04 #@! TD*
G04 #@! TO.P,C1,2*
G04 #@! TO.N,GND*
X143677640Y-139440920D03*
D12*
G04 #@! TO.N,+3V3*
G04 #@! TO.C,C2*
G36*
X94437902Y-136948854D02*
X94461563Y-136952364D01*
X94484767Y-136958176D01*
X94507289Y-136966234D01*
X94528913Y-136976462D01*
X94549430Y-136988759D01*
X94568643Y-137003009D01*
X94586367Y-137019073D01*
X94602431Y-137036797D01*
X94616681Y-137056010D01*
X94628978Y-137076527D01*
X94639206Y-137098151D01*
X94647264Y-137120673D01*
X94653076Y-137143877D01*
X94656586Y-137167538D01*
X94657760Y-137191430D01*
X94657760Y-138103930D01*
X94656586Y-138127822D01*
X94653076Y-138151483D01*
X94647264Y-138174687D01*
X94639206Y-138197209D01*
X94628978Y-138218833D01*
X94616681Y-138239350D01*
X94602431Y-138258563D01*
X94586367Y-138276287D01*
X94568643Y-138292351D01*
X94549430Y-138306601D01*
X94528913Y-138318898D01*
X94507289Y-138329126D01*
X94484767Y-138337184D01*
X94461563Y-138342996D01*
X94437902Y-138346506D01*
X94414010Y-138347680D01*
X93926510Y-138347680D01*
X93902618Y-138346506D01*
X93878957Y-138342996D01*
X93855753Y-138337184D01*
X93833231Y-138329126D01*
X93811607Y-138318898D01*
X93791090Y-138306601D01*
X93771877Y-138292351D01*
X93754153Y-138276287D01*
X93738089Y-138258563D01*
X93723839Y-138239350D01*
X93711542Y-138218833D01*
X93701314Y-138197209D01*
X93693256Y-138174687D01*
X93687444Y-138151483D01*
X93683934Y-138127822D01*
X93682760Y-138103930D01*
X93682760Y-137191430D01*
X93683934Y-137167538D01*
X93687444Y-137143877D01*
X93693256Y-137120673D01*
X93701314Y-137098151D01*
X93711542Y-137076527D01*
X93723839Y-137056010D01*
X93738089Y-137036797D01*
X93754153Y-137019073D01*
X93771877Y-137003009D01*
X93791090Y-136988759D01*
X93811607Y-136976462D01*
X93833231Y-136966234D01*
X93855753Y-136958176D01*
X93878957Y-136952364D01*
X93902618Y-136948854D01*
X93926510Y-136947680D01*
X94414010Y-136947680D01*
X94437902Y-136948854D01*
X94437902Y-136948854D01*
G37*
D14*
G04 #@! TD*
G04 #@! TO.P,C2,1*
G04 #@! TO.N,+3V3*
X94170260Y-137647680D03*
D12*
G04 #@! TO.N,GND*
G04 #@! TO.C,C2*
G36*
X96312902Y-136948854D02*
X96336563Y-136952364D01*
X96359767Y-136958176D01*
X96382289Y-136966234D01*
X96403913Y-136976462D01*
X96424430Y-136988759D01*
X96443643Y-137003009D01*
X96461367Y-137019073D01*
X96477431Y-137036797D01*
X96491681Y-137056010D01*
X96503978Y-137076527D01*
X96514206Y-137098151D01*
X96522264Y-137120673D01*
X96528076Y-137143877D01*
X96531586Y-137167538D01*
X96532760Y-137191430D01*
X96532760Y-138103930D01*
X96531586Y-138127822D01*
X96528076Y-138151483D01*
X96522264Y-138174687D01*
X96514206Y-138197209D01*
X96503978Y-138218833D01*
X96491681Y-138239350D01*
X96477431Y-138258563D01*
X96461367Y-138276287D01*
X96443643Y-138292351D01*
X96424430Y-138306601D01*
X96403913Y-138318898D01*
X96382289Y-138329126D01*
X96359767Y-138337184D01*
X96336563Y-138342996D01*
X96312902Y-138346506D01*
X96289010Y-138347680D01*
X95801510Y-138347680D01*
X95777618Y-138346506D01*
X95753957Y-138342996D01*
X95730753Y-138337184D01*
X95708231Y-138329126D01*
X95686607Y-138318898D01*
X95666090Y-138306601D01*
X95646877Y-138292351D01*
X95629153Y-138276287D01*
X95613089Y-138258563D01*
X95598839Y-138239350D01*
X95586542Y-138218833D01*
X95576314Y-138197209D01*
X95568256Y-138174687D01*
X95562444Y-138151483D01*
X95558934Y-138127822D01*
X95557760Y-138103930D01*
X95557760Y-137191430D01*
X95558934Y-137167538D01*
X95562444Y-137143877D01*
X95568256Y-137120673D01*
X95576314Y-137098151D01*
X95586542Y-137076527D01*
X95598839Y-137056010D01*
X95613089Y-137036797D01*
X95629153Y-137019073D01*
X95646877Y-137003009D01*
X95666090Y-136988759D01*
X95686607Y-136976462D01*
X95708231Y-136966234D01*
X95730753Y-136958176D01*
X95753957Y-136952364D01*
X95777618Y-136948854D01*
X95801510Y-136947680D01*
X96289010Y-136947680D01*
X96312902Y-136948854D01*
X96312902Y-136948854D01*
G37*
D14*
G04 #@! TD*
G04 #@! TO.P,C2,2*
G04 #@! TO.N,GND*
X96045260Y-137647680D03*
D12*
G04 #@! TO.N,GND*
G04 #@! TO.C,C3*
G36*
X124207531Y-112942133D02*
X124228766Y-112945283D01*
X124249590Y-112950499D01*
X124269802Y-112957731D01*
X124289208Y-112966910D01*
X124307621Y-112977946D01*
X124324864Y-112990734D01*
X124340770Y-113005150D01*
X124355186Y-113021056D01*
X124367974Y-113038299D01*
X124379010Y-113056712D01*
X124388189Y-113076118D01*
X124395421Y-113096330D01*
X124400637Y-113117154D01*
X124403787Y-113138389D01*
X124404840Y-113159830D01*
X124404840Y-113672330D01*
X124403787Y-113693771D01*
X124400637Y-113715006D01*
X124395421Y-113735830D01*
X124388189Y-113756042D01*
X124379010Y-113775448D01*
X124367974Y-113793861D01*
X124355186Y-113811104D01*
X124340770Y-113827010D01*
X124324864Y-113841426D01*
X124307621Y-113854214D01*
X124289208Y-113865250D01*
X124269802Y-113874429D01*
X124249590Y-113881661D01*
X124228766Y-113886877D01*
X124207531Y-113890027D01*
X124186090Y-113891080D01*
X123748590Y-113891080D01*
X123727149Y-113890027D01*
X123705914Y-113886877D01*
X123685090Y-113881661D01*
X123664878Y-113874429D01*
X123645472Y-113865250D01*
X123627059Y-113854214D01*
X123609816Y-113841426D01*
X123593910Y-113827010D01*
X123579494Y-113811104D01*
X123566706Y-113793861D01*
X123555670Y-113775448D01*
X123546491Y-113756042D01*
X123539259Y-113735830D01*
X123534043Y-113715006D01*
X123530893Y-113693771D01*
X123529840Y-113672330D01*
X123529840Y-113159830D01*
X123530893Y-113138389D01*
X123534043Y-113117154D01*
X123539259Y-113096330D01*
X123546491Y-113076118D01*
X123555670Y-113056712D01*
X123566706Y-113038299D01*
X123579494Y-113021056D01*
X123593910Y-113005150D01*
X123609816Y-112990734D01*
X123627059Y-112977946D01*
X123645472Y-112966910D01*
X123664878Y-112957731D01*
X123685090Y-112950499D01*
X123705914Y-112945283D01*
X123727149Y-112942133D01*
X123748590Y-112941080D01*
X124186090Y-112941080D01*
X124207531Y-112942133D01*
X124207531Y-112942133D01*
G37*
D13*
G04 #@! TD*
G04 #@! TO.P,C3,2*
G04 #@! TO.N,GND*
X123967340Y-113416080D03*
D12*
G04 #@! TO.N,+3V3*
G04 #@! TO.C,C3*
G36*
X122632531Y-112942133D02*
X122653766Y-112945283D01*
X122674590Y-112950499D01*
X122694802Y-112957731D01*
X122714208Y-112966910D01*
X122732621Y-112977946D01*
X122749864Y-112990734D01*
X122765770Y-113005150D01*
X122780186Y-113021056D01*
X122792974Y-113038299D01*
X122804010Y-113056712D01*
X122813189Y-113076118D01*
X122820421Y-113096330D01*
X122825637Y-113117154D01*
X122828787Y-113138389D01*
X122829840Y-113159830D01*
X122829840Y-113672330D01*
X122828787Y-113693771D01*
X122825637Y-113715006D01*
X122820421Y-113735830D01*
X122813189Y-113756042D01*
X122804010Y-113775448D01*
X122792974Y-113793861D01*
X122780186Y-113811104D01*
X122765770Y-113827010D01*
X122749864Y-113841426D01*
X122732621Y-113854214D01*
X122714208Y-113865250D01*
X122694802Y-113874429D01*
X122674590Y-113881661D01*
X122653766Y-113886877D01*
X122632531Y-113890027D01*
X122611090Y-113891080D01*
X122173590Y-113891080D01*
X122152149Y-113890027D01*
X122130914Y-113886877D01*
X122110090Y-113881661D01*
X122089878Y-113874429D01*
X122070472Y-113865250D01*
X122052059Y-113854214D01*
X122034816Y-113841426D01*
X122018910Y-113827010D01*
X122004494Y-113811104D01*
X121991706Y-113793861D01*
X121980670Y-113775448D01*
X121971491Y-113756042D01*
X121964259Y-113735830D01*
X121959043Y-113715006D01*
X121955893Y-113693771D01*
X121954840Y-113672330D01*
X121954840Y-113159830D01*
X121955893Y-113138389D01*
X121959043Y-113117154D01*
X121964259Y-113096330D01*
X121971491Y-113076118D01*
X121980670Y-113056712D01*
X121991706Y-113038299D01*
X122004494Y-113021056D01*
X122018910Y-113005150D01*
X122034816Y-112990734D01*
X122052059Y-112977946D01*
X122070472Y-112966910D01*
X122089878Y-112957731D01*
X122110090Y-112950499D01*
X122130914Y-112945283D01*
X122152149Y-112942133D01*
X122173590Y-112941080D01*
X122611090Y-112941080D01*
X122632531Y-112942133D01*
X122632531Y-112942133D01*
G37*
D13*
G04 #@! TD*
G04 #@! TO.P,C3,1*
G04 #@! TO.N,+3V3*
X122392340Y-113416080D03*
D12*
G04 #@! TO.N,Net-(DS1-Pad1)*
G04 #@! TO.C,DS1*
G36*
X81215142Y-127571174D02*
X81238803Y-127574684D01*
X81262007Y-127580496D01*
X81284529Y-127588554D01*
X81306153Y-127598782D01*
X81326670Y-127611079D01*
X81345883Y-127625329D01*
X81363607Y-127641393D01*
X81379671Y-127659117D01*
X81393921Y-127678330D01*
X81406218Y-127698847D01*
X81416446Y-127720471D01*
X81424504Y-127742993D01*
X81430316Y-127766197D01*
X81433826Y-127789858D01*
X81435000Y-127813750D01*
X81435000Y-128726250D01*
X81433826Y-128750142D01*
X81430316Y-128773803D01*
X81424504Y-128797007D01*
X81416446Y-128819529D01*
X81406218Y-128841153D01*
X81393921Y-128861670D01*
X81379671Y-128880883D01*
X81363607Y-128898607D01*
X81345883Y-128914671D01*
X81326670Y-128928921D01*
X81306153Y-128941218D01*
X81284529Y-128951446D01*
X81262007Y-128959504D01*
X81238803Y-128965316D01*
X81215142Y-128968826D01*
X81191250Y-128970000D01*
X80703750Y-128970000D01*
X80679858Y-128968826D01*
X80656197Y-128965316D01*
X80632993Y-128959504D01*
X80610471Y-128951446D01*
X80588847Y-128941218D01*
X80568330Y-128928921D01*
X80549117Y-128914671D01*
X80531393Y-128898607D01*
X80515329Y-128880883D01*
X80501079Y-128861670D01*
X80488782Y-128841153D01*
X80478554Y-128819529D01*
X80470496Y-128797007D01*
X80464684Y-128773803D01*
X80461174Y-128750142D01*
X80460000Y-128726250D01*
X80460000Y-127813750D01*
X80461174Y-127789858D01*
X80464684Y-127766197D01*
X80470496Y-127742993D01*
X80478554Y-127720471D01*
X80488782Y-127698847D01*
X80501079Y-127678330D01*
X80515329Y-127659117D01*
X80531393Y-127641393D01*
X80549117Y-127625329D01*
X80568330Y-127611079D01*
X80588847Y-127598782D01*
X80610471Y-127588554D01*
X80632993Y-127580496D01*
X80656197Y-127574684D01*
X80679858Y-127571174D01*
X80703750Y-127570000D01*
X81191250Y-127570000D01*
X81215142Y-127571174D01*
X81215142Y-127571174D01*
G37*
D14*
G04 #@! TD*
G04 #@! TO.P,DS1,1*
G04 #@! TO.N,Net-(DS1-Pad1)*
X80947500Y-128270000D03*
D12*
G04 #@! TO.N,Net-(DS1-Pad2)*
G04 #@! TO.C,DS1*
G36*
X79340142Y-127571174D02*
X79363803Y-127574684D01*
X79387007Y-127580496D01*
X79409529Y-127588554D01*
X79431153Y-127598782D01*
X79451670Y-127611079D01*
X79470883Y-127625329D01*
X79488607Y-127641393D01*
X79504671Y-127659117D01*
X79518921Y-127678330D01*
X79531218Y-127698847D01*
X79541446Y-127720471D01*
X79549504Y-127742993D01*
X79555316Y-127766197D01*
X79558826Y-127789858D01*
X79560000Y-127813750D01*
X79560000Y-128726250D01*
X79558826Y-128750142D01*
X79555316Y-128773803D01*
X79549504Y-128797007D01*
X79541446Y-128819529D01*
X79531218Y-128841153D01*
X79518921Y-128861670D01*
X79504671Y-128880883D01*
X79488607Y-128898607D01*
X79470883Y-128914671D01*
X79451670Y-128928921D01*
X79431153Y-128941218D01*
X79409529Y-128951446D01*
X79387007Y-128959504D01*
X79363803Y-128965316D01*
X79340142Y-128968826D01*
X79316250Y-128970000D01*
X78828750Y-128970000D01*
X78804858Y-128968826D01*
X78781197Y-128965316D01*
X78757993Y-128959504D01*
X78735471Y-128951446D01*
X78713847Y-128941218D01*
X78693330Y-128928921D01*
X78674117Y-128914671D01*
X78656393Y-128898607D01*
X78640329Y-128880883D01*
X78626079Y-128861670D01*
X78613782Y-128841153D01*
X78603554Y-128819529D01*
X78595496Y-128797007D01*
X78589684Y-128773803D01*
X78586174Y-128750142D01*
X78585000Y-128726250D01*
X78585000Y-127813750D01*
X78586174Y-127789858D01*
X78589684Y-127766197D01*
X78595496Y-127742993D01*
X78603554Y-127720471D01*
X78613782Y-127698847D01*
X78626079Y-127678330D01*
X78640329Y-127659117D01*
X78656393Y-127641393D01*
X78674117Y-127625329D01*
X78693330Y-127611079D01*
X78713847Y-127598782D01*
X78735471Y-127588554D01*
X78757993Y-127580496D01*
X78781197Y-127574684D01*
X78804858Y-127571174D01*
X78828750Y-127570000D01*
X79316250Y-127570000D01*
X79340142Y-127571174D01*
X79340142Y-127571174D01*
G37*
D14*
G04 #@! TD*
G04 #@! TO.P,DS1,2*
G04 #@! TO.N,Net-(DS1-Pad2)*
X79072500Y-128270000D03*
D10*
G04 #@! TO.P,FID1,1*
G04 #@! TO.N,N/C*
X157200600Y-142549880D03*
G04 #@! TD*
D15*
G04 #@! TO.P,IC1,1*
G04 #@! TO.N,A0*
X116473750Y-115834000D03*
G04 #@! TO.P,IC1,2*
G04 #@! TO.N,A1*
X116473750Y-116484000D03*
G04 #@! TO.P,IC1,3*
G04 #@! TO.N,A2*
X116473750Y-117134000D03*
G04 #@! TO.P,IC1,4*
G04 #@! TO.N,P0*
X116473750Y-117784000D03*
G04 #@! TO.P,IC1,5*
G04 #@! TO.N,P1*
X116473750Y-118434000D03*
G04 #@! TO.P,IC1,6*
G04 #@! TO.N,P2*
X116473750Y-119084000D03*
G04 #@! TO.P,IC1,7*
G04 #@! TO.N,P3*
X116473750Y-119734000D03*
G04 #@! TO.P,IC1,8*
G04 #@! TO.N,GND*
X116473750Y-120384000D03*
G04 #@! TO.P,IC1,9*
G04 #@! TO.N,P4*
X122349750Y-120384000D03*
G04 #@! TO.P,IC1,10*
G04 #@! TO.N,P5*
X122349750Y-119734000D03*
G04 #@! TO.P,IC1,11*
G04 #@! TO.N,P6*
X122349750Y-119084000D03*
G04 #@! TO.P,IC1,12*
G04 #@! TO.N,P7*
X122349750Y-118434000D03*
G04 #@! TO.P,IC1,13*
G04 #@! TO.N,INT*
X122349750Y-117784000D03*
G04 #@! TO.P,IC1,14*
G04 #@! TO.N,I2C_SCL*
X122349750Y-117134000D03*
G04 #@! TO.P,IC1,15*
G04 #@! TO.N,I2C_SDA*
X122349750Y-116484000D03*
G04 #@! TO.P,IC1,16*
G04 #@! TO.N,+3V3*
X122349750Y-115834000D03*
G04 #@! TD*
D16*
G04 #@! TO.P,J6,1*
G04 #@! TO.N,P0*
X109982000Y-104775000D03*
D17*
G04 #@! TO.P,J6,2*
G04 #@! TO.N,P1*
X112522000Y-104775000D03*
G04 #@! TO.P,J6,3*
G04 #@! TO.N,P2*
X115062000Y-104775000D03*
G04 #@! TO.P,J6,4*
G04 #@! TO.N,P3*
X117602000Y-104775000D03*
G04 #@! TO.P,J6,5*
G04 #@! TO.N,P4*
X120142000Y-104775000D03*
G04 #@! TO.P,J6,6*
G04 #@! TO.N,P5*
X122682000Y-104775000D03*
G04 #@! TO.P,J6,7*
G04 #@! TO.N,P6*
X125222000Y-104775000D03*
G04 #@! TO.P,J6,8*
G04 #@! TO.N,P7*
X127762000Y-104775000D03*
G04 #@! TD*
D18*
G04 #@! TO.P,Q1,3*
G04 #@! TO.N,Net-(Q1-Pad3)*
X143226500Y-134683500D03*
G04 #@! TO.P,Q1,2*
G04 #@! TO.N,GND*
X141126500Y-135633500D03*
G04 #@! TO.P,Q1,1*
G04 #@! TO.N,LCD_BACKLIGHT*
X141126500Y-133733500D03*
G04 #@! TD*
D12*
G04 #@! TO.N,HSPI_CS*
G04 #@! TO.C,R1*
G36*
X107961691Y-129510553D02*
X107982926Y-129513703D01*
X108003750Y-129518919D01*
X108023962Y-129526151D01*
X108043368Y-129535330D01*
X108061781Y-129546366D01*
X108079024Y-129559154D01*
X108094930Y-129573570D01*
X108109346Y-129589476D01*
X108122134Y-129606719D01*
X108133170Y-129625132D01*
X108142349Y-129644538D01*
X108149581Y-129664750D01*
X108154797Y-129685574D01*
X108157947Y-129706809D01*
X108159000Y-129728250D01*
X108159000Y-130240750D01*
X108157947Y-130262191D01*
X108154797Y-130283426D01*
X108149581Y-130304250D01*
X108142349Y-130324462D01*
X108133170Y-130343868D01*
X108122134Y-130362281D01*
X108109346Y-130379524D01*
X108094930Y-130395430D01*
X108079024Y-130409846D01*
X108061781Y-130422634D01*
X108043368Y-130433670D01*
X108023962Y-130442849D01*
X108003750Y-130450081D01*
X107982926Y-130455297D01*
X107961691Y-130458447D01*
X107940250Y-130459500D01*
X107502750Y-130459500D01*
X107481309Y-130458447D01*
X107460074Y-130455297D01*
X107439250Y-130450081D01*
X107419038Y-130442849D01*
X107399632Y-130433670D01*
X107381219Y-130422634D01*
X107363976Y-130409846D01*
X107348070Y-130395430D01*
X107333654Y-130379524D01*
X107320866Y-130362281D01*
X107309830Y-130343868D01*
X107300651Y-130324462D01*
X107293419Y-130304250D01*
X107288203Y-130283426D01*
X107285053Y-130262191D01*
X107284000Y-130240750D01*
X107284000Y-129728250D01*
X107285053Y-129706809D01*
X107288203Y-129685574D01*
X107293419Y-129664750D01*
X107300651Y-129644538D01*
X107309830Y-129625132D01*
X107320866Y-129606719D01*
X107333654Y-129589476D01*
X107348070Y-129573570D01*
X107363976Y-129559154D01*
X107381219Y-129546366D01*
X107399632Y-129535330D01*
X107419038Y-129526151D01*
X107439250Y-129518919D01*
X107460074Y-129513703D01*
X107481309Y-129510553D01*
X107502750Y-129509500D01*
X107940250Y-129509500D01*
X107961691Y-129510553D01*
X107961691Y-129510553D01*
G37*
D13*
G04 #@! TD*
G04 #@! TO.P,R1,2*
G04 #@! TO.N,HSPI_CS*
X107721500Y-129984500D03*
D12*
G04 #@! TO.N,+3V3*
G04 #@! TO.C,R1*
G36*
X106386691Y-129510553D02*
X106407926Y-129513703D01*
X106428750Y-129518919D01*
X106448962Y-129526151D01*
X106468368Y-129535330D01*
X106486781Y-129546366D01*
X106504024Y-129559154D01*
X106519930Y-129573570D01*
X106534346Y-129589476D01*
X106547134Y-129606719D01*
X106558170Y-129625132D01*
X106567349Y-129644538D01*
X106574581Y-129664750D01*
X106579797Y-129685574D01*
X106582947Y-129706809D01*
X106584000Y-129728250D01*
X106584000Y-130240750D01*
X106582947Y-130262191D01*
X106579797Y-130283426D01*
X106574581Y-130304250D01*
X106567349Y-130324462D01*
X106558170Y-130343868D01*
X106547134Y-130362281D01*
X106534346Y-130379524D01*
X106519930Y-130395430D01*
X106504024Y-130409846D01*
X106486781Y-130422634D01*
X106468368Y-130433670D01*
X106448962Y-130442849D01*
X106428750Y-130450081D01*
X106407926Y-130455297D01*
X106386691Y-130458447D01*
X106365250Y-130459500D01*
X105927750Y-130459500D01*
X105906309Y-130458447D01*
X105885074Y-130455297D01*
X105864250Y-130450081D01*
X105844038Y-130442849D01*
X105824632Y-130433670D01*
X105806219Y-130422634D01*
X105788976Y-130409846D01*
X105773070Y-130395430D01*
X105758654Y-130379524D01*
X105745866Y-130362281D01*
X105734830Y-130343868D01*
X105725651Y-130324462D01*
X105718419Y-130304250D01*
X105713203Y-130283426D01*
X105710053Y-130262191D01*
X105709000Y-130240750D01*
X105709000Y-129728250D01*
X105710053Y-129706809D01*
X105713203Y-129685574D01*
X105718419Y-129664750D01*
X105725651Y-129644538D01*
X105734830Y-129625132D01*
X105745866Y-129606719D01*
X105758654Y-129589476D01*
X105773070Y-129573570D01*
X105788976Y-129559154D01*
X105806219Y-129546366D01*
X105824632Y-129535330D01*
X105844038Y-129526151D01*
X105864250Y-129518919D01*
X105885074Y-129513703D01*
X105906309Y-129510553D01*
X105927750Y-129509500D01*
X106365250Y-129509500D01*
X106386691Y-129510553D01*
X106386691Y-129510553D01*
G37*
D13*
G04 #@! TD*
G04 #@! TO.P,R1,1*
G04 #@! TO.N,+3V3*
X106146500Y-129984500D03*
D12*
G04 #@! TO.N,+3V3*
G04 #@! TO.C,R2*
G36*
X94360451Y-135314453D02*
X94381686Y-135317603D01*
X94402510Y-135322819D01*
X94422722Y-135330051D01*
X94442128Y-135339230D01*
X94460541Y-135350266D01*
X94477784Y-135363054D01*
X94493690Y-135377470D01*
X94508106Y-135393376D01*
X94520894Y-135410619D01*
X94531930Y-135429032D01*
X94541109Y-135448438D01*
X94548341Y-135468650D01*
X94553557Y-135489474D01*
X94556707Y-135510709D01*
X94557760Y-135532150D01*
X94557760Y-136044650D01*
X94556707Y-136066091D01*
X94553557Y-136087326D01*
X94548341Y-136108150D01*
X94541109Y-136128362D01*
X94531930Y-136147768D01*
X94520894Y-136166181D01*
X94508106Y-136183424D01*
X94493690Y-136199330D01*
X94477784Y-136213746D01*
X94460541Y-136226534D01*
X94442128Y-136237570D01*
X94422722Y-136246749D01*
X94402510Y-136253981D01*
X94381686Y-136259197D01*
X94360451Y-136262347D01*
X94339010Y-136263400D01*
X93901510Y-136263400D01*
X93880069Y-136262347D01*
X93858834Y-136259197D01*
X93838010Y-136253981D01*
X93817798Y-136246749D01*
X93798392Y-136237570D01*
X93779979Y-136226534D01*
X93762736Y-136213746D01*
X93746830Y-136199330D01*
X93732414Y-136183424D01*
X93719626Y-136166181D01*
X93708590Y-136147768D01*
X93699411Y-136128362D01*
X93692179Y-136108150D01*
X93686963Y-136087326D01*
X93683813Y-136066091D01*
X93682760Y-136044650D01*
X93682760Y-135532150D01*
X93683813Y-135510709D01*
X93686963Y-135489474D01*
X93692179Y-135468650D01*
X93699411Y-135448438D01*
X93708590Y-135429032D01*
X93719626Y-135410619D01*
X93732414Y-135393376D01*
X93746830Y-135377470D01*
X93762736Y-135363054D01*
X93779979Y-135350266D01*
X93798392Y-135339230D01*
X93817798Y-135330051D01*
X93838010Y-135322819D01*
X93858834Y-135317603D01*
X93880069Y-135314453D01*
X93901510Y-135313400D01*
X94339010Y-135313400D01*
X94360451Y-135314453D01*
X94360451Y-135314453D01*
G37*
D13*
G04 #@! TD*
G04 #@! TO.P,R2,1*
G04 #@! TO.N,+3V3*
X94120260Y-135788400D03*
D12*
G04 #@! TO.N,HSPI_CLK*
G04 #@! TO.C,R2*
G36*
X95935451Y-135314453D02*
X95956686Y-135317603D01*
X95977510Y-135322819D01*
X95997722Y-135330051D01*
X96017128Y-135339230D01*
X96035541Y-135350266D01*
X96052784Y-135363054D01*
X96068690Y-135377470D01*
X96083106Y-135393376D01*
X96095894Y-135410619D01*
X96106930Y-135429032D01*
X96116109Y-135448438D01*
X96123341Y-135468650D01*
X96128557Y-135489474D01*
X96131707Y-135510709D01*
X96132760Y-135532150D01*
X96132760Y-136044650D01*
X96131707Y-136066091D01*
X96128557Y-136087326D01*
X96123341Y-136108150D01*
X96116109Y-136128362D01*
X96106930Y-136147768D01*
X96095894Y-136166181D01*
X96083106Y-136183424D01*
X96068690Y-136199330D01*
X96052784Y-136213746D01*
X96035541Y-136226534D01*
X96017128Y-136237570D01*
X95997722Y-136246749D01*
X95977510Y-136253981D01*
X95956686Y-136259197D01*
X95935451Y-136262347D01*
X95914010Y-136263400D01*
X95476510Y-136263400D01*
X95455069Y-136262347D01*
X95433834Y-136259197D01*
X95413010Y-136253981D01*
X95392798Y-136246749D01*
X95373392Y-136237570D01*
X95354979Y-136226534D01*
X95337736Y-136213746D01*
X95321830Y-136199330D01*
X95307414Y-136183424D01*
X95294626Y-136166181D01*
X95283590Y-136147768D01*
X95274411Y-136128362D01*
X95267179Y-136108150D01*
X95261963Y-136087326D01*
X95258813Y-136066091D01*
X95257760Y-136044650D01*
X95257760Y-135532150D01*
X95258813Y-135510709D01*
X95261963Y-135489474D01*
X95267179Y-135468650D01*
X95274411Y-135448438D01*
X95283590Y-135429032D01*
X95294626Y-135410619D01*
X95307414Y-135393376D01*
X95321830Y-135377470D01*
X95337736Y-135363054D01*
X95354979Y-135350266D01*
X95373392Y-135339230D01*
X95392798Y-135330051D01*
X95413010Y-135322819D01*
X95433834Y-135317603D01*
X95455069Y-135314453D01*
X95476510Y-135313400D01*
X95914010Y-135313400D01*
X95935451Y-135314453D01*
X95935451Y-135314453D01*
G37*
D13*
G04 #@! TD*
G04 #@! TO.P,R2,2*
G04 #@! TO.N,HSPI_CLK*
X95695260Y-135788400D03*
D12*
G04 #@! TO.N,HSPI_MOSI*
G04 #@! TO.C,R3*
G36*
X95935451Y-139033013D02*
X95956686Y-139036163D01*
X95977510Y-139041379D01*
X95997722Y-139048611D01*
X96017128Y-139057790D01*
X96035541Y-139068826D01*
X96052784Y-139081614D01*
X96068690Y-139096030D01*
X96083106Y-139111936D01*
X96095894Y-139129179D01*
X96106930Y-139147592D01*
X96116109Y-139166998D01*
X96123341Y-139187210D01*
X96128557Y-139208034D01*
X96131707Y-139229269D01*
X96132760Y-139250710D01*
X96132760Y-139763210D01*
X96131707Y-139784651D01*
X96128557Y-139805886D01*
X96123341Y-139826710D01*
X96116109Y-139846922D01*
X96106930Y-139866328D01*
X96095894Y-139884741D01*
X96083106Y-139901984D01*
X96068690Y-139917890D01*
X96052784Y-139932306D01*
X96035541Y-139945094D01*
X96017128Y-139956130D01*
X95997722Y-139965309D01*
X95977510Y-139972541D01*
X95956686Y-139977757D01*
X95935451Y-139980907D01*
X95914010Y-139981960D01*
X95476510Y-139981960D01*
X95455069Y-139980907D01*
X95433834Y-139977757D01*
X95413010Y-139972541D01*
X95392798Y-139965309D01*
X95373392Y-139956130D01*
X95354979Y-139945094D01*
X95337736Y-139932306D01*
X95321830Y-139917890D01*
X95307414Y-139901984D01*
X95294626Y-139884741D01*
X95283590Y-139866328D01*
X95274411Y-139846922D01*
X95267179Y-139826710D01*
X95261963Y-139805886D01*
X95258813Y-139784651D01*
X95257760Y-139763210D01*
X95257760Y-139250710D01*
X95258813Y-139229269D01*
X95261963Y-139208034D01*
X95267179Y-139187210D01*
X95274411Y-139166998D01*
X95283590Y-139147592D01*
X95294626Y-139129179D01*
X95307414Y-139111936D01*
X95321830Y-139096030D01*
X95337736Y-139081614D01*
X95354979Y-139068826D01*
X95373392Y-139057790D01*
X95392798Y-139048611D01*
X95413010Y-139041379D01*
X95433834Y-139036163D01*
X95455069Y-139033013D01*
X95476510Y-139031960D01*
X95914010Y-139031960D01*
X95935451Y-139033013D01*
X95935451Y-139033013D01*
G37*
D13*
G04 #@! TD*
G04 #@! TO.P,R3,2*
G04 #@! TO.N,HSPI_MOSI*
X95695260Y-139506960D03*
D12*
G04 #@! TO.N,+3V3*
G04 #@! TO.C,R3*
G36*
X94360451Y-139033013D02*
X94381686Y-139036163D01*
X94402510Y-139041379D01*
X94422722Y-139048611D01*
X94442128Y-139057790D01*
X94460541Y-139068826D01*
X94477784Y-139081614D01*
X94493690Y-139096030D01*
X94508106Y-139111936D01*
X94520894Y-139129179D01*
X94531930Y-139147592D01*
X94541109Y-139166998D01*
X94548341Y-139187210D01*
X94553557Y-139208034D01*
X94556707Y-139229269D01*
X94557760Y-139250710D01*
X94557760Y-139763210D01*
X94556707Y-139784651D01*
X94553557Y-139805886D01*
X94548341Y-139826710D01*
X94541109Y-139846922D01*
X94531930Y-139866328D01*
X94520894Y-139884741D01*
X94508106Y-139901984D01*
X94493690Y-139917890D01*
X94477784Y-139932306D01*
X94460541Y-139945094D01*
X94442128Y-139956130D01*
X94422722Y-139965309D01*
X94402510Y-139972541D01*
X94381686Y-139977757D01*
X94360451Y-139980907D01*
X94339010Y-139981960D01*
X93901510Y-139981960D01*
X93880069Y-139980907D01*
X93858834Y-139977757D01*
X93838010Y-139972541D01*
X93817798Y-139965309D01*
X93798392Y-139956130D01*
X93779979Y-139945094D01*
X93762736Y-139932306D01*
X93746830Y-139917890D01*
X93732414Y-139901984D01*
X93719626Y-139884741D01*
X93708590Y-139866328D01*
X93699411Y-139846922D01*
X93692179Y-139826710D01*
X93686963Y-139805886D01*
X93683813Y-139784651D01*
X93682760Y-139763210D01*
X93682760Y-139250710D01*
X93683813Y-139229269D01*
X93686963Y-139208034D01*
X93692179Y-139187210D01*
X93699411Y-139166998D01*
X93708590Y-139147592D01*
X93719626Y-139129179D01*
X93732414Y-139111936D01*
X93746830Y-139096030D01*
X93762736Y-139081614D01*
X93779979Y-139068826D01*
X93798392Y-139057790D01*
X93817798Y-139048611D01*
X93838010Y-139041379D01*
X93858834Y-139036163D01*
X93880069Y-139033013D01*
X93901510Y-139031960D01*
X94339010Y-139031960D01*
X94360451Y-139033013D01*
X94360451Y-139033013D01*
G37*
D13*
G04 #@! TD*
G04 #@! TO.P,R3,1*
G04 #@! TO.N,+3V3*
X94120260Y-139506960D03*
D12*
G04 #@! TO.N,Net-(DS1-Pad1)*
G04 #@! TO.C,R4*
G36*
X84225191Y-127796053D02*
X84246426Y-127799203D01*
X84267250Y-127804419D01*
X84287462Y-127811651D01*
X84306868Y-127820830D01*
X84325281Y-127831866D01*
X84342524Y-127844654D01*
X84358430Y-127859070D01*
X84372846Y-127874976D01*
X84385634Y-127892219D01*
X84396670Y-127910632D01*
X84405849Y-127930038D01*
X84413081Y-127950250D01*
X84418297Y-127971074D01*
X84421447Y-127992309D01*
X84422500Y-128013750D01*
X84422500Y-128526250D01*
X84421447Y-128547691D01*
X84418297Y-128568926D01*
X84413081Y-128589750D01*
X84405849Y-128609962D01*
X84396670Y-128629368D01*
X84385634Y-128647781D01*
X84372846Y-128665024D01*
X84358430Y-128680930D01*
X84342524Y-128695346D01*
X84325281Y-128708134D01*
X84306868Y-128719170D01*
X84287462Y-128728349D01*
X84267250Y-128735581D01*
X84246426Y-128740797D01*
X84225191Y-128743947D01*
X84203750Y-128745000D01*
X83766250Y-128745000D01*
X83744809Y-128743947D01*
X83723574Y-128740797D01*
X83702750Y-128735581D01*
X83682538Y-128728349D01*
X83663132Y-128719170D01*
X83644719Y-128708134D01*
X83627476Y-128695346D01*
X83611570Y-128680930D01*
X83597154Y-128665024D01*
X83584366Y-128647781D01*
X83573330Y-128629368D01*
X83564151Y-128609962D01*
X83556919Y-128589750D01*
X83551703Y-128568926D01*
X83548553Y-128547691D01*
X83547500Y-128526250D01*
X83547500Y-128013750D01*
X83548553Y-127992309D01*
X83551703Y-127971074D01*
X83556919Y-127950250D01*
X83564151Y-127930038D01*
X83573330Y-127910632D01*
X83584366Y-127892219D01*
X83597154Y-127874976D01*
X83611570Y-127859070D01*
X83627476Y-127844654D01*
X83644719Y-127831866D01*
X83663132Y-127820830D01*
X83682538Y-127811651D01*
X83702750Y-127804419D01*
X83723574Y-127799203D01*
X83744809Y-127796053D01*
X83766250Y-127795000D01*
X84203750Y-127795000D01*
X84225191Y-127796053D01*
X84225191Y-127796053D01*
G37*
D13*
G04 #@! TD*
G04 #@! TO.P,R4,1*
G04 #@! TO.N,Net-(DS1-Pad1)*
X83985000Y-128270000D03*
D12*
G04 #@! TO.N,GND*
G04 #@! TO.C,R4*
G36*
X85800191Y-127796053D02*
X85821426Y-127799203D01*
X85842250Y-127804419D01*
X85862462Y-127811651D01*
X85881868Y-127820830D01*
X85900281Y-127831866D01*
X85917524Y-127844654D01*
X85933430Y-127859070D01*
X85947846Y-127874976D01*
X85960634Y-127892219D01*
X85971670Y-127910632D01*
X85980849Y-127930038D01*
X85988081Y-127950250D01*
X85993297Y-127971074D01*
X85996447Y-127992309D01*
X85997500Y-128013750D01*
X85997500Y-128526250D01*
X85996447Y-128547691D01*
X85993297Y-128568926D01*
X85988081Y-128589750D01*
X85980849Y-128609962D01*
X85971670Y-128629368D01*
X85960634Y-128647781D01*
X85947846Y-128665024D01*
X85933430Y-128680930D01*
X85917524Y-128695346D01*
X85900281Y-128708134D01*
X85881868Y-128719170D01*
X85862462Y-128728349D01*
X85842250Y-128735581D01*
X85821426Y-128740797D01*
X85800191Y-128743947D01*
X85778750Y-128745000D01*
X85341250Y-128745000D01*
X85319809Y-128743947D01*
X85298574Y-128740797D01*
X85277750Y-128735581D01*
X85257538Y-128728349D01*
X85238132Y-128719170D01*
X85219719Y-128708134D01*
X85202476Y-128695346D01*
X85186570Y-128680930D01*
X85172154Y-128665024D01*
X85159366Y-128647781D01*
X85148330Y-128629368D01*
X85139151Y-128609962D01*
X85131919Y-128589750D01*
X85126703Y-128568926D01*
X85123553Y-128547691D01*
X85122500Y-128526250D01*
X85122500Y-128013750D01*
X85123553Y-127992309D01*
X85126703Y-127971074D01*
X85131919Y-127950250D01*
X85139151Y-127930038D01*
X85148330Y-127910632D01*
X85159366Y-127892219D01*
X85172154Y-127874976D01*
X85186570Y-127859070D01*
X85202476Y-127844654D01*
X85219719Y-127831866D01*
X85238132Y-127820830D01*
X85257538Y-127811651D01*
X85277750Y-127804419D01*
X85298574Y-127799203D01*
X85319809Y-127796053D01*
X85341250Y-127795000D01*
X85778750Y-127795000D01*
X85800191Y-127796053D01*
X85800191Y-127796053D01*
G37*
D13*
G04 #@! TD*
G04 #@! TO.P,R4,2*
G04 #@! TO.N,GND*
X85560000Y-128270000D03*
D12*
G04 #@! TO.N,Net-(Q1-Pad3)*
G04 #@! TO.C,R5*
G36*
X143648691Y-130717053D02*
X143669926Y-130720203D01*
X143690750Y-130725419D01*
X143710962Y-130732651D01*
X143730368Y-130741830D01*
X143748781Y-130752866D01*
X143766024Y-130765654D01*
X143781930Y-130780070D01*
X143796346Y-130795976D01*
X143809134Y-130813219D01*
X143820170Y-130831632D01*
X143829349Y-130851038D01*
X143836581Y-130871250D01*
X143841797Y-130892074D01*
X143844947Y-130913309D01*
X143846000Y-130934750D01*
X143846000Y-131447250D01*
X143844947Y-131468691D01*
X143841797Y-131489926D01*
X143836581Y-131510750D01*
X143829349Y-131530962D01*
X143820170Y-131550368D01*
X143809134Y-131568781D01*
X143796346Y-131586024D01*
X143781930Y-131601930D01*
X143766024Y-131616346D01*
X143748781Y-131629134D01*
X143730368Y-131640170D01*
X143710962Y-131649349D01*
X143690750Y-131656581D01*
X143669926Y-131661797D01*
X143648691Y-131664947D01*
X143627250Y-131666000D01*
X143189750Y-131666000D01*
X143168309Y-131664947D01*
X143147074Y-131661797D01*
X143126250Y-131656581D01*
X143106038Y-131649349D01*
X143086632Y-131640170D01*
X143068219Y-131629134D01*
X143050976Y-131616346D01*
X143035070Y-131601930D01*
X143020654Y-131586024D01*
X143007866Y-131568781D01*
X142996830Y-131550368D01*
X142987651Y-131530962D01*
X142980419Y-131510750D01*
X142975203Y-131489926D01*
X142972053Y-131468691D01*
X142971000Y-131447250D01*
X142971000Y-130934750D01*
X142972053Y-130913309D01*
X142975203Y-130892074D01*
X142980419Y-130871250D01*
X142987651Y-130851038D01*
X142996830Y-130831632D01*
X143007866Y-130813219D01*
X143020654Y-130795976D01*
X143035070Y-130780070D01*
X143050976Y-130765654D01*
X143068219Y-130752866D01*
X143086632Y-130741830D01*
X143106038Y-130732651D01*
X143126250Y-130725419D01*
X143147074Y-130720203D01*
X143168309Y-130717053D01*
X143189750Y-130716000D01*
X143627250Y-130716000D01*
X143648691Y-130717053D01*
X143648691Y-130717053D01*
G37*
D13*
G04 #@! TD*
G04 #@! TO.P,R5,2*
G04 #@! TO.N,Net-(Q1-Pad3)*
X143408500Y-131191000D03*
D12*
G04 #@! TO.N,LCD_LEDK*
G04 #@! TO.C,R5*
G36*
X142073691Y-130717053D02*
X142094926Y-130720203D01*
X142115750Y-130725419D01*
X142135962Y-130732651D01*
X142155368Y-130741830D01*
X142173781Y-130752866D01*
X142191024Y-130765654D01*
X142206930Y-130780070D01*
X142221346Y-130795976D01*
X142234134Y-130813219D01*
X142245170Y-130831632D01*
X142254349Y-130851038D01*
X142261581Y-130871250D01*
X142266797Y-130892074D01*
X142269947Y-130913309D01*
X142271000Y-130934750D01*
X142271000Y-131447250D01*
X142269947Y-131468691D01*
X142266797Y-131489926D01*
X142261581Y-131510750D01*
X142254349Y-131530962D01*
X142245170Y-131550368D01*
X142234134Y-131568781D01*
X142221346Y-131586024D01*
X142206930Y-131601930D01*
X142191024Y-131616346D01*
X142173781Y-131629134D01*
X142155368Y-131640170D01*
X142135962Y-131649349D01*
X142115750Y-131656581D01*
X142094926Y-131661797D01*
X142073691Y-131664947D01*
X142052250Y-131666000D01*
X141614750Y-131666000D01*
X141593309Y-131664947D01*
X141572074Y-131661797D01*
X141551250Y-131656581D01*
X141531038Y-131649349D01*
X141511632Y-131640170D01*
X141493219Y-131629134D01*
X141475976Y-131616346D01*
X141460070Y-131601930D01*
X141445654Y-131586024D01*
X141432866Y-131568781D01*
X141421830Y-131550368D01*
X141412651Y-131530962D01*
X141405419Y-131510750D01*
X141400203Y-131489926D01*
X141397053Y-131468691D01*
X141396000Y-131447250D01*
X141396000Y-130934750D01*
X141397053Y-130913309D01*
X141400203Y-130892074D01*
X141405419Y-130871250D01*
X141412651Y-130851038D01*
X141421830Y-130831632D01*
X141432866Y-130813219D01*
X141445654Y-130795976D01*
X141460070Y-130780070D01*
X141475976Y-130765654D01*
X141493219Y-130752866D01*
X141511632Y-130741830D01*
X141531038Y-130732651D01*
X141551250Y-130725419D01*
X141572074Y-130720203D01*
X141593309Y-130717053D01*
X141614750Y-130716000D01*
X142052250Y-130716000D01*
X142073691Y-130717053D01*
X142073691Y-130717053D01*
G37*
D13*
G04 #@! TD*
G04 #@! TO.P,R5,1*
G04 #@! TO.N,LCD_LEDK*
X141833500Y-131191000D03*
D12*
G04 #@! TO.N,LCD_BACKLIGHT*
G04 #@! TO.C,R6*
G36*
X139203691Y-133257053D02*
X139224926Y-133260203D01*
X139245750Y-133265419D01*
X139265962Y-133272651D01*
X139285368Y-133281830D01*
X139303781Y-133292866D01*
X139321024Y-133305654D01*
X139336930Y-133320070D01*
X139351346Y-133335976D01*
X139364134Y-133353219D01*
X139375170Y-133371632D01*
X139384349Y-133391038D01*
X139391581Y-133411250D01*
X139396797Y-133432074D01*
X139399947Y-133453309D01*
X139401000Y-133474750D01*
X139401000Y-133987250D01*
X139399947Y-134008691D01*
X139396797Y-134029926D01*
X139391581Y-134050750D01*
X139384349Y-134070962D01*
X139375170Y-134090368D01*
X139364134Y-134108781D01*
X139351346Y-134126024D01*
X139336930Y-134141930D01*
X139321024Y-134156346D01*
X139303781Y-134169134D01*
X139285368Y-134180170D01*
X139265962Y-134189349D01*
X139245750Y-134196581D01*
X139224926Y-134201797D01*
X139203691Y-134204947D01*
X139182250Y-134206000D01*
X138744750Y-134206000D01*
X138723309Y-134204947D01*
X138702074Y-134201797D01*
X138681250Y-134196581D01*
X138661038Y-134189349D01*
X138641632Y-134180170D01*
X138623219Y-134169134D01*
X138605976Y-134156346D01*
X138590070Y-134141930D01*
X138575654Y-134126024D01*
X138562866Y-134108781D01*
X138551830Y-134090368D01*
X138542651Y-134070962D01*
X138535419Y-134050750D01*
X138530203Y-134029926D01*
X138527053Y-134008691D01*
X138526000Y-133987250D01*
X138526000Y-133474750D01*
X138527053Y-133453309D01*
X138530203Y-133432074D01*
X138535419Y-133411250D01*
X138542651Y-133391038D01*
X138551830Y-133371632D01*
X138562866Y-133353219D01*
X138575654Y-133335976D01*
X138590070Y-133320070D01*
X138605976Y-133305654D01*
X138623219Y-133292866D01*
X138641632Y-133281830D01*
X138661038Y-133272651D01*
X138681250Y-133265419D01*
X138702074Y-133260203D01*
X138723309Y-133257053D01*
X138744750Y-133256000D01*
X139182250Y-133256000D01*
X139203691Y-133257053D01*
X139203691Y-133257053D01*
G37*
D13*
G04 #@! TD*
G04 #@! TO.P,R6,1*
G04 #@! TO.N,LCD_BACKLIGHT*
X138963500Y-133731000D03*
D12*
G04 #@! TO.N,+3V3*
G04 #@! TO.C,R6*
G36*
X137628691Y-133257053D02*
X137649926Y-133260203D01*
X137670750Y-133265419D01*
X137690962Y-133272651D01*
X137710368Y-133281830D01*
X137728781Y-133292866D01*
X137746024Y-133305654D01*
X137761930Y-133320070D01*
X137776346Y-133335976D01*
X137789134Y-133353219D01*
X137800170Y-133371632D01*
X137809349Y-133391038D01*
X137816581Y-133411250D01*
X137821797Y-133432074D01*
X137824947Y-133453309D01*
X137826000Y-133474750D01*
X137826000Y-133987250D01*
X137824947Y-134008691D01*
X137821797Y-134029926D01*
X137816581Y-134050750D01*
X137809349Y-134070962D01*
X137800170Y-134090368D01*
X137789134Y-134108781D01*
X137776346Y-134126024D01*
X137761930Y-134141930D01*
X137746024Y-134156346D01*
X137728781Y-134169134D01*
X137710368Y-134180170D01*
X137690962Y-134189349D01*
X137670750Y-134196581D01*
X137649926Y-134201797D01*
X137628691Y-134204947D01*
X137607250Y-134206000D01*
X137169750Y-134206000D01*
X137148309Y-134204947D01*
X137127074Y-134201797D01*
X137106250Y-134196581D01*
X137086038Y-134189349D01*
X137066632Y-134180170D01*
X137048219Y-134169134D01*
X137030976Y-134156346D01*
X137015070Y-134141930D01*
X137000654Y-134126024D01*
X136987866Y-134108781D01*
X136976830Y-134090368D01*
X136967651Y-134070962D01*
X136960419Y-134050750D01*
X136955203Y-134029926D01*
X136952053Y-134008691D01*
X136951000Y-133987250D01*
X136951000Y-133474750D01*
X136952053Y-133453309D01*
X136955203Y-133432074D01*
X136960419Y-133411250D01*
X136967651Y-133391038D01*
X136976830Y-133371632D01*
X136987866Y-133353219D01*
X137000654Y-133335976D01*
X137015070Y-133320070D01*
X137030976Y-133305654D01*
X137048219Y-133292866D01*
X137066632Y-133281830D01*
X137086038Y-133272651D01*
X137106250Y-133265419D01*
X137127074Y-133260203D01*
X137148309Y-133257053D01*
X137169750Y-133256000D01*
X137607250Y-133256000D01*
X137628691Y-133257053D01*
X137628691Y-133257053D01*
G37*
D13*
G04 #@! TD*
G04 #@! TO.P,R6,2*
G04 #@! TO.N,+3V3*
X137388500Y-133731000D03*
D19*
G04 #@! TO.P,U1,MP2*
G04 #@! TO.N,N/C*
X114126000Y-98354000D03*
G04 #@! TO.P,U1,MP1*
X124626000Y-98354000D03*
D20*
G04 #@! TO.P,U1,14*
X116126000Y-99354000D03*
G04 #@! TO.P,U1,13*
G04 #@! TO.N,GND*
X116626000Y-99354000D03*
G04 #@! TO.P,U1,12*
G04 #@! TO.N,VSPI_CS*
X117126000Y-99354000D03*
G04 #@! TO.P,U1,11*
G04 #@! TO.N,+3V3*
X117626000Y-99354000D03*
G04 #@! TO.P,U1,10*
X118126000Y-99354000D03*
G04 #@! TO.P,U1,9*
G04 #@! TO.N,VSPI_CLK*
X118626000Y-99354000D03*
G04 #@! TO.P,U1,8*
G04 #@! TO.N,VSPI_MOSI*
X119126000Y-99354000D03*
G04 #@! TO.P,U1,7*
G04 #@! TO.N,IO33*
X119626000Y-99354000D03*
G04 #@! TO.P,U1,6*
G04 #@! TO.N,N/C*
X120126000Y-99354000D03*
G04 #@! TO.P,U1,5*
G04 #@! TO.N,GND*
X120626000Y-99354000D03*
G04 #@! TO.P,U1,4*
G04 #@! TO.N,+3V3*
X121126000Y-99354000D03*
G04 #@! TO.P,U1,3*
G04 #@! TO.N,LCD_LEDK*
X121626000Y-99354000D03*
G04 #@! TO.P,U1,2*
G04 #@! TO.N,GND*
X122126000Y-99354000D03*
G04 #@! TO.P,U1,1*
G04 #@! TO.N,N/C*
X122626000Y-99354000D03*
G04 #@! TD*
D12*
G04 #@! TO.N,+3V3*
G04 #@! TO.C,R7*
G36*
X135278691Y-111130413D02*
X135299926Y-111133563D01*
X135320750Y-111138779D01*
X135340962Y-111146011D01*
X135360368Y-111155190D01*
X135378781Y-111166226D01*
X135396024Y-111179014D01*
X135411930Y-111193430D01*
X135426346Y-111209336D01*
X135439134Y-111226579D01*
X135450170Y-111244992D01*
X135459349Y-111264398D01*
X135466581Y-111284610D01*
X135471797Y-111305434D01*
X135474947Y-111326669D01*
X135476000Y-111348110D01*
X135476000Y-111785610D01*
X135474947Y-111807051D01*
X135471797Y-111828286D01*
X135466581Y-111849110D01*
X135459349Y-111869322D01*
X135450170Y-111888728D01*
X135439134Y-111907141D01*
X135426346Y-111924384D01*
X135411930Y-111940290D01*
X135396024Y-111954706D01*
X135378781Y-111967494D01*
X135360368Y-111978530D01*
X135340962Y-111987709D01*
X135320750Y-111994941D01*
X135299926Y-112000157D01*
X135278691Y-112003307D01*
X135257250Y-112004360D01*
X134744750Y-112004360D01*
X134723309Y-112003307D01*
X134702074Y-112000157D01*
X134681250Y-111994941D01*
X134661038Y-111987709D01*
X134641632Y-111978530D01*
X134623219Y-111967494D01*
X134605976Y-111954706D01*
X134590070Y-111940290D01*
X134575654Y-111924384D01*
X134562866Y-111907141D01*
X134551830Y-111888728D01*
X134542651Y-111869322D01*
X134535419Y-111849110D01*
X134530203Y-111828286D01*
X134527053Y-111807051D01*
X134526000Y-111785610D01*
X134526000Y-111348110D01*
X134527053Y-111326669D01*
X134530203Y-111305434D01*
X134535419Y-111284610D01*
X134542651Y-111264398D01*
X134551830Y-111244992D01*
X134562866Y-111226579D01*
X134575654Y-111209336D01*
X134590070Y-111193430D01*
X134605976Y-111179014D01*
X134623219Y-111166226D01*
X134641632Y-111155190D01*
X134661038Y-111146011D01*
X134681250Y-111138779D01*
X134702074Y-111133563D01*
X134723309Y-111130413D01*
X134744750Y-111129360D01*
X135257250Y-111129360D01*
X135278691Y-111130413D01*
X135278691Y-111130413D01*
G37*
D13*
G04 #@! TD*
G04 #@! TO.P,R7,1*
G04 #@! TO.N,+3V3*
X135001000Y-111566860D03*
D12*
G04 #@! TO.N,INT*
G04 #@! TO.C,R7*
G36*
X135278691Y-112705413D02*
X135299926Y-112708563D01*
X135320750Y-112713779D01*
X135340962Y-112721011D01*
X135360368Y-112730190D01*
X135378781Y-112741226D01*
X135396024Y-112754014D01*
X135411930Y-112768430D01*
X135426346Y-112784336D01*
X135439134Y-112801579D01*
X135450170Y-112819992D01*
X135459349Y-112839398D01*
X135466581Y-112859610D01*
X135471797Y-112880434D01*
X135474947Y-112901669D01*
X135476000Y-112923110D01*
X135476000Y-113360610D01*
X135474947Y-113382051D01*
X135471797Y-113403286D01*
X135466581Y-113424110D01*
X135459349Y-113444322D01*
X135450170Y-113463728D01*
X135439134Y-113482141D01*
X135426346Y-113499384D01*
X135411930Y-113515290D01*
X135396024Y-113529706D01*
X135378781Y-113542494D01*
X135360368Y-113553530D01*
X135340962Y-113562709D01*
X135320750Y-113569941D01*
X135299926Y-113575157D01*
X135278691Y-113578307D01*
X135257250Y-113579360D01*
X134744750Y-113579360D01*
X134723309Y-113578307D01*
X134702074Y-113575157D01*
X134681250Y-113569941D01*
X134661038Y-113562709D01*
X134641632Y-113553530D01*
X134623219Y-113542494D01*
X134605976Y-113529706D01*
X134590070Y-113515290D01*
X134575654Y-113499384D01*
X134562866Y-113482141D01*
X134551830Y-113463728D01*
X134542651Y-113444322D01*
X134535419Y-113424110D01*
X134530203Y-113403286D01*
X134527053Y-113382051D01*
X134526000Y-113360610D01*
X134526000Y-112923110D01*
X134527053Y-112901669D01*
X134530203Y-112880434D01*
X134535419Y-112859610D01*
X134542651Y-112839398D01*
X134551830Y-112819992D01*
X134562866Y-112801579D01*
X134575654Y-112784336D01*
X134590070Y-112768430D01*
X134605976Y-112754014D01*
X134623219Y-112741226D01*
X134641632Y-112730190D01*
X134661038Y-112721011D01*
X134681250Y-112713779D01*
X134702074Y-112708563D01*
X134723309Y-112705413D01*
X134744750Y-112704360D01*
X135257250Y-112704360D01*
X135278691Y-112705413D01*
X135278691Y-112705413D01*
G37*
D13*
G04 #@! TD*
G04 #@! TO.P,R7,2*
G04 #@! TO.N,INT*
X135001000Y-113141860D03*
D17*
G04 #@! TO.P,J1,16*
G04 #@! TO.N,GND*
X95250000Y-125095000D03*
G04 #@! TO.P,J1,15*
G04 #@! TO.N,N/C*
X92710000Y-125095000D03*
G04 #@! TO.P,J1,14*
G04 #@! TO.N,+3V3*
X95250000Y-122555000D03*
G04 #@! TO.P,J1,13*
G04 #@! TO.N,HSPI_MISO*
X92710000Y-122555000D03*
G04 #@! TO.P,J1,12*
G04 #@! TO.N,N/C*
X95250000Y-120015000D03*
G04 #@! TO.P,J1,11*
G04 #@! TO.N,IO15*
X92710000Y-120015000D03*
G04 #@! TO.P,J1,10*
G04 #@! TO.N,IO27*
X95250000Y-117475000D03*
G04 #@! TO.P,J1,9*
G04 #@! TO.N,HSPI_MOSI*
X92710000Y-117475000D03*
G04 #@! TO.P,J1,8*
G04 #@! TO.N,IO25*
X95250000Y-114935000D03*
G04 #@! TO.P,J1,7*
G04 #@! TO.N,HSPI_CLK*
X92710000Y-114935000D03*
G04 #@! TO.P,J1,6*
G04 #@! TO.N,IO32*
X95250000Y-112395000D03*
G04 #@! TO.P,J1,5*
G04 #@! TO.N,IO26*
X92710000Y-112395000D03*
G04 #@! TO.P,J1,4*
G04 #@! TO.N,I34*
X95250000Y-109855000D03*
G04 #@! TO.P,J1,3*
G04 #@! TO.N,IO33*
X92710000Y-109855000D03*
G04 #@! TO.P,J1,2*
G04 #@! TO.N,I36*
X95250000Y-107315000D03*
D16*
G04 #@! TO.P,J1,1*
G04 #@! TO.N,I39*
X92710000Y-107315000D03*
G04 #@! TD*
G04 #@! TO.P,J2,1*
G04 #@! TO.N,VSPI_MOSI*
X143510000Y-107315000D03*
D17*
G04 #@! TO.P,J2,2*
G04 #@! TO.N,I2C_SCL*
X146050000Y-107315000D03*
G04 #@! TO.P,J2,3*
G04 #@! TO.N,N/C*
X143510000Y-109855000D03*
G04 #@! TO.P,J2,4*
X146050000Y-109855000D03*
G04 #@! TO.P,J2,5*
G04 #@! TO.N,I2C_SDA*
X143510000Y-112395000D03*
G04 #@! TO.P,J2,6*
G04 #@! TO.N,N/C*
X146050000Y-112395000D03*
G04 #@! TO.P,J2,7*
G04 #@! TO.N,VSPI_CLK*
X143510000Y-114935000D03*
G04 #@! TO.P,J2,8*
G04 #@! TO.N,IO5*
X146050000Y-114935000D03*
G04 #@! TO.P,J2,9*
G04 #@! TO.N,IO17*
X143510000Y-117475000D03*
G04 #@! TO.P,J2,10*
G04 #@! TO.N,IO16*
X146050000Y-117475000D03*
G04 #@! TO.P,J2,11*
G04 #@! TO.N,IO4*
X143510000Y-120015000D03*
G04 #@! TO.P,J2,12*
G04 #@! TO.N,N/C*
X146050000Y-120015000D03*
G04 #@! TO.P,J2,13*
G04 #@! TO.N,+3V3*
X143510000Y-122555000D03*
G04 #@! TO.P,J2,14*
G04 #@! TO.N,IO2*
X146050000Y-122555000D03*
G04 #@! TO.P,J2,15*
G04 #@! TO.N,GND*
X143510000Y-125095000D03*
G04 #@! TO.P,J2,16*
G04 #@! TO.N,N/C*
X146050000Y-125095000D03*
G04 #@! TD*
D21*
G04 #@! TO.P,JP2,1*
G04 #@! TO.N,IO26*
X111663480Y-133334000D03*
G04 #@! TO.P,JP2,2*
G04 #@! TO.N,HSPI_CS*
X113663480Y-133334000D03*
G04 #@! TO.P,JP2,3*
G04 #@! TO.N,IO32*
X111663480Y-135334000D03*
G04 #@! TO.P,JP2,4*
G04 #@! TO.N,HSPI_CS*
X113663480Y-135334000D03*
G04 #@! TO.P,JP2,5*
G04 #@! TO.N,IO25*
X111663480Y-137334000D03*
G04 #@! TO.P,JP2,6*
G04 #@! TO.N,HSPI_CS*
X113663480Y-137334000D03*
G04 #@! TO.P,JP2,7*
G04 #@! TO.N,IO27*
X111663480Y-139334000D03*
G04 #@! TO.P,JP2,8*
G04 #@! TO.N,HSPI_CS*
X113663480Y-139334000D03*
G04 #@! TO.P,JP2,9*
G04 #@! TO.N,IO15*
X111663480Y-141334000D03*
G04 #@! TO.P,JP2,10*
G04 #@! TO.N,HSPI_CS*
X113663480Y-141334000D03*
G04 #@! TD*
G04 #@! TO.P,JP3,1*
G04 #@! TO.N,+3V3*
X153227280Y-138374880D03*
G04 #@! TO.P,JP3,2*
G04 #@! TO.N,LCD_BACKLIGHT*
X153227280Y-136374880D03*
G04 #@! TO.P,JP3,3*
G04 #@! TO.N,IO2*
X153227280Y-134374880D03*
G04 #@! TD*
G04 #@! TO.P,JP4,1*
G04 #@! TO.N,IO17*
X130386840Y-138984000D03*
G04 #@! TO.P,JP4,2*
G04 #@! TO.N,VSPI_CS*
X128386840Y-138984000D03*
G04 #@! TO.P,JP4,3*
G04 #@! TO.N,IO16*
X130386840Y-136984000D03*
G04 #@! TO.P,JP4,4*
G04 #@! TO.N,VSPI_CS*
X128386840Y-136984000D03*
G04 #@! TO.P,JP4,5*
G04 #@! TO.N,IO4*
X130386840Y-134984000D03*
G04 #@! TO.P,JP4,6*
G04 #@! TO.N,VSPI_CS*
X128386840Y-134984000D03*
G04 #@! TO.P,JP4,7*
G04 #@! TO.N,IO5*
X130386840Y-132984000D03*
G04 #@! TO.P,JP4,8*
G04 #@! TO.N,VSPI_CS*
X128386840Y-132984000D03*
G04 #@! TD*
G04 #@! TO.P,JP5,1*
G04 #@! TO.N,I39*
X133188200Y-119883680D03*
G04 #@! TO.P,JP5,2*
G04 #@! TO.N,INT*
X131188200Y-119883680D03*
G04 #@! TO.P,JP5,3*
G04 #@! TO.N,I36*
X133188200Y-117883680D03*
G04 #@! TO.P,JP5,4*
G04 #@! TO.N,INT*
X131188200Y-117883680D03*
G04 #@! TO.P,JP5,5*
G04 #@! TO.N,I34*
X133188200Y-115883680D03*
G04 #@! TO.P,JP5,6*
G04 #@! TO.N,INT*
X131188200Y-115883680D03*
G04 #@! TD*
G04 #@! TO.P,JP1,1*
G04 #@! TO.N,+3V3*
X99304600Y-128306320D03*
G04 #@! TO.P,JP1,2*
G04 #@! TO.N,Net-(DS1-Pad2)*
X97304600Y-128306320D03*
G04 #@! TD*
D22*
G04 #@! TO.P,SD1,MP*
G04 #@! TO.N,N/C*
X91526360Y-132684520D03*
X91526360Y-138384520D03*
D23*
X78376360Y-130869520D03*
X77376360Y-144069520D03*
D24*
G04 #@! TO.P,SD1,8*
X81076360Y-131684520D03*
G04 #@! TO.P,SD1,1*
X81076360Y-139384520D03*
G04 #@! TO.P,SD1,2*
G04 #@! TO.N,HSPI_CS*
X81076360Y-138284520D03*
G04 #@! TO.P,SD1,3*
G04 #@! TO.N,HSPI_MOSI*
X81076360Y-137184520D03*
G04 #@! TO.P,SD1,4*
G04 #@! TO.N,+3V3*
X81076360Y-136084520D03*
G04 #@! TO.P,SD1,5*
G04 #@! TO.N,HSPI_CLK*
X81076360Y-134984520D03*
G04 #@! TO.P,SD1,6*
G04 #@! TO.N,GND*
X81076360Y-133884520D03*
G04 #@! TO.P,SD1,7*
G04 #@! TO.N,HSPI_MISO*
X81076360Y-132784520D03*
G04 #@! TD*
D21*
G04 #@! TO.P,J8,1*
G04 #@! TO.N,+3V3*
X106394760Y-115884200D03*
G04 #@! TO.P,J8,2*
X106394760Y-118484200D03*
G04 #@! TO.P,J8,3*
X106394760Y-121084200D03*
G04 #@! TO.P,J8,4*
G04 #@! TO.N,A0*
X108394760Y-115884200D03*
G04 #@! TO.P,J8,5*
G04 #@! TO.N,A1*
X108394760Y-118484200D03*
G04 #@! TO.P,J8,6*
G04 #@! TO.N,A2*
X108394760Y-121084200D03*
G04 #@! TO.P,J8,7*
G04 #@! TO.N,GND*
X110394760Y-115884200D03*
G04 #@! TO.P,J8,8*
X110394760Y-118484200D03*
G04 #@! TO.P,J8,9*
X110394760Y-121084200D03*
G04 #@! TD*
D25*
G04 #@! TO.N,GND*
X123967240Y-113421160D03*
X122148600Y-97287080D03*
X116641880Y-96809560D03*
X147386040Y-138826240D03*
X97292160Y-134980680D03*
G04 #@! TO.N,HSPI_CLK*
X95681800Y-135773160D03*
X81102200Y-134980680D03*
G04 #@! TO.N,HSPI_MOSI*
X95695260Y-139506960D03*
X91704160Y-127899160D03*
G04 #@! TO.N,VSPI_CLK*
X118633240Y-102138480D03*
G04 #@! TO.N,VSPI_MOSI*
X119365330Y-101122480D03*
G04 #@! TO.N,+3V3*
X127889000Y-111561880D03*
X135026400Y-111566860D03*
X122387360Y-111602520D03*
G04 #@! TO.N,VSPI_CS*
X116733320Y-101706680D03*
G04 #@! TO.N,Net-(DS1-Pad2)*
X79054960Y-128295400D03*
X89159080Y-130916680D03*
G04 #@! TD*
D26*
G04 #@! TO.N,GND*
X122148600Y-99331400D02*
X122126000Y-99354000D01*
X122148600Y-97287080D02*
X122148600Y-99331400D01*
X120626000Y-98300000D02*
X120626000Y-99354000D01*
X120626000Y-98243995D02*
X120626000Y-98300000D01*
X121582915Y-97287080D02*
X120626000Y-98243995D01*
X122148600Y-97287080D02*
X121582915Y-97287080D01*
X116626000Y-96825440D02*
X116641880Y-96809560D01*
X116626000Y-99354000D02*
X116626000Y-96825440D01*
G04 #@! TO.N,IO33*
X110830360Y-95829120D02*
X105722358Y-100937122D01*
X103954518Y-108513880D02*
X94051120Y-108513880D01*
X94051120Y-108513880D02*
X93559999Y-109005001D01*
X105722358Y-106746040D02*
X103954518Y-108513880D01*
X105722358Y-100937122D02*
X105722358Y-106746040D01*
X119626000Y-97043412D02*
X118411708Y-95829120D01*
X119626000Y-99354000D02*
X119626000Y-97043412D01*
X118411708Y-95829120D02*
X110830360Y-95829120D01*
X93559999Y-109005001D02*
X92710000Y-109855000D01*
D27*
G04 #@! TO.N,HSPI_MISO*
X91504999Y-123760001D02*
X91504999Y-126503201D01*
X92710000Y-122555000D02*
X91504999Y-123760001D01*
X85223680Y-132784520D02*
X81076360Y-132784520D01*
X91504999Y-126503201D02*
X85223680Y-132784520D01*
G04 #@! TO.N,HSPI_MOSI*
X81076360Y-137184520D02*
X84017240Y-137184520D01*
X84017240Y-137184520D02*
X87823040Y-140990320D01*
X94211900Y-140990320D02*
X95695260Y-139506960D01*
X87823040Y-140990320D02*
X94211900Y-140990320D01*
X95695260Y-139506960D02*
X95695260Y-139506960D01*
X92710000Y-117475000D02*
X93915001Y-118680001D01*
X93915001Y-125673401D02*
X91709240Y-127879162D01*
X93915001Y-124815600D02*
X93915001Y-125673401D01*
X93915001Y-118680001D02*
X93915001Y-124815600D01*
D26*
G04 #@! TO.N,IO4*
X131540840Y-134984000D02*
X132659120Y-133865720D01*
X130386840Y-134984000D02*
X131540840Y-134984000D01*
X142307919Y-120015000D02*
X142185999Y-120136920D01*
X143510000Y-120015000D02*
X142307919Y-120015000D01*
X140898880Y-120136920D02*
X132659120Y-128376680D01*
X142185999Y-120136920D02*
X140898880Y-120136920D01*
X132659120Y-133865720D02*
X132659120Y-128376680D01*
G04 #@! TO.N,IO16*
X131540840Y-136984000D02*
X133680200Y-134844640D01*
X130386840Y-136984000D02*
X131540840Y-136984000D01*
X133680200Y-134844640D02*
X133680200Y-129900680D01*
X145200001Y-118324999D02*
X146050000Y-117475000D01*
X144872999Y-118652001D02*
X145200001Y-118324999D01*
X144872999Y-120393963D02*
X144872999Y-118652001D01*
X144074961Y-121192001D02*
X144872999Y-120393963D01*
X142388879Y-121192001D02*
X144074961Y-121192001D01*
X133680200Y-129900680D02*
X142388879Y-121192001D01*
G04 #@! TO.N,IO17*
X130386840Y-138984000D02*
X130775442Y-138984000D01*
X130386840Y-140808960D02*
X130386840Y-138984000D01*
X140995400Y-117475000D02*
X125603000Y-132867400D01*
X143510000Y-117475000D02*
X140995400Y-117475000D01*
X125603000Y-132867400D02*
X125603000Y-139512040D01*
X125603000Y-139512040D02*
X127619760Y-141528800D01*
X127619760Y-141528800D02*
X129667000Y-141528800D01*
X129667000Y-141528800D02*
X130386840Y-140808960D01*
G04 #@! TO.N,IO5*
X130386840Y-131830000D02*
X130386840Y-132984000D01*
X141544079Y-118652001D02*
X130386840Y-129809240D01*
X144074961Y-118652001D02*
X141544079Y-118652001D01*
X144872999Y-117853963D02*
X144074961Y-118652001D01*
X144872999Y-116112001D02*
X144872999Y-117853963D01*
X146050000Y-114935000D02*
X144872999Y-116112001D01*
X130386840Y-129809240D02*
X130386840Y-131830000D01*
G04 #@! TO.N,VSPI_CLK*
X118633240Y-99361240D02*
X118626000Y-99354000D01*
X118633240Y-102138480D02*
X118633240Y-99361240D01*
D27*
G04 #@! TO.N,I2C_SDA*
X125445520Y-114364466D02*
X125445520Y-110327440D01*
X140436600Y-109321600D02*
X142660001Y-111545001D01*
X142660001Y-111545001D02*
X143510000Y-112395000D01*
X126451360Y-109321600D02*
X140436600Y-109321600D01*
X123325986Y-116484000D02*
X125445520Y-114364466D01*
X125445520Y-110327440D02*
X126451360Y-109321600D01*
X122349750Y-116484000D02*
X123325986Y-116484000D01*
G04 #@! TO.N,I2C_SCL*
X123397250Y-117134000D02*
X126385320Y-114145930D01*
X122349750Y-117134000D02*
X123397250Y-117134000D01*
X126385320Y-114145930D02*
X126385320Y-110657640D01*
X126385320Y-110657640D02*
X127000000Y-110042960D01*
X127000000Y-110042960D02*
X139049760Y-110042960D01*
X145200001Y-108164999D02*
X146050000Y-107315000D01*
X144715001Y-108649999D02*
X145200001Y-108164999D01*
X144715001Y-112973401D02*
X144715001Y-108649999D01*
X144088401Y-113600001D02*
X144715001Y-112973401D01*
X142606801Y-113600001D02*
X144088401Y-113600001D01*
X139049760Y-110042960D02*
X142606801Y-113600001D01*
D26*
G04 #@! TO.N,VSPI_MOSI*
X119126000Y-100883150D02*
X119365330Y-101122480D01*
X119126000Y-99354000D02*
X119126000Y-100883150D01*
D28*
G04 #@! TO.N,+3V3*
X99304600Y-126609600D02*
X99304600Y-128306320D01*
X95250000Y-122555000D02*
X99304600Y-126609600D01*
X104468320Y-128306320D02*
X106146500Y-129984500D01*
X99304600Y-128306320D02*
X104468320Y-128306320D01*
X94120260Y-135589074D02*
X94120260Y-135788400D01*
X99304600Y-130404734D02*
X94120260Y-135589074D01*
X99304600Y-128306320D02*
X99304600Y-130404734D01*
X94120260Y-135788400D02*
X94120260Y-139506960D01*
X93824140Y-136084520D02*
X94120260Y-135788400D01*
X81076360Y-136084520D02*
X93824140Y-136084520D01*
D29*
X122349750Y-115411350D02*
X122349750Y-115804999D01*
D28*
X95250000Y-122555000D02*
X104864120Y-122555000D01*
X106397040Y-115883680D02*
X106397040Y-120883680D01*
X106397040Y-121022080D02*
X104864120Y-122555000D01*
X106397040Y-120883680D02*
X106397040Y-121022080D01*
X104923960Y-122555000D02*
X106394760Y-121084200D01*
X95250000Y-122555000D02*
X104923960Y-122555000D01*
X106394760Y-121084200D02*
X106394760Y-115884200D01*
D29*
X122387360Y-115796390D02*
X122378751Y-115804999D01*
X122387360Y-111602520D02*
X122387360Y-111602520D01*
D27*
X106394760Y-114674200D02*
X106989880Y-114079080D01*
X106394760Y-115884200D02*
X106394760Y-114674200D01*
X106989880Y-114079080D02*
X106989880Y-105428118D01*
D28*
X135026400Y-111566860D02*
X135001000Y-111566860D01*
X127893980Y-111566860D02*
X127889000Y-111561880D01*
X135026400Y-111566860D02*
X127893980Y-111566860D01*
D29*
X122387360Y-111602520D02*
X122387360Y-115796390D01*
D27*
X106989880Y-105428118D02*
X109395598Y-103022400D01*
X120528080Y-103022400D02*
X121127520Y-102422960D01*
D26*
X121126000Y-102421440D02*
X121127520Y-102422960D01*
X121126000Y-99354000D02*
X121126000Y-102421440D01*
X118126000Y-99354000D02*
X118126000Y-100408000D01*
D27*
X109395598Y-103022400D02*
X114782600Y-103022400D01*
X114782600Y-103022400D02*
X120528080Y-103022400D01*
D26*
X117632480Y-100414480D02*
X117632480Y-100901520D01*
X117626000Y-100408000D02*
X117632480Y-100414480D01*
X117626000Y-99354000D02*
X117626000Y-100408000D01*
X118126000Y-100408000D02*
X117632480Y-100901520D01*
X116562588Y-103022400D02*
X114782600Y-103022400D01*
X117632480Y-100901520D02*
X117632480Y-101952508D01*
X117632480Y-101952508D02*
X116562588Y-103022400D01*
D28*
X137388500Y-128676500D02*
X137388500Y-133731000D01*
X143510000Y-122555000D02*
X137388500Y-128676500D01*
X137388500Y-134726780D02*
X142102640Y-139440920D01*
X137388500Y-133731000D02*
X137388500Y-134726780D01*
X153227280Y-140274880D02*
X153227280Y-138374880D01*
X152090200Y-141411960D02*
X153227280Y-140274880D01*
X143498680Y-141411960D02*
X152090200Y-141411960D01*
X142102640Y-140015920D02*
X143498680Y-141411960D01*
X142102640Y-139440920D02*
X142102640Y-140015920D01*
D27*
G04 #@! TO.N,Net-(DS1-Pad1)*
X80947500Y-128270000D02*
X83985000Y-128270000D01*
G04 #@! TO.N,A0*
X115961250Y-115834000D02*
X116473750Y-115834000D01*
D26*
X115961250Y-115834000D02*
X114051330Y-113924080D01*
X108397040Y-114729680D02*
X108397040Y-115883680D01*
X109202640Y-113924080D02*
X108397040Y-114729680D01*
X114051330Y-113924080D02*
X109202640Y-113924080D01*
G04 #@! TO.N,A1*
X108394760Y-117330200D02*
X108394760Y-118484200D01*
X108467761Y-117257199D02*
X108394760Y-117330200D01*
X111410363Y-117257199D02*
X108467761Y-117257199D01*
X112183562Y-116484000D02*
X111410363Y-117257199D01*
X116473750Y-116484000D02*
X112183562Y-116484000D01*
G04 #@! TO.N,A2*
X115482250Y-117134000D02*
X112799370Y-119816880D01*
X116473750Y-117134000D02*
X115482250Y-117134000D01*
X108394760Y-119930200D02*
X108394760Y-121084200D01*
X108508080Y-119816880D02*
X108394760Y-119930200D01*
X112799370Y-119816880D02*
X108508080Y-119816880D01*
G04 #@! TO.N,P0*
X109982000Y-105879000D02*
X109982000Y-104775000D01*
X117538251Y-113435251D02*
X109982000Y-105879000D01*
X117538251Y-117620601D02*
X117538251Y-113435251D01*
X116473750Y-117686001D02*
X117472851Y-117686001D01*
X116473750Y-117784000D02*
X116473750Y-117686001D01*
X117472851Y-117686001D02*
X117538251Y-117620601D01*
G04 #@! TO.N,P1*
X117992262Y-117808658D02*
X117992262Y-113222142D01*
X116473750Y-118434000D02*
X117366920Y-118434000D01*
X117366920Y-118434000D02*
X117992262Y-117808658D01*
X112522000Y-107751880D02*
X112522000Y-104775000D01*
X117992262Y-113222142D02*
X112522000Y-107751880D01*
G04 #@! TO.N,P2*
X117465250Y-119084000D02*
X118475760Y-118073490D01*
X116473750Y-119084000D02*
X117465250Y-119084000D01*
X118475760Y-118073490D02*
X118475760Y-112867440D01*
X115062000Y-109453680D02*
X115062000Y-104775000D01*
X118475760Y-112867440D02*
X115062000Y-109453680D01*
G04 #@! TO.N,P3*
X117465250Y-119734000D02*
X118932960Y-118266290D01*
X116473750Y-119734000D02*
X117465250Y-119734000D01*
X118932960Y-118266290D02*
X118932960Y-112623600D01*
X117602000Y-111292640D02*
X117602000Y-104775000D01*
X118932960Y-112623600D02*
X117602000Y-111292640D01*
G04 #@! TO.N,P4*
X121304584Y-120384000D02*
X119395240Y-118474656D01*
X120142000Y-105977081D02*
X120142000Y-104775000D01*
X122349750Y-120384000D02*
X121304584Y-120384000D01*
X119395240Y-118474656D02*
X119395240Y-106723841D01*
X119395240Y-106723841D02*
X120142000Y-105977081D01*
G04 #@! TO.N,P5*
X121296652Y-119734000D02*
X119933720Y-118371068D01*
X122349750Y-119734000D02*
X121296652Y-119734000D01*
X121832001Y-105624999D02*
X122682000Y-104775000D01*
X119933720Y-118371068D02*
X119933720Y-107523280D01*
X119933720Y-107523280D02*
X121832001Y-105624999D01*
G04 #@! TO.N,P6*
X121358250Y-119084000D02*
X120387730Y-118113480D01*
X122349750Y-119084000D02*
X121358250Y-119084000D01*
X120387730Y-118113480D02*
X120387730Y-108257990D01*
X120387730Y-108257990D02*
X121879360Y-106766360D01*
X123230640Y-106766360D02*
X125222000Y-104775000D01*
X121879360Y-106766360D02*
X123230640Y-106766360D01*
G04 #@! TO.N,P7*
X121358250Y-118434000D02*
X121229120Y-118304870D01*
X122349750Y-118434000D02*
X121358250Y-118434000D01*
X121229120Y-111307880D02*
X127762000Y-104775000D01*
X121229120Y-118304870D02*
X121229120Y-111307880D01*
D29*
G04 #@! TO.N,INT*
X131188200Y-114475680D02*
X131188200Y-115883680D01*
X132522020Y-113141860D02*
X131188200Y-114475680D01*
X135001000Y-113141860D02*
X132522020Y-113141860D01*
X131188200Y-115883680D02*
X131188200Y-119883680D01*
D27*
X131088520Y-117784000D02*
X131188200Y-117883680D01*
X122349750Y-117784000D02*
X131088520Y-117784000D01*
D28*
G04 #@! TO.N,HSPI_CS*
X113663480Y-131434000D02*
X113663480Y-133334000D01*
X112213980Y-129984500D02*
X113663480Y-131434000D01*
X107721500Y-129984500D02*
X112213980Y-129984500D01*
X113663480Y-133334000D02*
X113663480Y-141334000D01*
D27*
X82386360Y-138284520D02*
X81076360Y-138284520D01*
X86690841Y-142589001D02*
X82386360Y-138284520D01*
X113618479Y-142589001D02*
X86690841Y-142589001D01*
X113663480Y-142544000D02*
X113618479Y-142589001D01*
X113663480Y-141334000D02*
X113663480Y-142544000D01*
D26*
G04 #@! TO.N,VSPI_CS*
X117126000Y-100408000D02*
X117119400Y-100414600D01*
X117126000Y-99354000D02*
X117126000Y-100408000D01*
X117126000Y-101314000D02*
X117126000Y-99354000D01*
X116733320Y-101706680D02*
X117126000Y-101314000D01*
D27*
G04 #@! TO.N,LCD_BACKLIGHT*
X141124000Y-133731000D02*
X141126500Y-133733500D01*
X138963500Y-133731000D02*
X141124000Y-133731000D01*
X152017280Y-136374880D02*
X153227280Y-136374880D01*
X143328878Y-136374880D02*
X152017280Y-136374880D01*
X142086500Y-135132502D02*
X143328878Y-136374880D01*
X142086500Y-134343500D02*
X142086500Y-135132502D01*
X141476500Y-133733500D02*
X142086500Y-134343500D01*
X141126500Y-133733500D02*
X141476500Y-133733500D01*
G04 #@! TO.N,Net-(Q1-Pad3)*
X143408500Y-134501500D02*
X143226500Y-134683500D01*
X143408500Y-131191000D02*
X143408500Y-134501500D01*
D26*
G04 #@! TO.N,LCD_LEDK*
X121626000Y-100408000D02*
X122345560Y-101127560D01*
X121626000Y-99354000D02*
X121626000Y-100408000D01*
X122345560Y-101127560D02*
X129677160Y-101127560D01*
X142295112Y-130729388D02*
X141833500Y-131191000D01*
X147227001Y-125797499D02*
X142295112Y-130729388D01*
X146614961Y-106137999D02*
X147227001Y-106750039D01*
X142398399Y-106137999D02*
X146614961Y-106137999D01*
X141534397Y-107002001D02*
X142398399Y-106137999D01*
X147227001Y-106750039D02*
X147227001Y-125797499D01*
X135551601Y-107002001D02*
X141534397Y-107002001D01*
X129677160Y-101127560D02*
X135551601Y-107002001D01*
D27*
G04 #@! TO.N,Net-(DS1-Pad2)*
X96094600Y-128306320D02*
X93484240Y-130916680D01*
X97304600Y-128306320D02*
X96094600Y-128306320D01*
X93484240Y-130916680D02*
X89159080Y-130916680D01*
X89159080Y-130916680D02*
X89159080Y-130916680D01*
G04 #@! TD*
D26*
G04 #@! TO.N,GND*
G36*
X139244000Y-103845682D02*
X139093738Y-103482918D01*
X138452082Y-102841262D01*
X137613719Y-102494000D01*
X136706281Y-102494000D01*
X135867918Y-102841262D01*
X135226262Y-103482918D01*
X134879000Y-104321281D01*
X134879000Y-105228719D01*
X135149300Y-105881279D01*
X130071748Y-100803728D01*
X130043407Y-100761313D01*
X129875372Y-100649035D01*
X129727192Y-100619560D01*
X129727188Y-100619560D01*
X129677160Y-100609609D01*
X129627132Y-100619560D01*
X122555980Y-100619560D01*
X122478884Y-100542464D01*
X122776000Y-100542464D01*
X122924659Y-100512894D01*
X123050686Y-100428686D01*
X123134894Y-100302659D01*
X123164464Y-100154000D01*
X123164464Y-99992464D01*
X126126000Y-99992464D01*
X126274659Y-99962894D01*
X126400686Y-99878686D01*
X126484894Y-99752659D01*
X126514464Y-99604000D01*
X126514464Y-97104000D01*
X126484894Y-96955341D01*
X126400686Y-96829314D01*
X126274659Y-96745106D01*
X126126000Y-96715536D01*
X123126000Y-96715536D01*
X122977341Y-96745106D01*
X122851314Y-96829314D01*
X122767106Y-96955341D01*
X122737536Y-97104000D01*
X122737536Y-98165536D01*
X122476000Y-98165536D01*
X122327341Y-98195106D01*
X122201314Y-98279314D01*
X122126000Y-98392030D01*
X122050686Y-98279314D01*
X121924659Y-98195106D01*
X121776000Y-98165536D01*
X121476000Y-98165536D01*
X121376000Y-98185427D01*
X121276000Y-98165536D01*
X120976000Y-98165536D01*
X120827341Y-98195106D01*
X120701314Y-98279314D01*
X120626000Y-98392030D01*
X120550686Y-98279314D01*
X120424659Y-98195106D01*
X120276000Y-98165536D01*
X120134000Y-98165536D01*
X120134000Y-97093439D01*
X120143951Y-97043411D01*
X120134000Y-96993383D01*
X120134000Y-96993380D01*
X120104525Y-96845200D01*
X120093910Y-96829314D01*
X120020588Y-96719579D01*
X120020586Y-96719577D01*
X119992247Y-96677165D01*
X119949835Y-96648826D01*
X118806296Y-95505288D01*
X118777955Y-95462873D01*
X118609920Y-95350595D01*
X118461740Y-95321120D01*
X118461736Y-95321120D01*
X118411708Y-95311169D01*
X118361680Y-95321120D01*
X110880388Y-95321120D01*
X110830360Y-95311169D01*
X110780332Y-95321120D01*
X110780328Y-95321120D01*
X110632148Y-95350595D01*
X110506527Y-95434532D01*
X110506525Y-95434534D01*
X110464113Y-95462873D01*
X110435774Y-95505285D01*
X105398526Y-100542534D01*
X105356111Y-100570875D01*
X105243833Y-100738911D01*
X105214358Y-100887091D01*
X105214358Y-100887094D01*
X105204407Y-100937122D01*
X105214358Y-100987150D01*
X105214359Y-106535619D01*
X103744098Y-108005880D01*
X96268879Y-108005880D01*
X96409576Y-107795312D01*
X96505116Y-107315000D01*
X96409576Y-106834688D01*
X96137501Y-106427499D01*
X95730312Y-106155424D01*
X95371239Y-106084000D01*
X95128761Y-106084000D01*
X94769688Y-106155424D01*
X94362499Y-106427499D01*
X94090424Y-106834688D01*
X93994884Y-107315000D01*
X94090424Y-107795312D01*
X94231121Y-108005880D01*
X94101148Y-108005880D01*
X94051120Y-107995929D01*
X94001092Y-108005880D01*
X94001088Y-108005880D01*
X93948464Y-108016348D01*
X93948464Y-106465000D01*
X93918894Y-106316341D01*
X93834686Y-106190314D01*
X93708659Y-106106106D01*
X93560000Y-106076536D01*
X91860000Y-106076536D01*
X91711341Y-106106106D01*
X91585314Y-106190314D01*
X91501106Y-106316341D01*
X91471536Y-106465000D01*
X91471536Y-108165000D01*
X91501106Y-108313659D01*
X91585314Y-108439686D01*
X91711341Y-108523894D01*
X91860000Y-108553464D01*
X93293116Y-108553464D01*
X93236169Y-108610411D01*
X93236166Y-108610413D01*
X93157652Y-108688927D01*
X92831239Y-108624000D01*
X92588761Y-108624000D01*
X92229688Y-108695424D01*
X91822499Y-108967499D01*
X91550424Y-109374688D01*
X91454884Y-109855000D01*
X91550424Y-110335312D01*
X91822499Y-110742501D01*
X92229688Y-111014576D01*
X92588761Y-111086000D01*
X92831239Y-111086000D01*
X93190312Y-111014576D01*
X93597501Y-110742501D01*
X93869576Y-110335312D01*
X93965116Y-109855000D01*
X93876073Y-109407348D01*
X93954587Y-109328834D01*
X93954589Y-109328831D01*
X94261541Y-109021880D01*
X94326163Y-109021880D01*
X94090424Y-109374688D01*
X93994884Y-109855000D01*
X94090424Y-110335312D01*
X94362499Y-110742501D01*
X94769688Y-111014576D01*
X95128761Y-111086000D01*
X95371239Y-111086000D01*
X95730312Y-111014576D01*
X96137501Y-110742501D01*
X96409576Y-110335312D01*
X96505116Y-109855000D01*
X96409576Y-109374688D01*
X96173837Y-109021880D01*
X103904490Y-109021880D01*
X103954518Y-109031831D01*
X104004546Y-109021880D01*
X104004550Y-109021880D01*
X104152730Y-108992405D01*
X104320765Y-108880127D01*
X104349106Y-108837712D01*
X106046190Y-107140628D01*
X106088605Y-107112287D01*
X106200883Y-106944252D01*
X106230358Y-106796072D01*
X106230358Y-106796069D01*
X106240309Y-106746041D01*
X106230358Y-106696013D01*
X106230358Y-101147542D01*
X111040781Y-96337120D01*
X118201288Y-96337120D01*
X119118001Y-97253834D01*
X119118001Y-98165536D01*
X118976000Y-98165536D01*
X118876000Y-98185427D01*
X118776000Y-98165536D01*
X118476000Y-98165536D01*
X118376000Y-98185427D01*
X118276000Y-98165536D01*
X117976000Y-98165536D01*
X117876000Y-98185427D01*
X117776000Y-98165536D01*
X117476000Y-98165536D01*
X117376000Y-98185427D01*
X117276000Y-98165536D01*
X116976000Y-98165536D01*
X116827341Y-98195106D01*
X116701314Y-98279314D01*
X116626000Y-98392030D01*
X116550686Y-98279314D01*
X116424659Y-98195106D01*
X116276000Y-98165536D01*
X116014464Y-98165536D01*
X116014464Y-97104000D01*
X115984894Y-96955341D01*
X115900686Y-96829314D01*
X115774659Y-96745106D01*
X115626000Y-96715536D01*
X112626000Y-96715536D01*
X112477341Y-96745106D01*
X112351314Y-96829314D01*
X112267106Y-96955341D01*
X112237536Y-97104000D01*
X112237536Y-99604000D01*
X112267106Y-99752659D01*
X112351314Y-99878686D01*
X112477341Y-99962894D01*
X112626000Y-99992464D01*
X115587536Y-99992464D01*
X115587536Y-100154000D01*
X115617106Y-100302659D01*
X115701314Y-100428686D01*
X115827341Y-100512894D01*
X115976000Y-100542464D01*
X116276000Y-100542464D01*
X116424659Y-100512894D01*
X116550686Y-100428686D01*
X116618001Y-100327942D01*
X116618001Y-100331389D01*
X116601449Y-100414600D01*
X116618000Y-100497811D01*
X116618000Y-100925680D01*
X116577969Y-100925680D01*
X116290919Y-101044580D01*
X116071220Y-101264279D01*
X115952320Y-101551329D01*
X115952320Y-101862031D01*
X116071220Y-102149081D01*
X116290919Y-102368780D01*
X116437197Y-102429370D01*
X116380168Y-102486400D01*
X109448383Y-102486400D01*
X109395597Y-102475900D01*
X109342812Y-102486400D01*
X109342811Y-102486400D01*
X109186462Y-102517500D01*
X109009164Y-102635966D01*
X108979264Y-102680716D01*
X106648196Y-105011784D01*
X106603447Y-105041684D01*
X106573547Y-105086433D01*
X106573545Y-105086435D01*
X106484981Y-105218982D01*
X106443380Y-105428118D01*
X106453881Y-105480908D01*
X106453880Y-113857061D01*
X106053076Y-114257866D01*
X106008327Y-114287766D01*
X105978427Y-114332515D01*
X105978425Y-114332517D01*
X105889861Y-114465064D01*
X105863868Y-114595736D01*
X105494760Y-114595736D01*
X105346101Y-114625306D01*
X105220074Y-114709514D01*
X105135866Y-114835541D01*
X105106296Y-114984200D01*
X105106296Y-116784200D01*
X105135866Y-116932859D01*
X105220074Y-117058886D01*
X105346101Y-117143094D01*
X105494760Y-117172664D01*
X105513761Y-117172664D01*
X105513761Y-117195736D01*
X105494760Y-117195736D01*
X105346101Y-117225306D01*
X105220074Y-117309514D01*
X105135866Y-117435541D01*
X105106296Y-117584200D01*
X105106296Y-119384200D01*
X105135866Y-119532859D01*
X105220074Y-119658886D01*
X105346101Y-119743094D01*
X105494760Y-119772664D01*
X105513760Y-119772664D01*
X105513760Y-119795736D01*
X105494760Y-119795736D01*
X105346101Y-119825306D01*
X105220074Y-119909514D01*
X105135866Y-120035541D01*
X105106296Y-120184200D01*
X105106296Y-121066902D01*
X104499199Y-121674000D01*
X96141845Y-121674000D01*
X96137501Y-121667499D01*
X95730312Y-121395424D01*
X95371239Y-121324000D01*
X95128761Y-121324000D01*
X94769688Y-121395424D01*
X94451001Y-121608364D01*
X94451001Y-120961636D01*
X94769688Y-121174576D01*
X95128761Y-121246000D01*
X95371239Y-121246000D01*
X95730312Y-121174576D01*
X96137501Y-120902501D01*
X96409576Y-120495312D01*
X96505116Y-120015000D01*
X96409576Y-119534688D01*
X96137501Y-119127499D01*
X95730312Y-118855424D01*
X95371239Y-118784000D01*
X95128761Y-118784000D01*
X94769688Y-118855424D01*
X94451001Y-119068364D01*
X94451001Y-118732786D01*
X94461501Y-118680001D01*
X94450518Y-118624786D01*
X94419901Y-118470865D01*
X94347495Y-118362501D01*
X94331336Y-118338317D01*
X94331335Y-118338316D01*
X94301435Y-118293567D01*
X94256686Y-118263667D01*
X93882642Y-117889624D01*
X93965116Y-117475000D01*
X93994884Y-117475000D01*
X94090424Y-117955312D01*
X94362499Y-118362501D01*
X94769688Y-118634576D01*
X95128761Y-118706000D01*
X95371239Y-118706000D01*
X95730312Y-118634576D01*
X96137501Y-118362501D01*
X96409576Y-117955312D01*
X96505116Y-117475000D01*
X96409576Y-116994688D01*
X96137501Y-116587499D01*
X95730312Y-116315424D01*
X95371239Y-116244000D01*
X95128761Y-116244000D01*
X94769688Y-116315424D01*
X94362499Y-116587499D01*
X94090424Y-116994688D01*
X93994884Y-117475000D01*
X93965116Y-117475000D01*
X93869576Y-116994688D01*
X93597501Y-116587499D01*
X93190312Y-116315424D01*
X92831239Y-116244000D01*
X92588761Y-116244000D01*
X92229688Y-116315424D01*
X91822499Y-116587499D01*
X91550424Y-116994688D01*
X91454884Y-117475000D01*
X91550424Y-117955312D01*
X91822499Y-118362501D01*
X92229688Y-118634576D01*
X92588761Y-118706000D01*
X92831239Y-118706000D01*
X93124624Y-118647642D01*
X93379001Y-118902020D01*
X93379001Y-118981502D01*
X93190312Y-118855424D01*
X92831239Y-118784000D01*
X92588761Y-118784000D01*
X92229688Y-118855424D01*
X91822499Y-119127499D01*
X91550424Y-119534688D01*
X91454884Y-120015000D01*
X91550424Y-120495312D01*
X91822499Y-120902501D01*
X92229688Y-121174576D01*
X92588761Y-121246000D01*
X92831239Y-121246000D01*
X93190312Y-121174576D01*
X93379001Y-121048498D01*
X93379001Y-121521502D01*
X93190312Y-121395424D01*
X92831239Y-121324000D01*
X92588761Y-121324000D01*
X92229688Y-121395424D01*
X91822499Y-121667499D01*
X91550424Y-122074688D01*
X91454884Y-122555000D01*
X91537358Y-122969624D01*
X91163317Y-123343665D01*
X91118565Y-123373567D01*
X91000099Y-123550866D01*
X90968999Y-123707214D01*
X90958499Y-123760001D01*
X90968999Y-123812787D01*
X90969000Y-126281182D01*
X85001662Y-132248520D01*
X82437772Y-132248520D01*
X82435254Y-132235861D01*
X82434358Y-132234520D01*
X82435254Y-132233179D01*
X82464824Y-132084520D01*
X82464824Y-131284520D01*
X82435254Y-131135861D01*
X82351046Y-131009834D01*
X82225019Y-130925626D01*
X82076360Y-130896056D01*
X80076360Y-130896056D01*
X79927701Y-130925626D01*
X79801674Y-131009834D01*
X79717466Y-131135861D01*
X79714824Y-131149143D01*
X79714824Y-130144520D01*
X79685254Y-129995861D01*
X79601046Y-129869834D01*
X79475019Y-129785626D01*
X79326360Y-129756056D01*
X77426360Y-129756056D01*
X77277701Y-129785626D01*
X77151674Y-129869834D01*
X77067466Y-129995861D01*
X77037896Y-130144520D01*
X77037896Y-131594520D01*
X77067466Y-131743179D01*
X77151674Y-131869206D01*
X77277701Y-131953414D01*
X77426360Y-131982984D01*
X79326360Y-131982984D01*
X79475019Y-131953414D01*
X79601046Y-131869206D01*
X79685254Y-131743179D01*
X79687896Y-131729897D01*
X79687896Y-132084520D01*
X79717466Y-132233179D01*
X79718362Y-132234520D01*
X79717466Y-132235861D01*
X79687896Y-132384520D01*
X79687896Y-133184520D01*
X79717466Y-133333179D01*
X79801674Y-133459206D01*
X79927701Y-133543414D01*
X80076360Y-133572984D01*
X82076360Y-133572984D01*
X82225019Y-133543414D01*
X82351046Y-133459206D01*
X82435254Y-133333179D01*
X82437772Y-133320520D01*
X85170895Y-133320520D01*
X85223680Y-133331020D01*
X85276465Y-133320520D01*
X85276467Y-133320520D01*
X85432816Y-133289420D01*
X85610114Y-133170954D01*
X85640016Y-133126202D01*
X90923160Y-127843058D01*
X90923160Y-128054511D01*
X91042060Y-128341561D01*
X91261759Y-128561260D01*
X91548809Y-128680160D01*
X91859511Y-128680160D01*
X92146561Y-128561260D01*
X92366260Y-128341561D01*
X92485160Y-128054511D01*
X92485160Y-127861260D01*
X94256685Y-126089735D01*
X94301435Y-126059835D01*
X94342551Y-125998301D01*
X94363772Y-125966541D01*
X94419901Y-125882537D01*
X94451001Y-125726188D01*
X94451001Y-125726187D01*
X94461501Y-125673402D01*
X94451001Y-125620616D01*
X94451001Y-123501636D01*
X94769688Y-123714576D01*
X95128761Y-123786000D01*
X95235079Y-123786000D01*
X98423600Y-126974522D01*
X98423600Y-127017856D01*
X98404600Y-127017856D01*
X98304600Y-127037747D01*
X98204600Y-127017856D01*
X96404600Y-127017856D01*
X96255941Y-127047426D01*
X96129914Y-127131634D01*
X96045706Y-127257661D01*
X96016136Y-127406320D01*
X96016136Y-127775427D01*
X95885463Y-127801420D01*
X95817821Y-127846617D01*
X95708166Y-127919886D01*
X95678264Y-127964638D01*
X93262222Y-130380680D01*
X89727581Y-130380680D01*
X89601481Y-130254580D01*
X89314431Y-130135680D01*
X89003729Y-130135680D01*
X88716679Y-130254580D01*
X88496980Y-130474279D01*
X88378080Y-130761329D01*
X88378080Y-131072031D01*
X88496980Y-131359081D01*
X88716679Y-131578780D01*
X89003729Y-131697680D01*
X89314431Y-131697680D01*
X89601481Y-131578780D01*
X89727581Y-131452680D01*
X90637212Y-131452680D01*
X90551674Y-131509834D01*
X90467466Y-131635861D01*
X90437896Y-131784520D01*
X90437896Y-133584520D01*
X90467466Y-133733179D01*
X90551674Y-133859206D01*
X90677701Y-133943414D01*
X90826360Y-133972984D01*
X92226360Y-133972984D01*
X92375019Y-133943414D01*
X92501046Y-133859206D01*
X92585254Y-133733179D01*
X92614824Y-133584520D01*
X92614824Y-131784520D01*
X92585254Y-131635861D01*
X92501046Y-131509834D01*
X92415508Y-131452680D01*
X93431455Y-131452680D01*
X93484240Y-131463180D01*
X93537025Y-131452680D01*
X93537027Y-131452680D01*
X93693376Y-131421580D01*
X93870674Y-131303114D01*
X93900576Y-131258362D01*
X96016136Y-129142802D01*
X96016136Y-129206320D01*
X96045706Y-129354979D01*
X96129914Y-129481006D01*
X96255941Y-129565214D01*
X96404600Y-129594784D01*
X98204600Y-129594784D01*
X98304600Y-129574893D01*
X98404600Y-129594784D01*
X98423601Y-129594784D01*
X98423601Y-130039811D01*
X93558656Y-134904757D01*
X93485095Y-134953909D01*
X93318311Y-135203520D01*
X82464824Y-135203520D01*
X82464824Y-134584520D01*
X82435254Y-134435861D01*
X82351046Y-134309834D01*
X82225019Y-134225626D01*
X82076360Y-134196056D01*
X80076360Y-134196056D01*
X79927701Y-134225626D01*
X79801674Y-134309834D01*
X79717466Y-134435861D01*
X79687896Y-134584520D01*
X79687896Y-135384520D01*
X79717466Y-135533179D01*
X79718362Y-135534520D01*
X79717466Y-135535861D01*
X79687896Y-135684520D01*
X79687896Y-136484520D01*
X79717466Y-136633179D01*
X79718362Y-136634520D01*
X79717466Y-136635861D01*
X79687896Y-136784520D01*
X79687896Y-137584520D01*
X79717466Y-137733179D01*
X79718362Y-137734520D01*
X79717466Y-137735861D01*
X79687896Y-137884520D01*
X79687896Y-138684520D01*
X79717466Y-138833179D01*
X79718362Y-138834520D01*
X79717466Y-138835861D01*
X79687896Y-138984520D01*
X79687896Y-139784520D01*
X79717466Y-139933179D01*
X79801674Y-140059206D01*
X79927701Y-140143414D01*
X80076360Y-140172984D01*
X82076360Y-140172984D01*
X82225019Y-140143414D01*
X82351046Y-140059206D01*
X82435254Y-139933179D01*
X82464824Y-139784520D01*
X82464824Y-139121002D01*
X86274505Y-142930683D01*
X86304407Y-142975435D01*
X86442753Y-143067874D01*
X86481703Y-143093900D01*
X86481704Y-143093900D01*
X86481705Y-143093901D01*
X86638054Y-143125001D01*
X86638058Y-143125001D01*
X86690840Y-143135500D01*
X86743622Y-143125001D01*
X113565694Y-143125001D01*
X113618479Y-143135501D01*
X113671264Y-143125001D01*
X113671266Y-143125001D01*
X113827615Y-143093901D01*
X114004913Y-142975435D01*
X114022938Y-142948459D01*
X114049914Y-142930434D01*
X114168380Y-142753136D01*
X114194372Y-142622464D01*
X114563480Y-142622464D01*
X114712139Y-142592894D01*
X114838166Y-142508686D01*
X114922374Y-142382659D01*
X114951944Y-142234000D01*
X114951944Y-140434000D01*
X114932053Y-140334000D01*
X114951944Y-140234000D01*
X114951944Y-138434000D01*
X114932053Y-138334000D01*
X114951944Y-138234000D01*
X114951944Y-136434000D01*
X114932053Y-136334000D01*
X114951944Y-136234000D01*
X114951944Y-134434000D01*
X114932053Y-134334000D01*
X114951944Y-134234000D01*
X114951944Y-132434000D01*
X114922374Y-132285341D01*
X114838166Y-132159314D01*
X114712139Y-132075106D01*
X114563480Y-132045536D01*
X114544480Y-132045536D01*
X114544480Y-131520767D01*
X114561739Y-131434000D01*
X114493363Y-131090251D01*
X114420941Y-130981864D01*
X114298645Y-130798835D01*
X114225088Y-130749686D01*
X112898297Y-129422895D01*
X112849145Y-129349335D01*
X112557729Y-129154617D01*
X112300747Y-129103500D01*
X112300743Y-129103500D01*
X112213980Y-129086242D01*
X112127217Y-129103500D01*
X107634733Y-129103500D01*
X107546574Y-129121036D01*
X107502750Y-129121036D01*
X107270379Y-129167257D01*
X107073385Y-129298885D01*
X106941757Y-129495879D01*
X106934000Y-129534876D01*
X106926243Y-129495879D01*
X106794615Y-129298885D01*
X106597621Y-129167257D01*
X106569606Y-129161685D01*
X105152637Y-127744716D01*
X105103485Y-127671155D01*
X104812069Y-127476437D01*
X104555087Y-127425320D01*
X104555083Y-127425320D01*
X104468320Y-127408062D01*
X104381557Y-127425320D01*
X100593064Y-127425320D01*
X100593064Y-127406320D01*
X100563494Y-127257661D01*
X100479286Y-127131634D01*
X100353259Y-127047426D01*
X100204600Y-127017856D01*
X100185600Y-127017856D01*
X100185600Y-126696361D01*
X100202858Y-126609599D01*
X100185600Y-126522838D01*
X100185600Y-126522833D01*
X100134483Y-126265851D01*
X99939765Y-125974435D01*
X99866208Y-125925286D01*
X97376921Y-123436000D01*
X104777357Y-123436000D01*
X104864120Y-123453258D01*
X104894040Y-123447307D01*
X104923960Y-123453258D01*
X105010723Y-123436000D01*
X105010727Y-123436000D01*
X105267709Y-123384883D01*
X105559125Y-123190165D01*
X105608277Y-123116605D01*
X106352218Y-122372664D01*
X107294760Y-122372664D01*
X107394760Y-122352773D01*
X107494760Y-122372664D01*
X109294760Y-122372664D01*
X109443419Y-122343094D01*
X109569446Y-122258886D01*
X109653654Y-122132859D01*
X109683224Y-121984200D01*
X109683224Y-120324880D01*
X112749342Y-120324880D01*
X112799370Y-120334831D01*
X112849398Y-120324880D01*
X112849402Y-120324880D01*
X112997582Y-120295405D01*
X113165617Y-120183127D01*
X113193958Y-120140712D01*
X115347786Y-117986885D01*
X115347786Y-118009000D01*
X115367677Y-118109000D01*
X115347786Y-118209000D01*
X115347786Y-118659000D01*
X115367677Y-118759000D01*
X115347786Y-118859000D01*
X115347786Y-119309000D01*
X115367677Y-119409000D01*
X115347786Y-119509000D01*
X115347786Y-119959000D01*
X115377356Y-120107659D01*
X115461564Y-120233686D01*
X115587591Y-120317894D01*
X115736250Y-120347464D01*
X117211250Y-120347464D01*
X117359909Y-120317894D01*
X117460126Y-120250932D01*
X117465250Y-120251951D01*
X117515278Y-120242000D01*
X117515282Y-120242000D01*
X117663462Y-120212525D01*
X117831497Y-120100247D01*
X117859838Y-120057832D01*
X119057631Y-118860039D01*
X119071408Y-118869244D01*
X120909998Y-120707835D01*
X120938337Y-120750247D01*
X120980749Y-120778586D01*
X120980751Y-120778588D01*
X121106372Y-120862525D01*
X121254552Y-120892000D01*
X121254555Y-120892000D01*
X121304583Y-120901951D01*
X121351063Y-120892706D01*
X121463591Y-120967894D01*
X121612250Y-120997464D01*
X123087250Y-120997464D01*
X123235909Y-120967894D01*
X123361936Y-120883686D01*
X123446144Y-120757659D01*
X123475714Y-120609000D01*
X123475714Y-120159000D01*
X123455823Y-120059000D01*
X123475714Y-119959000D01*
X123475714Y-119509000D01*
X123455823Y-119409000D01*
X123475714Y-119309000D01*
X123475714Y-118859000D01*
X123455823Y-118759000D01*
X123475714Y-118659000D01*
X123475714Y-118320000D01*
X129899736Y-118320000D01*
X129899736Y-118783680D01*
X129919627Y-118883680D01*
X129899736Y-118983680D01*
X129899736Y-120783680D01*
X129929306Y-120932339D01*
X130013514Y-121058366D01*
X130139541Y-121142574D01*
X130288200Y-121172144D01*
X132088200Y-121172144D01*
X132188200Y-121152253D01*
X132288200Y-121172144D01*
X134088200Y-121172144D01*
X134236859Y-121142574D01*
X134362886Y-121058366D01*
X134447094Y-120932339D01*
X134476664Y-120783680D01*
X134476664Y-118983680D01*
X134456773Y-118883680D01*
X134476664Y-118783680D01*
X134476664Y-116983680D01*
X134456773Y-116883680D01*
X134476664Y-116783680D01*
X134476664Y-114983680D01*
X134447094Y-114835021D01*
X134362886Y-114708994D01*
X134236859Y-114624786D01*
X134088200Y-114595216D01*
X132288200Y-114595216D01*
X132188200Y-114615107D01*
X132088200Y-114595216D01*
X131966688Y-114595216D01*
X132785045Y-113776860D01*
X134306622Y-113776860D01*
X134315385Y-113789975D01*
X134512379Y-113921603D01*
X134744750Y-113967824D01*
X135257250Y-113967824D01*
X135489621Y-113921603D01*
X135686615Y-113789975D01*
X135818243Y-113592981D01*
X135864464Y-113360610D01*
X135864464Y-112923110D01*
X135818243Y-112690739D01*
X135686615Y-112493745D01*
X135489621Y-112362117D01*
X135450624Y-112354360D01*
X135489621Y-112346603D01*
X135686615Y-112214975D01*
X135818243Y-112017981D01*
X135832529Y-111946159D01*
X135856283Y-111910609D01*
X135924659Y-111566860D01*
X135856283Y-111223111D01*
X135832529Y-111187561D01*
X135818243Y-111115739D01*
X135686615Y-110918745D01*
X135489621Y-110787117D01*
X135426355Y-110774533D01*
X135370149Y-110736977D01*
X135113167Y-110685860D01*
X128000799Y-110685860D01*
X127889000Y-110663622D01*
X127545252Y-110731997D01*
X127253835Y-110926715D01*
X127059117Y-111218132D01*
X126990742Y-111561880D01*
X127059117Y-111905628D01*
X127204686Y-112123487D01*
X127209663Y-112128464D01*
X127258815Y-112202025D01*
X127550231Y-112396743D01*
X127807213Y-112447860D01*
X127893980Y-112465119D01*
X127980747Y-112447860D01*
X134384056Y-112447860D01*
X134315385Y-112493745D01*
X134306622Y-112506860D01*
X132584555Y-112506860D01*
X132522019Y-112494421D01*
X132459484Y-112506860D01*
X132459479Y-112506860D01*
X132274255Y-112543703D01*
X132064211Y-112684051D01*
X132028784Y-112737072D01*
X130783414Y-113982442D01*
X130730391Y-114017871D01*
X130590043Y-114227916D01*
X130553200Y-114413140D01*
X130553200Y-114413143D01*
X130540761Y-114475680D01*
X130553200Y-114538217D01*
X130553200Y-114595216D01*
X130288200Y-114595216D01*
X130139541Y-114624786D01*
X130013514Y-114708994D01*
X129929306Y-114835021D01*
X129899736Y-114983680D01*
X129899736Y-116783680D01*
X129919627Y-116883680D01*
X129899736Y-116983680D01*
X129899736Y-117248000D01*
X124041268Y-117248000D01*
X126727005Y-114562264D01*
X126771754Y-114532364D01*
X126816422Y-114465514D01*
X126848669Y-114417252D01*
X126890220Y-114355066D01*
X126921320Y-114198717D01*
X126921320Y-114198716D01*
X126931820Y-114145931D01*
X126921320Y-114093145D01*
X126921320Y-110879658D01*
X127222019Y-110578960D01*
X138827742Y-110578960D01*
X142190465Y-113941683D01*
X142220367Y-113986435D01*
X142397665Y-114104901D01*
X142554014Y-114136001D01*
X142554015Y-114136001D01*
X142562267Y-114137642D01*
X142350424Y-114454688D01*
X142254884Y-114935000D01*
X142350424Y-115415312D01*
X142622499Y-115822501D01*
X143029688Y-116094576D01*
X143388761Y-116166000D01*
X143631239Y-116166000D01*
X143990312Y-116094576D01*
X144397501Y-115822501D01*
X144669576Y-115415312D01*
X144765116Y-114935000D01*
X144669576Y-114454688D01*
X144397501Y-114047499D01*
X144390473Y-114042803D01*
X144474835Y-113986435D01*
X144504737Y-113941683D01*
X145056686Y-113389735D01*
X145101435Y-113359835D01*
X145157803Y-113275473D01*
X145162499Y-113282501D01*
X145569688Y-113554576D01*
X145928761Y-113626000D01*
X146171239Y-113626000D01*
X146530312Y-113554576D01*
X146719001Y-113428498D01*
X146719001Y-113901502D01*
X146530312Y-113775424D01*
X146171239Y-113704000D01*
X145928761Y-113704000D01*
X145569688Y-113775424D01*
X145162499Y-114047499D01*
X144890424Y-114454688D01*
X144794884Y-114935000D01*
X144883928Y-115382652D01*
X144549167Y-115717413D01*
X144506752Y-115745754D01*
X144478412Y-115788168D01*
X144478411Y-115788169D01*
X144425378Y-115867539D01*
X144394474Y-115913790D01*
X144364999Y-116061970D01*
X144364999Y-116061973D01*
X144355048Y-116112001D01*
X144364999Y-116162029D01*
X144364999Y-116565782D01*
X143990312Y-116315424D01*
X143631239Y-116244000D01*
X143388761Y-116244000D01*
X143029688Y-116315424D01*
X142622499Y-116587499D01*
X142368925Y-116967000D01*
X141045428Y-116967000D01*
X140995400Y-116957049D01*
X140945372Y-116967000D01*
X140945368Y-116967000D01*
X140806172Y-116994688D01*
X140797188Y-116996475D01*
X140671567Y-117080412D01*
X140671565Y-117080414D01*
X140629153Y-117108753D01*
X140600814Y-117151165D01*
X125279168Y-132472812D01*
X125236753Y-132501153D01*
X125124475Y-132669189D01*
X125095000Y-132817369D01*
X125095000Y-132817372D01*
X125085049Y-132867400D01*
X125095000Y-132917428D01*
X125095001Y-139462007D01*
X125085049Y-139512040D01*
X125124475Y-139710251D01*
X125208412Y-139835872D01*
X125208415Y-139835875D01*
X125236754Y-139878287D01*
X125279166Y-139906626D01*
X127225172Y-141852632D01*
X127253513Y-141895047D01*
X127421548Y-142007325D01*
X127569728Y-142036800D01*
X127569731Y-142036800D01*
X127619759Y-142046751D01*
X127669787Y-142036800D01*
X129616972Y-142036800D01*
X129667000Y-142046751D01*
X129717028Y-142036800D01*
X129717032Y-142036800D01*
X129865212Y-142007325D01*
X130033247Y-141895047D01*
X130061588Y-141852632D01*
X130710673Y-141203547D01*
X130753087Y-141175207D01*
X130865365Y-141007172D01*
X130894840Y-140858992D01*
X130894840Y-140858988D01*
X130904791Y-140808961D01*
X130894840Y-140758934D01*
X130894840Y-140272464D01*
X131286840Y-140272464D01*
X131435499Y-140242894D01*
X131561526Y-140158686D01*
X131645734Y-140032659D01*
X131675304Y-139884000D01*
X131675304Y-138084000D01*
X131655413Y-137984000D01*
X131675304Y-137884000D01*
X131675304Y-137475205D01*
X131739052Y-137462525D01*
X131907087Y-137350247D01*
X131935428Y-137307832D01*
X134004036Y-135239225D01*
X134046447Y-135210887D01*
X134074786Y-135168475D01*
X134074788Y-135168473D01*
X134158725Y-135042852D01*
X134175500Y-134958517D01*
X134188200Y-134894672D01*
X134188200Y-134894668D01*
X134198151Y-134844640D01*
X134188200Y-134794612D01*
X134188200Y-130111100D01*
X142599300Y-121700001D01*
X142600782Y-121700001D01*
X142350424Y-122074688D01*
X142254884Y-122555000D01*
X142256409Y-122562669D01*
X136826896Y-127992183D01*
X136753335Y-128041335D01*
X136558617Y-128332752D01*
X136507500Y-128589734D01*
X136507500Y-128589737D01*
X136490242Y-128676500D01*
X136507500Y-128763263D01*
X136507501Y-133644229D01*
X136507500Y-133644234D01*
X136507501Y-134640013D01*
X136490242Y-134726780D01*
X136558617Y-135070528D01*
X136633242Y-135182212D01*
X136753336Y-135361945D01*
X136826894Y-135411095D01*
X141221640Y-139805842D01*
X141221640Y-139929157D01*
X141204382Y-140015920D01*
X141221640Y-140102683D01*
X141221640Y-140102687D01*
X141272757Y-140359669D01*
X141467476Y-140651085D01*
X141541033Y-140700235D01*
X142814365Y-141973567D01*
X142863515Y-142047125D01*
X142937072Y-142096274D01*
X143154931Y-142241843D01*
X143498680Y-142310219D01*
X143585447Y-142292960D01*
X152003437Y-142292960D01*
X152090200Y-142310218D01*
X152176963Y-142292960D01*
X152176967Y-142292960D01*
X152433949Y-142241843D01*
X152546593Y-142166576D01*
X155273600Y-142166576D01*
X155273600Y-142933184D01*
X155566968Y-143641438D01*
X156109042Y-144183512D01*
X156817296Y-144476880D01*
X157583904Y-144476880D01*
X158292158Y-144183512D01*
X158834232Y-143641438D01*
X159127600Y-142933184D01*
X159127600Y-142166576D01*
X158834232Y-141458322D01*
X158292158Y-140916248D01*
X157583904Y-140622880D01*
X156817296Y-140622880D01*
X156109042Y-140916248D01*
X155566968Y-141458322D01*
X155273600Y-142166576D01*
X152546593Y-142166576D01*
X152725365Y-142047125D01*
X152774517Y-141973565D01*
X153788888Y-140959194D01*
X153862445Y-140910045D01*
X154057163Y-140618629D01*
X154108280Y-140361647D01*
X154108280Y-140361643D01*
X154125538Y-140274880D01*
X154108280Y-140188117D01*
X154108280Y-139663344D01*
X154127280Y-139663344D01*
X154275939Y-139633774D01*
X154401966Y-139549566D01*
X154486174Y-139423539D01*
X154515744Y-139274880D01*
X154515744Y-137474880D01*
X154495853Y-137374880D01*
X154515744Y-137274880D01*
X154515744Y-135474880D01*
X154495853Y-135374880D01*
X154515744Y-135274880D01*
X154515744Y-133474880D01*
X154486174Y-133326221D01*
X154401966Y-133200194D01*
X154275939Y-133115986D01*
X154127280Y-133086416D01*
X152327280Y-133086416D01*
X152178621Y-133115986D01*
X152052594Y-133200194D01*
X151968386Y-133326221D01*
X151938816Y-133474880D01*
X151938816Y-135274880D01*
X151958707Y-135374880D01*
X151938816Y-135474880D01*
X151938816Y-135838880D01*
X143550897Y-135838880D01*
X143083980Y-135371964D01*
X143876500Y-135371964D01*
X144025159Y-135342394D01*
X144151186Y-135258186D01*
X144235394Y-135132159D01*
X144264964Y-134983500D01*
X144264964Y-134383500D01*
X144235394Y-134234841D01*
X144151186Y-134108814D01*
X144025159Y-134024606D01*
X143944500Y-134008562D01*
X143944500Y-131951528D01*
X144056615Y-131876615D01*
X144188243Y-131679621D01*
X144234464Y-131447250D01*
X144234464Y-130934750D01*
X144188243Y-130702379D01*
X144056615Y-130505385D01*
X143859621Y-130373757D01*
X143627250Y-130327536D01*
X143415384Y-130327536D01*
X147550833Y-126192087D01*
X147593248Y-126163746D01*
X147705526Y-125995711D01*
X147735001Y-125847531D01*
X147735001Y-125847528D01*
X147744952Y-125797500D01*
X147735001Y-125747472D01*
X147735001Y-106800066D01*
X147744952Y-106750038D01*
X147735001Y-106700008D01*
X147735001Y-106700007D01*
X147705526Y-106551827D01*
X147688021Y-106525629D01*
X147621589Y-106426206D01*
X147621587Y-106426204D01*
X147593248Y-106383792D01*
X147550836Y-106355453D01*
X147009549Y-105814167D01*
X146981208Y-105771752D01*
X146813173Y-105659474D01*
X146664993Y-105629999D01*
X146664989Y-105629999D01*
X146614961Y-105620048D01*
X146564933Y-105629999D01*
X142448426Y-105629999D01*
X142398398Y-105620048D01*
X142348370Y-105629999D01*
X142348367Y-105629999D01*
X142200187Y-105659474D01*
X142032152Y-105771752D01*
X142003811Y-105814167D01*
X141323977Y-106494001D01*
X138666819Y-106494001D01*
X139093738Y-106067082D01*
X139441000Y-105228719D01*
X139441000Y-105150367D01*
X139522078Y-105204542D01*
X139700000Y-105239933D01*
X139744909Y-105231000D01*
X148134001Y-105231000D01*
X148134000Y-125685091D01*
X148125067Y-125730000D01*
X148160458Y-125907922D01*
X148232062Y-126015085D01*
X148261243Y-126058757D01*
X148412078Y-126159542D01*
X148590000Y-126194933D01*
X148634909Y-126186000D01*
X162104001Y-126186000D01*
X162104000Y-145594000D01*
X120309318Y-145594000D01*
X120672082Y-145443738D01*
X121313738Y-144802082D01*
X121661000Y-143963719D01*
X121661000Y-143056281D01*
X121313738Y-142217918D01*
X120672082Y-141576262D01*
X119833719Y-141229000D01*
X118926281Y-141229000D01*
X118087918Y-141576262D01*
X117446262Y-142217918D01*
X117099000Y-143056281D01*
X117099000Y-143963719D01*
X117446262Y-144802082D01*
X118087918Y-145443738D01*
X118450682Y-145594000D01*
X76656000Y-145594000D01*
X76656000Y-145182984D01*
X78326360Y-145182984D01*
X78475019Y-145153414D01*
X78601046Y-145069206D01*
X78685254Y-144943179D01*
X78714824Y-144794520D01*
X78714824Y-143344520D01*
X78685254Y-143195861D01*
X78601046Y-143069834D01*
X78475019Y-142985626D01*
X78326360Y-142956056D01*
X76656000Y-142956056D01*
X76656000Y-127813750D01*
X78196536Y-127813750D01*
X78196536Y-128726250D01*
X78244660Y-128968188D01*
X78381707Y-129173293D01*
X78586812Y-129310340D01*
X78828750Y-129358464D01*
X79316250Y-129358464D01*
X79558188Y-129310340D01*
X79763293Y-129173293D01*
X79900340Y-128968188D01*
X79948464Y-128726250D01*
X79948464Y-127813750D01*
X80071536Y-127813750D01*
X80071536Y-128726250D01*
X80119660Y-128968188D01*
X80256707Y-129173293D01*
X80461812Y-129310340D01*
X80703750Y-129358464D01*
X81191250Y-129358464D01*
X81433188Y-129310340D01*
X81638293Y-129173293D01*
X81775340Y-128968188D01*
X81807601Y-128806000D01*
X83236915Y-128806000D01*
X83336885Y-128955615D01*
X83533879Y-129087243D01*
X83766250Y-129133464D01*
X84203750Y-129133464D01*
X84436121Y-129087243D01*
X84633115Y-128955615D01*
X84764743Y-128758621D01*
X84810964Y-128526250D01*
X84810964Y-128013750D01*
X84764743Y-127781379D01*
X84633115Y-127584385D01*
X84436121Y-127452757D01*
X84203750Y-127406536D01*
X83766250Y-127406536D01*
X83533879Y-127452757D01*
X83336885Y-127584385D01*
X83236915Y-127734000D01*
X81807601Y-127734000D01*
X81775340Y-127571812D01*
X81638293Y-127366707D01*
X81433188Y-127229660D01*
X81191250Y-127181536D01*
X80703750Y-127181536D01*
X80461812Y-127229660D01*
X80256707Y-127366707D01*
X80119660Y-127571812D01*
X80071536Y-127813750D01*
X79948464Y-127813750D01*
X79900340Y-127571812D01*
X79763293Y-127366707D01*
X79558188Y-127229660D01*
X79316250Y-127181536D01*
X78828750Y-127181536D01*
X78586812Y-127229660D01*
X78381707Y-127366707D01*
X78244660Y-127571812D01*
X78196536Y-127813750D01*
X76656000Y-127813750D01*
X76656000Y-126186000D01*
X90125091Y-126186000D01*
X90170000Y-126194933D01*
X90214909Y-126186000D01*
X90347922Y-126159542D01*
X90498757Y-126058757D01*
X90599542Y-125907922D01*
X90634933Y-125730000D01*
X90626000Y-125685091D01*
X90626000Y-114935000D01*
X91454884Y-114935000D01*
X91550424Y-115415312D01*
X91822499Y-115822501D01*
X92229688Y-116094576D01*
X92588761Y-116166000D01*
X92831239Y-116166000D01*
X93190312Y-116094576D01*
X93597501Y-115822501D01*
X93869576Y-115415312D01*
X93965116Y-114935000D01*
X93994884Y-114935000D01*
X94090424Y-115415312D01*
X94362499Y-115822501D01*
X94769688Y-116094576D01*
X95128761Y-116166000D01*
X95371239Y-116166000D01*
X95730312Y-116094576D01*
X96137501Y-115822501D01*
X96409576Y-115415312D01*
X96505116Y-114935000D01*
X96409576Y-114454688D01*
X96137501Y-114047499D01*
X95730312Y-113775424D01*
X95371239Y-113704000D01*
X95128761Y-113704000D01*
X94769688Y-113775424D01*
X94362499Y-114047499D01*
X94090424Y-114454688D01*
X93994884Y-114935000D01*
X93965116Y-114935000D01*
X93869576Y-114454688D01*
X93597501Y-114047499D01*
X93190312Y-113775424D01*
X92831239Y-113704000D01*
X92588761Y-113704000D01*
X92229688Y-113775424D01*
X91822499Y-114047499D01*
X91550424Y-114454688D01*
X91454884Y-114935000D01*
X90626000Y-114935000D01*
X90626000Y-112395000D01*
X91454884Y-112395000D01*
X91550424Y-112875312D01*
X91822499Y-113282501D01*
X92229688Y-113554576D01*
X92588761Y-113626000D01*
X92831239Y-113626000D01*
X93190312Y-113554576D01*
X93597501Y-113282501D01*
X93869576Y-112875312D01*
X93965116Y-112395000D01*
X93994884Y-112395000D01*
X94090424Y-112875312D01*
X94362499Y-113282501D01*
X94769688Y-113554576D01*
X95128761Y-113626000D01*
X95371239Y-113626000D01*
X95730312Y-113554576D01*
X96137501Y-113282501D01*
X96409576Y-112875312D01*
X96505116Y-112395000D01*
X96409576Y-111914688D01*
X96137501Y-111507499D01*
X95730312Y-111235424D01*
X95371239Y-111164000D01*
X95128761Y-111164000D01*
X94769688Y-111235424D01*
X94362499Y-111507499D01*
X94090424Y-111914688D01*
X93994884Y-112395000D01*
X93965116Y-112395000D01*
X93869576Y-111914688D01*
X93597501Y-111507499D01*
X93190312Y-111235424D01*
X92831239Y-111164000D01*
X92588761Y-111164000D01*
X92229688Y-111235424D01*
X91822499Y-111507499D01*
X91550424Y-111914688D01*
X91454884Y-112395000D01*
X90626000Y-112395000D01*
X90626000Y-105231000D01*
X99015091Y-105231000D01*
X99060000Y-105239933D01*
X99104909Y-105231000D01*
X99237922Y-105204542D01*
X99319000Y-105150367D01*
X99319000Y-105228719D01*
X99666262Y-106067082D01*
X100307918Y-106708738D01*
X101146281Y-107056000D01*
X102053719Y-107056000D01*
X102892082Y-106708738D01*
X103533738Y-106067082D01*
X103881000Y-105228719D01*
X103881000Y-104321281D01*
X103533738Y-103482918D01*
X102892082Y-102841262D01*
X102053719Y-102494000D01*
X101146281Y-102494000D01*
X100307918Y-102841262D01*
X99666262Y-103482918D01*
X99516000Y-103845682D01*
X99516000Y-97609896D01*
X101136040Y-97609896D01*
X101136040Y-98376504D01*
X101429408Y-99084758D01*
X101971482Y-99626832D01*
X102679736Y-99920200D01*
X103446344Y-99920200D01*
X104154598Y-99626832D01*
X104696672Y-99084758D01*
X104990040Y-98376504D01*
X104990040Y-97609896D01*
X104696672Y-96901642D01*
X104154598Y-96359568D01*
X103446344Y-96066200D01*
X102679736Y-96066200D01*
X101971482Y-96359568D01*
X101429408Y-96901642D01*
X101136040Y-97609896D01*
X99516000Y-97609896D01*
X99516000Y-95071000D01*
X139244001Y-95071000D01*
X139244000Y-103845682D01*
X139244000Y-103845682D01*
G37*
X139244000Y-103845682D02*
X139093738Y-103482918D01*
X138452082Y-102841262D01*
X137613719Y-102494000D01*
X136706281Y-102494000D01*
X135867918Y-102841262D01*
X135226262Y-103482918D01*
X134879000Y-104321281D01*
X134879000Y-105228719D01*
X135149300Y-105881279D01*
X130071748Y-100803728D01*
X130043407Y-100761313D01*
X129875372Y-100649035D01*
X129727192Y-100619560D01*
X129727188Y-100619560D01*
X129677160Y-100609609D01*
X129627132Y-100619560D01*
X122555980Y-100619560D01*
X122478884Y-100542464D01*
X122776000Y-100542464D01*
X122924659Y-100512894D01*
X123050686Y-100428686D01*
X123134894Y-100302659D01*
X123164464Y-100154000D01*
X123164464Y-99992464D01*
X126126000Y-99992464D01*
X126274659Y-99962894D01*
X126400686Y-99878686D01*
X126484894Y-99752659D01*
X126514464Y-99604000D01*
X126514464Y-97104000D01*
X126484894Y-96955341D01*
X126400686Y-96829314D01*
X126274659Y-96745106D01*
X126126000Y-96715536D01*
X123126000Y-96715536D01*
X122977341Y-96745106D01*
X122851314Y-96829314D01*
X122767106Y-96955341D01*
X122737536Y-97104000D01*
X122737536Y-98165536D01*
X122476000Y-98165536D01*
X122327341Y-98195106D01*
X122201314Y-98279314D01*
X122126000Y-98392030D01*
X122050686Y-98279314D01*
X121924659Y-98195106D01*
X121776000Y-98165536D01*
X121476000Y-98165536D01*
X121376000Y-98185427D01*
X121276000Y-98165536D01*
X120976000Y-98165536D01*
X120827341Y-98195106D01*
X120701314Y-98279314D01*
X120626000Y-98392030D01*
X120550686Y-98279314D01*
X120424659Y-98195106D01*
X120276000Y-98165536D01*
X120134000Y-98165536D01*
X120134000Y-97093439D01*
X120143951Y-97043411D01*
X120134000Y-96993383D01*
X120134000Y-96993380D01*
X120104525Y-96845200D01*
X120093910Y-96829314D01*
X120020588Y-96719579D01*
X120020586Y-96719577D01*
X119992247Y-96677165D01*
X119949835Y-96648826D01*
X118806296Y-95505288D01*
X118777955Y-95462873D01*
X118609920Y-95350595D01*
X118461740Y-95321120D01*
X118461736Y-95321120D01*
X118411708Y-95311169D01*
X118361680Y-95321120D01*
X110880388Y-95321120D01*
X110830360Y-95311169D01*
X110780332Y-95321120D01*
X110780328Y-95321120D01*
X110632148Y-95350595D01*
X110506527Y-95434532D01*
X110506525Y-95434534D01*
X110464113Y-95462873D01*
X110435774Y-95505285D01*
X105398526Y-100542534D01*
X105356111Y-100570875D01*
X105243833Y-100738911D01*
X105214358Y-100887091D01*
X105214358Y-100887094D01*
X105204407Y-100937122D01*
X105214358Y-100987150D01*
X105214359Y-106535619D01*
X103744098Y-108005880D01*
X96268879Y-108005880D01*
X96409576Y-107795312D01*
X96505116Y-107315000D01*
X96409576Y-106834688D01*
X96137501Y-106427499D01*
X95730312Y-106155424D01*
X95371239Y-106084000D01*
X95128761Y-106084000D01*
X94769688Y-106155424D01*
X94362499Y-106427499D01*
X94090424Y-106834688D01*
X93994884Y-107315000D01*
X94090424Y-107795312D01*
X94231121Y-108005880D01*
X94101148Y-108005880D01*
X94051120Y-107995929D01*
X94001092Y-108005880D01*
X94001088Y-108005880D01*
X93948464Y-108016348D01*
X93948464Y-106465000D01*
X93918894Y-106316341D01*
X93834686Y-106190314D01*
X93708659Y-106106106D01*
X93560000Y-106076536D01*
X91860000Y-106076536D01*
X91711341Y-106106106D01*
X91585314Y-106190314D01*
X91501106Y-106316341D01*
X91471536Y-106465000D01*
X91471536Y-108165000D01*
X91501106Y-108313659D01*
X91585314Y-108439686D01*
X91711341Y-108523894D01*
X91860000Y-108553464D01*
X93293116Y-108553464D01*
X93236169Y-108610411D01*
X93236166Y-108610413D01*
X93157652Y-108688927D01*
X92831239Y-108624000D01*
X92588761Y-108624000D01*
X92229688Y-108695424D01*
X91822499Y-108967499D01*
X91550424Y-109374688D01*
X91454884Y-109855000D01*
X91550424Y-110335312D01*
X91822499Y-110742501D01*
X92229688Y-111014576D01*
X92588761Y-111086000D01*
X92831239Y-111086000D01*
X93190312Y-111014576D01*
X93597501Y-110742501D01*
X93869576Y-110335312D01*
X93965116Y-109855000D01*
X93876073Y-109407348D01*
X93954587Y-109328834D01*
X93954589Y-109328831D01*
X94261541Y-109021880D01*
X94326163Y-109021880D01*
X94090424Y-109374688D01*
X93994884Y-109855000D01*
X94090424Y-110335312D01*
X94362499Y-110742501D01*
X94769688Y-111014576D01*
X95128761Y-111086000D01*
X95371239Y-111086000D01*
X95730312Y-111014576D01*
X96137501Y-110742501D01*
X96409576Y-110335312D01*
X96505116Y-109855000D01*
X96409576Y-109374688D01*
X96173837Y-109021880D01*
X103904490Y-109021880D01*
X103954518Y-109031831D01*
X104004546Y-109021880D01*
X104004550Y-109021880D01*
X104152730Y-108992405D01*
X104320765Y-108880127D01*
X104349106Y-108837712D01*
X106046190Y-107140628D01*
X106088605Y-107112287D01*
X106200883Y-106944252D01*
X106230358Y-106796072D01*
X106230358Y-106796069D01*
X106240309Y-106746041D01*
X106230358Y-106696013D01*
X106230358Y-101147542D01*
X111040781Y-96337120D01*
X118201288Y-96337120D01*
X119118001Y-97253834D01*
X119118001Y-98165536D01*
X118976000Y-98165536D01*
X118876000Y-98185427D01*
X118776000Y-98165536D01*
X118476000Y-98165536D01*
X118376000Y-98185427D01*
X118276000Y-98165536D01*
X117976000Y-98165536D01*
X117876000Y-98185427D01*
X117776000Y-98165536D01*
X117476000Y-98165536D01*
X117376000Y-98185427D01*
X117276000Y-98165536D01*
X116976000Y-98165536D01*
X116827341Y-98195106D01*
X116701314Y-98279314D01*
X116626000Y-98392030D01*
X116550686Y-98279314D01*
X116424659Y-98195106D01*
X116276000Y-98165536D01*
X116014464Y-98165536D01*
X116014464Y-97104000D01*
X115984894Y-96955341D01*
X115900686Y-96829314D01*
X115774659Y-96745106D01*
X115626000Y-96715536D01*
X112626000Y-96715536D01*
X112477341Y-96745106D01*
X112351314Y-96829314D01*
X112267106Y-96955341D01*
X112237536Y-97104000D01*
X112237536Y-99604000D01*
X112267106Y-99752659D01*
X112351314Y-99878686D01*
X112477341Y-99962894D01*
X112626000Y-99992464D01*
X115587536Y-99992464D01*
X115587536Y-100154000D01*
X115617106Y-100302659D01*
X115701314Y-100428686D01*
X115827341Y-100512894D01*
X115976000Y-100542464D01*
X116276000Y-100542464D01*
X116424659Y-100512894D01*
X116550686Y-100428686D01*
X116618001Y-100327942D01*
X116618001Y-100331389D01*
X116601449Y-100414600D01*
X116618000Y-100497811D01*
X116618000Y-100925680D01*
X116577969Y-100925680D01*
X116290919Y-101044580D01*
X116071220Y-101264279D01*
X115952320Y-101551329D01*
X115952320Y-101862031D01*
X116071220Y-102149081D01*
X116290919Y-102368780D01*
X116437197Y-102429370D01*
X116380168Y-102486400D01*
X109448383Y-102486400D01*
X109395597Y-102475900D01*
X109342812Y-102486400D01*
X109342811Y-102486400D01*
X109186462Y-102517500D01*
X109009164Y-102635966D01*
X108979264Y-102680716D01*
X106648196Y-105011784D01*
X106603447Y-105041684D01*
X106573547Y-105086433D01*
X106573545Y-105086435D01*
X106484981Y-105218982D01*
X106443380Y-105428118D01*
X106453881Y-105480908D01*
X106453880Y-113857061D01*
X106053076Y-114257866D01*
X106008327Y-114287766D01*
X105978427Y-114332515D01*
X105978425Y-114332517D01*
X105889861Y-114465064D01*
X105863868Y-114595736D01*
X105494760Y-114595736D01*
X105346101Y-114625306D01*
X105220074Y-114709514D01*
X105135866Y-114835541D01*
X105106296Y-114984200D01*
X105106296Y-116784200D01*
X105135866Y-116932859D01*
X105220074Y-117058886D01*
X105346101Y-117143094D01*
X105494760Y-117172664D01*
X105513761Y-117172664D01*
X105513761Y-117195736D01*
X105494760Y-117195736D01*
X105346101Y-117225306D01*
X105220074Y-117309514D01*
X105135866Y-117435541D01*
X105106296Y-117584200D01*
X105106296Y-119384200D01*
X105135866Y-119532859D01*
X105220074Y-119658886D01*
X105346101Y-119743094D01*
X105494760Y-119772664D01*
X105513760Y-119772664D01*
X105513760Y-119795736D01*
X105494760Y-119795736D01*
X105346101Y-119825306D01*
X105220074Y-119909514D01*
X105135866Y-120035541D01*
X105106296Y-120184200D01*
X105106296Y-121066902D01*
X104499199Y-121674000D01*
X96141845Y-121674000D01*
X96137501Y-121667499D01*
X95730312Y-121395424D01*
X95371239Y-121324000D01*
X95128761Y-121324000D01*
X94769688Y-121395424D01*
X94451001Y-121608364D01*
X94451001Y-120961636D01*
X94769688Y-121174576D01*
X95128761Y-121246000D01*
X95371239Y-121246000D01*
X95730312Y-121174576D01*
X96137501Y-120902501D01*
X96409576Y-120495312D01*
X96505116Y-120015000D01*
X96409576Y-119534688D01*
X96137501Y-119127499D01*
X95730312Y-118855424D01*
X95371239Y-118784000D01*
X95128761Y-118784000D01*
X94769688Y-118855424D01*
X94451001Y-119068364D01*
X94451001Y-118732786D01*
X94461501Y-118680001D01*
X94450518Y-118624786D01*
X94419901Y-118470865D01*
X94347495Y-118362501D01*
X94331336Y-118338317D01*
X94331335Y-118338316D01*
X94301435Y-118293567D01*
X94256686Y-118263667D01*
X93882642Y-117889624D01*
X93965116Y-117475000D01*
X93994884Y-117475000D01*
X94090424Y-117955312D01*
X94362499Y-118362501D01*
X94769688Y-118634576D01*
X95128761Y-118706000D01*
X95371239Y-118706000D01*
X95730312Y-118634576D01*
X96137501Y-118362501D01*
X96409576Y-117955312D01*
X96505116Y-117475000D01*
X96409576Y-116994688D01*
X96137501Y-116587499D01*
X95730312Y-116315424D01*
X95371239Y-116244000D01*
X95128761Y-116244000D01*
X94769688Y-116315424D01*
X94362499Y-116587499D01*
X94090424Y-116994688D01*
X93994884Y-117475000D01*
X93965116Y-117475000D01*
X93869576Y-116994688D01*
X93597501Y-116587499D01*
X93190312Y-116315424D01*
X92831239Y-116244000D01*
X92588761Y-116244000D01*
X92229688Y-116315424D01*
X91822499Y-116587499D01*
X91550424Y-116994688D01*
X91454884Y-117475000D01*
X91550424Y-117955312D01*
X91822499Y-118362501D01*
X92229688Y-118634576D01*
X92588761Y-118706000D01*
X92831239Y-118706000D01*
X93124624Y-118647642D01*
X93379001Y-118902020D01*
X93379001Y-118981502D01*
X93190312Y-118855424D01*
X92831239Y-118784000D01*
X92588761Y-118784000D01*
X92229688Y-118855424D01*
X91822499Y-119127499D01*
X91550424Y-119534688D01*
X91454884Y-120015000D01*
X91550424Y-120495312D01*
X91822499Y-120902501D01*
X92229688Y-121174576D01*
X92588761Y-121246000D01*
X92831239Y-121246000D01*
X93190312Y-121174576D01*
X93379001Y-121048498D01*
X93379001Y-121521502D01*
X93190312Y-121395424D01*
X92831239Y-121324000D01*
X92588761Y-121324000D01*
X92229688Y-121395424D01*
X91822499Y-121667499D01*
X91550424Y-122074688D01*
X91454884Y-122555000D01*
X91537358Y-122969624D01*
X91163317Y-123343665D01*
X91118565Y-123373567D01*
X91000099Y-123550866D01*
X90968999Y-123707214D01*
X90958499Y-123760001D01*
X90968999Y-123812787D01*
X90969000Y-126281182D01*
X85001662Y-132248520D01*
X82437772Y-132248520D01*
X82435254Y-132235861D01*
X82434358Y-132234520D01*
X82435254Y-132233179D01*
X82464824Y-132084520D01*
X82464824Y-131284520D01*
X82435254Y-131135861D01*
X82351046Y-131009834D01*
X82225019Y-130925626D01*
X82076360Y-130896056D01*
X80076360Y-130896056D01*
X79927701Y-130925626D01*
X79801674Y-131009834D01*
X79717466Y-131135861D01*
X79714824Y-131149143D01*
X79714824Y-130144520D01*
X79685254Y-129995861D01*
X79601046Y-129869834D01*
X79475019Y-129785626D01*
X79326360Y-129756056D01*
X77426360Y-129756056D01*
X77277701Y-129785626D01*
X77151674Y-129869834D01*
X77067466Y-129995861D01*
X77037896Y-130144520D01*
X77037896Y-131594520D01*
X77067466Y-131743179D01*
X77151674Y-131869206D01*
X77277701Y-131953414D01*
X77426360Y-131982984D01*
X79326360Y-131982984D01*
X79475019Y-131953414D01*
X79601046Y-131869206D01*
X79685254Y-131743179D01*
X79687896Y-131729897D01*
X79687896Y-132084520D01*
X79717466Y-132233179D01*
X79718362Y-132234520D01*
X79717466Y-132235861D01*
X79687896Y-132384520D01*
X79687896Y-133184520D01*
X79717466Y-133333179D01*
X79801674Y-133459206D01*
X79927701Y-133543414D01*
X80076360Y-133572984D01*
X82076360Y-133572984D01*
X82225019Y-133543414D01*
X82351046Y-133459206D01*
X82435254Y-133333179D01*
X82437772Y-133320520D01*
X85170895Y-133320520D01*
X85223680Y-133331020D01*
X85276465Y-133320520D01*
X85276467Y-133320520D01*
X85432816Y-133289420D01*
X85610114Y-133170954D01*
X85640016Y-133126202D01*
X90923160Y-127843058D01*
X90923160Y-128054511D01*
X91042060Y-128341561D01*
X91261759Y-128561260D01*
X91548809Y-128680160D01*
X91859511Y-128680160D01*
X92146561Y-128561260D01*
X92366260Y-128341561D01*
X92485160Y-128054511D01*
X92485160Y-127861260D01*
X94256685Y-126089735D01*
X94301435Y-126059835D01*
X94342551Y-125998301D01*
X94363772Y-125966541D01*
X94419901Y-125882537D01*
X94451001Y-125726188D01*
X94451001Y-125726187D01*
X94461501Y-125673402D01*
X94451001Y-125620616D01*
X94451001Y-123501636D01*
X94769688Y-123714576D01*
X95128761Y-123786000D01*
X95235079Y-123786000D01*
X98423600Y-126974522D01*
X98423600Y-127017856D01*
X98404600Y-127017856D01*
X98304600Y-127037747D01*
X98204600Y-127017856D01*
X96404600Y-127017856D01*
X96255941Y-127047426D01*
X96129914Y-127131634D01*
X96045706Y-127257661D01*
X96016136Y-127406320D01*
X96016136Y-127775427D01*
X95885463Y-127801420D01*
X95817821Y-127846617D01*
X95708166Y-127919886D01*
X95678264Y-127964638D01*
X93262222Y-130380680D01*
X89727581Y-130380680D01*
X89601481Y-130254580D01*
X89314431Y-130135680D01*
X89003729Y-130135680D01*
X88716679Y-130254580D01*
X88496980Y-130474279D01*
X88378080Y-130761329D01*
X88378080Y-131072031D01*
X88496980Y-131359081D01*
X88716679Y-131578780D01*
X89003729Y-131697680D01*
X89314431Y-131697680D01*
X89601481Y-131578780D01*
X89727581Y-131452680D01*
X90637212Y-131452680D01*
X90551674Y-131509834D01*
X90467466Y-131635861D01*
X90437896Y-131784520D01*
X90437896Y-133584520D01*
X90467466Y-133733179D01*
X90551674Y-133859206D01*
X90677701Y-133943414D01*
X90826360Y-133972984D01*
X92226360Y-133972984D01*
X92375019Y-133943414D01*
X92501046Y-133859206D01*
X92585254Y-133733179D01*
X92614824Y-133584520D01*
X92614824Y-131784520D01*
X92585254Y-131635861D01*
X92501046Y-131509834D01*
X92415508Y-131452680D01*
X93431455Y-131452680D01*
X93484240Y-131463180D01*
X93537025Y-131452680D01*
X93537027Y-131452680D01*
X93693376Y-131421580D01*
X93870674Y-131303114D01*
X93900576Y-131258362D01*
X96016136Y-129142802D01*
X96016136Y-129206320D01*
X96045706Y-129354979D01*
X96129914Y-129481006D01*
X96255941Y-129565214D01*
X96404600Y-129594784D01*
X98204600Y-129594784D01*
X98304600Y-129574893D01*
X98404600Y-129594784D01*
X98423601Y-129594784D01*
X98423601Y-130039811D01*
X93558656Y-134904757D01*
X93485095Y-134953909D01*
X93318311Y-135203520D01*
X82464824Y-135203520D01*
X82464824Y-134584520D01*
X82435254Y-134435861D01*
X82351046Y-134309834D01*
X82225019Y-134225626D01*
X82076360Y-134196056D01*
X80076360Y-134196056D01*
X79927701Y-134225626D01*
X79801674Y-134309834D01*
X79717466Y-134435861D01*
X79687896Y-134584520D01*
X79687896Y-135384520D01*
X79717466Y-135533179D01*
X79718362Y-135534520D01*
X79717466Y-135535861D01*
X79687896Y-135684520D01*
X79687896Y-136484520D01*
X79717466Y-136633179D01*
X79718362Y-136634520D01*
X79717466Y-136635861D01*
X79687896Y-136784520D01*
X79687896Y-137584520D01*
X79717466Y-137733179D01*
X79718362Y-137734520D01*
X79717466Y-137735861D01*
X79687896Y-137884520D01*
X79687896Y-138684520D01*
X79717466Y-138833179D01*
X79718362Y-138834520D01*
X79717466Y-138835861D01*
X79687896Y-138984520D01*
X79687896Y-139784520D01*
X79717466Y-139933179D01*
X79801674Y-140059206D01*
X79927701Y-140143414D01*
X80076360Y-140172984D01*
X82076360Y-140172984D01*
X82225019Y-140143414D01*
X82351046Y-140059206D01*
X82435254Y-139933179D01*
X82464824Y-139784520D01*
X82464824Y-139121002D01*
X86274505Y-142930683D01*
X86304407Y-142975435D01*
X86442753Y-143067874D01*
X86481703Y-143093900D01*
X86481704Y-143093900D01*
X86481705Y-143093901D01*
X86638054Y-143125001D01*
X86638058Y-143125001D01*
X86690840Y-143135500D01*
X86743622Y-143125001D01*
X113565694Y-143125001D01*
X113618479Y-143135501D01*
X113671264Y-143125001D01*
X113671266Y-143125001D01*
X113827615Y-143093901D01*
X114004913Y-142975435D01*
X114022938Y-142948459D01*
X114049914Y-142930434D01*
X114168380Y-142753136D01*
X114194372Y-142622464D01*
X114563480Y-142622464D01*
X114712139Y-142592894D01*
X114838166Y-142508686D01*
X114922374Y-142382659D01*
X114951944Y-142234000D01*
X114951944Y-140434000D01*
X114932053Y-140334000D01*
X114951944Y-140234000D01*
X114951944Y-138434000D01*
X114932053Y-138334000D01*
X114951944Y-138234000D01*
X114951944Y-136434000D01*
X114932053Y-136334000D01*
X114951944Y-136234000D01*
X114951944Y-134434000D01*
X114932053Y-134334000D01*
X114951944Y-134234000D01*
X114951944Y-132434000D01*
X114922374Y-132285341D01*
X114838166Y-132159314D01*
X114712139Y-132075106D01*
X114563480Y-132045536D01*
X114544480Y-132045536D01*
X114544480Y-131520767D01*
X114561739Y-131434000D01*
X114493363Y-131090251D01*
X114420941Y-130981864D01*
X114298645Y-130798835D01*
X114225088Y-130749686D01*
X112898297Y-129422895D01*
X112849145Y-129349335D01*
X112557729Y-129154617D01*
X112300747Y-129103500D01*
X112300743Y-129103500D01*
X112213980Y-129086242D01*
X112127217Y-129103500D01*
X107634733Y-129103500D01*
X107546574Y-129121036D01*
X107502750Y-129121036D01*
X107270379Y-129167257D01*
X107073385Y-129298885D01*
X106941757Y-129495879D01*
X106934000Y-129534876D01*
X106926243Y-129495879D01*
X106794615Y-129298885D01*
X106597621Y-129167257D01*
X106569606Y-129161685D01*
X105152637Y-127744716D01*
X105103485Y-127671155D01*
X104812069Y-127476437D01*
X104555087Y-127425320D01*
X104555083Y-127425320D01*
X104468320Y-127408062D01*
X104381557Y-127425320D01*
X100593064Y-127425320D01*
X100593064Y-127406320D01*
X100563494Y-127257661D01*
X100479286Y-127131634D01*
X100353259Y-127047426D01*
X100204600Y-127017856D01*
X100185600Y-127017856D01*
X100185600Y-126696361D01*
X100202858Y-126609599D01*
X100185600Y-126522838D01*
X100185600Y-126522833D01*
X100134483Y-126265851D01*
X99939765Y-125974435D01*
X99866208Y-125925286D01*
X97376921Y-123436000D01*
X104777357Y-123436000D01*
X104864120Y-123453258D01*
X104894040Y-123447307D01*
X104923960Y-123453258D01*
X105010723Y-123436000D01*
X105010727Y-123436000D01*
X105267709Y-123384883D01*
X105559125Y-123190165D01*
X105608277Y-123116605D01*
X106352218Y-122372664D01*
X107294760Y-122372664D01*
X107394760Y-122352773D01*
X107494760Y-122372664D01*
X109294760Y-122372664D01*
X109443419Y-122343094D01*
X109569446Y-122258886D01*
X109653654Y-122132859D01*
X109683224Y-121984200D01*
X109683224Y-120324880D01*
X112749342Y-120324880D01*
X112799370Y-120334831D01*
X112849398Y-120324880D01*
X112849402Y-120324880D01*
X112997582Y-120295405D01*
X113165617Y-120183127D01*
X113193958Y-120140712D01*
X115347786Y-117986885D01*
X115347786Y-118009000D01*
X115367677Y-118109000D01*
X115347786Y-118209000D01*
X115347786Y-118659000D01*
X115367677Y-118759000D01*
X115347786Y-118859000D01*
X115347786Y-119309000D01*
X115367677Y-119409000D01*
X115347786Y-119509000D01*
X115347786Y-119959000D01*
X115377356Y-120107659D01*
X115461564Y-120233686D01*
X115587591Y-120317894D01*
X115736250Y-120347464D01*
X117211250Y-120347464D01*
X117359909Y-120317894D01*
X117460126Y-120250932D01*
X117465250Y-120251951D01*
X117515278Y-120242000D01*
X117515282Y-120242000D01*
X117663462Y-120212525D01*
X117831497Y-120100247D01*
X117859838Y-120057832D01*
X119057631Y-118860039D01*
X119071408Y-118869244D01*
X120909998Y-120707835D01*
X120938337Y-120750247D01*
X120980749Y-120778586D01*
X120980751Y-120778588D01*
X121106372Y-120862525D01*
X121254552Y-120892000D01*
X121254555Y-120892000D01*
X121304583Y-120901951D01*
X121351063Y-120892706D01*
X121463591Y-120967894D01*
X121612250Y-120997464D01*
X123087250Y-120997464D01*
X123235909Y-120967894D01*
X123361936Y-120883686D01*
X123446144Y-120757659D01*
X123475714Y-120609000D01*
X123475714Y-120159000D01*
X123455823Y-120059000D01*
X123475714Y-119959000D01*
X123475714Y-119509000D01*
X123455823Y-119409000D01*
X123475714Y-119309000D01*
X123475714Y-118859000D01*
X123455823Y-118759000D01*
X123475714Y-118659000D01*
X123475714Y-118320000D01*
X129899736Y-118320000D01*
X129899736Y-118783680D01*
X129919627Y-118883680D01*
X129899736Y-118983680D01*
X129899736Y-120783680D01*
X129929306Y-120932339D01*
X130013514Y-121058366D01*
X130139541Y-121142574D01*
X130288200Y-121172144D01*
X132088200Y-121172144D01*
X132188200Y-121152253D01*
X132288200Y-121172144D01*
X134088200Y-121172144D01*
X134236859Y-121142574D01*
X134362886Y-121058366D01*
X134447094Y-120932339D01*
X134476664Y-120783680D01*
X134476664Y-118983680D01*
X134456773Y-118883680D01*
X134476664Y-118783680D01*
X134476664Y-116983680D01*
X134456773Y-116883680D01*
X134476664Y-116783680D01*
X134476664Y-114983680D01*
X134447094Y-114835021D01*
X134362886Y-114708994D01*
X134236859Y-114624786D01*
X134088200Y-114595216D01*
X132288200Y-114595216D01*
X132188200Y-114615107D01*
X132088200Y-114595216D01*
X131966688Y-114595216D01*
X132785045Y-113776860D01*
X134306622Y-113776860D01*
X134315385Y-113789975D01*
X134512379Y-113921603D01*
X134744750Y-113967824D01*
X135257250Y-113967824D01*
X135489621Y-113921603D01*
X135686615Y-113789975D01*
X135818243Y-113592981D01*
X135864464Y-113360610D01*
X135864464Y-112923110D01*
X135818243Y-112690739D01*
X135686615Y-112493745D01*
X135489621Y-112362117D01*
X135450624Y-112354360D01*
X135489621Y-112346603D01*
X135686615Y-112214975D01*
X135818243Y-112017981D01*
X135832529Y-111946159D01*
X135856283Y-111910609D01*
X135924659Y-111566860D01*
X135856283Y-111223111D01*
X135832529Y-111187561D01*
X135818243Y-111115739D01*
X135686615Y-110918745D01*
X135489621Y-110787117D01*
X135426355Y-110774533D01*
X135370149Y-110736977D01*
X135113167Y-110685860D01*
X128000799Y-110685860D01*
X127889000Y-110663622D01*
X127545252Y-110731997D01*
X127253835Y-110926715D01*
X127059117Y-111218132D01*
X126990742Y-111561880D01*
X127059117Y-111905628D01*
X127204686Y-112123487D01*
X127209663Y-112128464D01*
X127258815Y-112202025D01*
X127550231Y-112396743D01*
X127807213Y-112447860D01*
X127893980Y-112465119D01*
X127980747Y-112447860D01*
X134384056Y-112447860D01*
X134315385Y-112493745D01*
X134306622Y-112506860D01*
X132584555Y-112506860D01*
X132522019Y-112494421D01*
X132459484Y-112506860D01*
X132459479Y-112506860D01*
X132274255Y-112543703D01*
X132064211Y-112684051D01*
X132028784Y-112737072D01*
X130783414Y-113982442D01*
X130730391Y-114017871D01*
X130590043Y-114227916D01*
X130553200Y-114413140D01*
X130553200Y-114413143D01*
X130540761Y-114475680D01*
X130553200Y-114538217D01*
X130553200Y-114595216D01*
X130288200Y-114595216D01*
X130139541Y-114624786D01*
X130013514Y-114708994D01*
X129929306Y-114835021D01*
X129899736Y-114983680D01*
X129899736Y-116783680D01*
X129919627Y-116883680D01*
X129899736Y-116983680D01*
X129899736Y-117248000D01*
X124041268Y-117248000D01*
X126727005Y-114562264D01*
X126771754Y-114532364D01*
X126816422Y-114465514D01*
X126848669Y-114417252D01*
X126890220Y-114355066D01*
X126921320Y-114198717D01*
X126921320Y-114198716D01*
X126931820Y-114145931D01*
X126921320Y-114093145D01*
X126921320Y-110879658D01*
X127222019Y-110578960D01*
X138827742Y-110578960D01*
X142190465Y-113941683D01*
X142220367Y-113986435D01*
X142397665Y-114104901D01*
X142554014Y-114136001D01*
X142554015Y-114136001D01*
X142562267Y-114137642D01*
X142350424Y-114454688D01*
X142254884Y-114935000D01*
X142350424Y-115415312D01*
X142622499Y-115822501D01*
X143029688Y-116094576D01*
X143388761Y-116166000D01*
X143631239Y-116166000D01*
X143990312Y-116094576D01*
X144397501Y-115822501D01*
X144669576Y-115415312D01*
X144765116Y-114935000D01*
X144669576Y-114454688D01*
X144397501Y-114047499D01*
X144390473Y-114042803D01*
X144474835Y-113986435D01*
X144504737Y-113941683D01*
X145056686Y-113389735D01*
X145101435Y-113359835D01*
X145157803Y-113275473D01*
X145162499Y-113282501D01*
X145569688Y-113554576D01*
X145928761Y-113626000D01*
X146171239Y-113626000D01*
X146530312Y-113554576D01*
X146719001Y-113428498D01*
X146719001Y-113901502D01*
X146530312Y-113775424D01*
X146171239Y-113704000D01*
X145928761Y-113704000D01*
X145569688Y-113775424D01*
X145162499Y-114047499D01*
X144890424Y-114454688D01*
X144794884Y-114935000D01*
X144883928Y-115382652D01*
X144549167Y-115717413D01*
X144506752Y-115745754D01*
X144478412Y-115788168D01*
X144478411Y-115788169D01*
X144425378Y-115867539D01*
X144394474Y-115913790D01*
X144364999Y-116061970D01*
X144364999Y-116061973D01*
X144355048Y-116112001D01*
X144364999Y-116162029D01*
X144364999Y-116565782D01*
X143990312Y-116315424D01*
X143631239Y-116244000D01*
X143388761Y-116244000D01*
X143029688Y-116315424D01*
X142622499Y-116587499D01*
X142368925Y-116967000D01*
X141045428Y-116967000D01*
X140995400Y-116957049D01*
X140945372Y-116967000D01*
X140945368Y-116967000D01*
X140806172Y-116994688D01*
X140797188Y-116996475D01*
X140671567Y-117080412D01*
X140671565Y-117080414D01*
X140629153Y-117108753D01*
X140600814Y-117151165D01*
X125279168Y-132472812D01*
X125236753Y-132501153D01*
X125124475Y-132669189D01*
X125095000Y-132817369D01*
X125095000Y-132817372D01*
X125085049Y-132867400D01*
X125095000Y-132917428D01*
X125095001Y-139462007D01*
X125085049Y-139512040D01*
X125124475Y-139710251D01*
X125208412Y-139835872D01*
X125208415Y-139835875D01*
X125236754Y-139878287D01*
X125279166Y-139906626D01*
X127225172Y-141852632D01*
X127253513Y-141895047D01*
X127421548Y-142007325D01*
X127569728Y-142036800D01*
X127569731Y-142036800D01*
X127619759Y-142046751D01*
X127669787Y-142036800D01*
X129616972Y-142036800D01*
X129667000Y-142046751D01*
X129717028Y-142036800D01*
X129717032Y-142036800D01*
X129865212Y-142007325D01*
X130033247Y-141895047D01*
X130061588Y-141852632D01*
X130710673Y-141203547D01*
X130753087Y-141175207D01*
X130865365Y-141007172D01*
X130894840Y-140858992D01*
X130894840Y-140858988D01*
X130904791Y-140808961D01*
X130894840Y-140758934D01*
X130894840Y-140272464D01*
X131286840Y-140272464D01*
X131435499Y-140242894D01*
X131561526Y-140158686D01*
X131645734Y-140032659D01*
X131675304Y-139884000D01*
X131675304Y-138084000D01*
X131655413Y-137984000D01*
X131675304Y-137884000D01*
X131675304Y-137475205D01*
X131739052Y-137462525D01*
X131907087Y-137350247D01*
X131935428Y-137307832D01*
X134004036Y-135239225D01*
X134046447Y-135210887D01*
X134074786Y-135168475D01*
X134074788Y-135168473D01*
X134158725Y-135042852D01*
X134175500Y-134958517D01*
X134188200Y-134894672D01*
X134188200Y-134894668D01*
X134198151Y-134844640D01*
X134188200Y-134794612D01*
X134188200Y-130111100D01*
X142599300Y-121700001D01*
X142600782Y-121700001D01*
X142350424Y-122074688D01*
X142254884Y-122555000D01*
X142256409Y-122562669D01*
X136826896Y-127992183D01*
X136753335Y-128041335D01*
X136558617Y-128332752D01*
X136507500Y-128589734D01*
X136507500Y-128589737D01*
X136490242Y-128676500D01*
X136507500Y-128763263D01*
X136507501Y-133644229D01*
X136507500Y-133644234D01*
X136507501Y-134640013D01*
X136490242Y-134726780D01*
X136558617Y-135070528D01*
X136633242Y-135182212D01*
X136753336Y-135361945D01*
X136826894Y-135411095D01*
X141221640Y-139805842D01*
X141221640Y-139929157D01*
X141204382Y-140015920D01*
X141221640Y-140102683D01*
X141221640Y-140102687D01*
X141272757Y-140359669D01*
X141467476Y-140651085D01*
X141541033Y-140700235D01*
X142814365Y-141973567D01*
X142863515Y-142047125D01*
X142937072Y-142096274D01*
X143154931Y-142241843D01*
X143498680Y-142310219D01*
X143585447Y-142292960D01*
X152003437Y-142292960D01*
X152090200Y-142310218D01*
X152176963Y-142292960D01*
X152176967Y-142292960D01*
X152433949Y-142241843D01*
X152546593Y-142166576D01*
X155273600Y-142166576D01*
X155273600Y-142933184D01*
X155566968Y-143641438D01*
X156109042Y-144183512D01*
X156817296Y-144476880D01*
X157583904Y-144476880D01*
X158292158Y-144183512D01*
X158834232Y-143641438D01*
X159127600Y-142933184D01*
X159127600Y-142166576D01*
X158834232Y-141458322D01*
X158292158Y-140916248D01*
X157583904Y-140622880D01*
X156817296Y-140622880D01*
X156109042Y-140916248D01*
X155566968Y-141458322D01*
X155273600Y-142166576D01*
X152546593Y-142166576D01*
X152725365Y-142047125D01*
X152774517Y-141973565D01*
X153788888Y-140959194D01*
X153862445Y-140910045D01*
X154057163Y-140618629D01*
X154108280Y-140361647D01*
X154108280Y-140361643D01*
X154125538Y-140274880D01*
X154108280Y-140188117D01*
X154108280Y-139663344D01*
X154127280Y-139663344D01*
X154275939Y-139633774D01*
X154401966Y-139549566D01*
X154486174Y-139423539D01*
X154515744Y-139274880D01*
X154515744Y-137474880D01*
X154495853Y-137374880D01*
X154515744Y-137274880D01*
X154515744Y-135474880D01*
X154495853Y-135374880D01*
X154515744Y-135274880D01*
X154515744Y-133474880D01*
X154486174Y-133326221D01*
X154401966Y-133200194D01*
X154275939Y-133115986D01*
X154127280Y-133086416D01*
X152327280Y-133086416D01*
X152178621Y-133115986D01*
X152052594Y-133200194D01*
X151968386Y-133326221D01*
X151938816Y-133474880D01*
X151938816Y-135274880D01*
X151958707Y-135374880D01*
X151938816Y-135474880D01*
X151938816Y-135838880D01*
X143550897Y-135838880D01*
X143083980Y-135371964D01*
X143876500Y-135371964D01*
X144025159Y-135342394D01*
X144151186Y-135258186D01*
X144235394Y-135132159D01*
X144264964Y-134983500D01*
X144264964Y-134383500D01*
X144235394Y-134234841D01*
X144151186Y-134108814D01*
X144025159Y-134024606D01*
X143944500Y-134008562D01*
X143944500Y-131951528D01*
X144056615Y-131876615D01*
X144188243Y-131679621D01*
X144234464Y-131447250D01*
X144234464Y-130934750D01*
X144188243Y-130702379D01*
X144056615Y-130505385D01*
X143859621Y-130373757D01*
X143627250Y-130327536D01*
X143415384Y-130327536D01*
X147550833Y-126192087D01*
X147593248Y-126163746D01*
X147705526Y-125995711D01*
X147735001Y-125847531D01*
X147735001Y-125847528D01*
X147744952Y-125797500D01*
X147735001Y-125747472D01*
X147735001Y-106800066D01*
X147744952Y-106750038D01*
X147735001Y-106700008D01*
X147735001Y-106700007D01*
X147705526Y-106551827D01*
X147688021Y-106525629D01*
X147621589Y-106426206D01*
X147621587Y-106426204D01*
X147593248Y-106383792D01*
X147550836Y-106355453D01*
X147009549Y-105814167D01*
X146981208Y-105771752D01*
X146813173Y-105659474D01*
X146664993Y-105629999D01*
X146664989Y-105629999D01*
X146614961Y-105620048D01*
X146564933Y-105629999D01*
X142448426Y-105629999D01*
X142398398Y-105620048D01*
X142348370Y-105629999D01*
X142348367Y-105629999D01*
X142200187Y-105659474D01*
X142032152Y-105771752D01*
X142003811Y-105814167D01*
X141323977Y-106494001D01*
X138666819Y-106494001D01*
X139093738Y-106067082D01*
X139441000Y-105228719D01*
X139441000Y-105150367D01*
X139522078Y-105204542D01*
X139700000Y-105239933D01*
X139744909Y-105231000D01*
X148134001Y-105231000D01*
X148134000Y-125685091D01*
X148125067Y-125730000D01*
X148160458Y-125907922D01*
X148232062Y-126015085D01*
X148261243Y-126058757D01*
X148412078Y-126159542D01*
X148590000Y-126194933D01*
X148634909Y-126186000D01*
X162104001Y-126186000D01*
X162104000Y-145594000D01*
X120309318Y-145594000D01*
X120672082Y-145443738D01*
X121313738Y-144802082D01*
X121661000Y-143963719D01*
X121661000Y-143056281D01*
X121313738Y-142217918D01*
X120672082Y-141576262D01*
X119833719Y-141229000D01*
X118926281Y-141229000D01*
X118087918Y-141576262D01*
X117446262Y-142217918D01*
X117099000Y-143056281D01*
X117099000Y-143963719D01*
X117446262Y-144802082D01*
X118087918Y-145443738D01*
X118450682Y-145594000D01*
X76656000Y-145594000D01*
X76656000Y-145182984D01*
X78326360Y-145182984D01*
X78475019Y-145153414D01*
X78601046Y-145069206D01*
X78685254Y-144943179D01*
X78714824Y-144794520D01*
X78714824Y-143344520D01*
X78685254Y-143195861D01*
X78601046Y-143069834D01*
X78475019Y-142985626D01*
X78326360Y-142956056D01*
X76656000Y-142956056D01*
X76656000Y-127813750D01*
X78196536Y-127813750D01*
X78196536Y-128726250D01*
X78244660Y-128968188D01*
X78381707Y-129173293D01*
X78586812Y-129310340D01*
X78828750Y-129358464D01*
X79316250Y-129358464D01*
X79558188Y-129310340D01*
X79763293Y-129173293D01*
X79900340Y-128968188D01*
X79948464Y-128726250D01*
X79948464Y-127813750D01*
X80071536Y-127813750D01*
X80071536Y-128726250D01*
X80119660Y-128968188D01*
X80256707Y-129173293D01*
X80461812Y-129310340D01*
X80703750Y-129358464D01*
X81191250Y-129358464D01*
X81433188Y-129310340D01*
X81638293Y-129173293D01*
X81775340Y-128968188D01*
X81807601Y-128806000D01*
X83236915Y-128806000D01*
X83336885Y-128955615D01*
X83533879Y-129087243D01*
X83766250Y-129133464D01*
X84203750Y-129133464D01*
X84436121Y-129087243D01*
X84633115Y-128955615D01*
X84764743Y-128758621D01*
X84810964Y-128526250D01*
X84810964Y-128013750D01*
X84764743Y-127781379D01*
X84633115Y-127584385D01*
X84436121Y-127452757D01*
X84203750Y-127406536D01*
X83766250Y-127406536D01*
X83533879Y-127452757D01*
X83336885Y-127584385D01*
X83236915Y-127734000D01*
X81807601Y-127734000D01*
X81775340Y-127571812D01*
X81638293Y-127366707D01*
X81433188Y-127229660D01*
X81191250Y-127181536D01*
X80703750Y-127181536D01*
X80461812Y-127229660D01*
X80256707Y-127366707D01*
X80119660Y-127571812D01*
X80071536Y-127813750D01*
X79948464Y-127813750D01*
X79900340Y-127571812D01*
X79763293Y-127366707D01*
X79558188Y-127229660D01*
X79316250Y-127181536D01*
X78828750Y-127181536D01*
X78586812Y-127229660D01*
X78381707Y-127366707D01*
X78244660Y-127571812D01*
X78196536Y-127813750D01*
X76656000Y-127813750D01*
X76656000Y-126186000D01*
X90125091Y-126186000D01*
X90170000Y-126194933D01*
X90214909Y-126186000D01*
X90347922Y-126159542D01*
X90498757Y-126058757D01*
X90599542Y-125907922D01*
X90634933Y-125730000D01*
X90626000Y-125685091D01*
X90626000Y-114935000D01*
X91454884Y-114935000D01*
X91550424Y-115415312D01*
X91822499Y-115822501D01*
X92229688Y-116094576D01*
X92588761Y-116166000D01*
X92831239Y-116166000D01*
X93190312Y-116094576D01*
X93597501Y-115822501D01*
X93869576Y-115415312D01*
X93965116Y-114935000D01*
X93994884Y-114935000D01*
X94090424Y-115415312D01*
X94362499Y-115822501D01*
X94769688Y-116094576D01*
X95128761Y-116166000D01*
X95371239Y-116166000D01*
X95730312Y-116094576D01*
X96137501Y-115822501D01*
X96409576Y-115415312D01*
X96505116Y-114935000D01*
X96409576Y-114454688D01*
X96137501Y-114047499D01*
X95730312Y-113775424D01*
X95371239Y-113704000D01*
X95128761Y-113704000D01*
X94769688Y-113775424D01*
X94362499Y-114047499D01*
X94090424Y-114454688D01*
X93994884Y-114935000D01*
X93965116Y-114935000D01*
X93869576Y-114454688D01*
X93597501Y-114047499D01*
X93190312Y-113775424D01*
X92831239Y-113704000D01*
X92588761Y-113704000D01*
X92229688Y-113775424D01*
X91822499Y-114047499D01*
X91550424Y-114454688D01*
X91454884Y-114935000D01*
X90626000Y-114935000D01*
X90626000Y-112395000D01*
X91454884Y-112395000D01*
X91550424Y-112875312D01*
X91822499Y-113282501D01*
X92229688Y-113554576D01*
X92588761Y-113626000D01*
X92831239Y-113626000D01*
X93190312Y-113554576D01*
X93597501Y-113282501D01*
X93869576Y-112875312D01*
X93965116Y-112395000D01*
X93994884Y-112395000D01*
X94090424Y-112875312D01*
X94362499Y-113282501D01*
X94769688Y-113554576D01*
X95128761Y-113626000D01*
X95371239Y-113626000D01*
X95730312Y-113554576D01*
X96137501Y-113282501D01*
X96409576Y-112875312D01*
X96505116Y-112395000D01*
X96409576Y-111914688D01*
X96137501Y-111507499D01*
X95730312Y-111235424D01*
X95371239Y-111164000D01*
X95128761Y-111164000D01*
X94769688Y-111235424D01*
X94362499Y-111507499D01*
X94090424Y-111914688D01*
X93994884Y-112395000D01*
X93965116Y-112395000D01*
X93869576Y-111914688D01*
X93597501Y-111507499D01*
X93190312Y-111235424D01*
X92831239Y-111164000D01*
X92588761Y-111164000D01*
X92229688Y-111235424D01*
X91822499Y-111507499D01*
X91550424Y-111914688D01*
X91454884Y-112395000D01*
X90626000Y-112395000D01*
X90626000Y-105231000D01*
X99015091Y-105231000D01*
X99060000Y-105239933D01*
X99104909Y-105231000D01*
X99237922Y-105204542D01*
X99319000Y-105150367D01*
X99319000Y-105228719D01*
X99666262Y-106067082D01*
X100307918Y-106708738D01*
X101146281Y-107056000D01*
X102053719Y-107056000D01*
X102892082Y-106708738D01*
X103533738Y-106067082D01*
X103881000Y-105228719D01*
X103881000Y-104321281D01*
X103533738Y-103482918D01*
X102892082Y-102841262D01*
X102053719Y-102494000D01*
X101146281Y-102494000D01*
X100307918Y-102841262D01*
X99666262Y-103482918D01*
X99516000Y-103845682D01*
X99516000Y-97609896D01*
X101136040Y-97609896D01*
X101136040Y-98376504D01*
X101429408Y-99084758D01*
X101971482Y-99626832D01*
X102679736Y-99920200D01*
X103446344Y-99920200D01*
X104154598Y-99626832D01*
X104696672Y-99084758D01*
X104990040Y-98376504D01*
X104990040Y-97609896D01*
X104696672Y-96901642D01*
X104154598Y-96359568D01*
X103446344Y-96066200D01*
X102679736Y-96066200D01*
X101971482Y-96359568D01*
X101429408Y-96901642D01*
X101136040Y-97609896D01*
X99516000Y-97609896D01*
X99516000Y-95071000D01*
X139244001Y-95071000D01*
X139244000Y-103845682D01*
G36*
X105361185Y-130445107D02*
X105366757Y-130473121D01*
X105498385Y-130670115D01*
X105695379Y-130801743D01*
X105927750Y-130847964D01*
X105971574Y-130847964D01*
X106146500Y-130882759D01*
X106321426Y-130847964D01*
X106365250Y-130847964D01*
X106597621Y-130801743D01*
X106794615Y-130670115D01*
X106926243Y-130473121D01*
X106934000Y-130434124D01*
X106941757Y-130473121D01*
X107073385Y-130670115D01*
X107270379Y-130801743D01*
X107502750Y-130847964D01*
X107546574Y-130847964D01*
X107634733Y-130865500D01*
X111849059Y-130865500D01*
X112782480Y-131798922D01*
X112782480Y-132045536D01*
X112763480Y-132045536D01*
X112663480Y-132065427D01*
X112563480Y-132045536D01*
X110763480Y-132045536D01*
X110614821Y-132075106D01*
X110488794Y-132159314D01*
X110404586Y-132285341D01*
X110375016Y-132434000D01*
X110375016Y-134234000D01*
X110394907Y-134334000D01*
X110375016Y-134434000D01*
X110375016Y-136234000D01*
X110394907Y-136334000D01*
X110375016Y-136434000D01*
X110375016Y-138234000D01*
X110394907Y-138334000D01*
X110375016Y-138434000D01*
X110375016Y-140234000D01*
X110394907Y-140334000D01*
X110375016Y-140434000D01*
X110375016Y-142053001D01*
X86912859Y-142053001D01*
X82802696Y-137942838D01*
X82772794Y-137898086D01*
X82595496Y-137779620D01*
X82439147Y-137748520D01*
X82439145Y-137748520D01*
X82437715Y-137748236D01*
X82435254Y-137735861D01*
X82434358Y-137734520D01*
X82435254Y-137733179D01*
X82437772Y-137720520D01*
X83795222Y-137720520D01*
X87406706Y-141332005D01*
X87436606Y-141376754D01*
X87481355Y-141406654D01*
X87481356Y-141406655D01*
X87529900Y-141439091D01*
X87613904Y-141495220D01*
X87770253Y-141526320D01*
X87770254Y-141526320D01*
X87823040Y-141536820D01*
X87875825Y-141526320D01*
X94159115Y-141526320D01*
X94211900Y-141536820D01*
X94264685Y-141526320D01*
X94264687Y-141526320D01*
X94421036Y-141495220D01*
X94598334Y-141376754D01*
X94628236Y-141332002D01*
X95589815Y-140370424D01*
X95914010Y-140370424D01*
X96146381Y-140324203D01*
X96343375Y-140192575D01*
X96475003Y-139995581D01*
X96521224Y-139763210D01*
X96521224Y-139250710D01*
X96475003Y-139018339D01*
X96343375Y-138821345D01*
X96146381Y-138689717D01*
X95914010Y-138643496D01*
X95476510Y-138643496D01*
X95244139Y-138689717D01*
X95047145Y-138821345D01*
X95001260Y-138890016D01*
X95001260Y-138329981D01*
X95046224Y-138103930D01*
X95046224Y-137191430D01*
X95001260Y-136965379D01*
X95001260Y-136405344D01*
X95047145Y-136474015D01*
X95244139Y-136605643D01*
X95476510Y-136651864D01*
X95914010Y-136651864D01*
X96146381Y-136605643D01*
X96343375Y-136474015D01*
X96475003Y-136277021D01*
X96521224Y-136044650D01*
X96521224Y-135532150D01*
X96475003Y-135299779D01*
X96343375Y-135102785D01*
X96146381Y-134971157D01*
X96011022Y-134944233D01*
X99866207Y-131089049D01*
X99939765Y-131039899D01*
X100134483Y-130748483D01*
X100185600Y-130491501D01*
X100185600Y-130491497D01*
X100202858Y-130404734D01*
X100185600Y-130317971D01*
X100185600Y-129594784D01*
X100204600Y-129594784D01*
X100353259Y-129565214D01*
X100479286Y-129481006D01*
X100563494Y-129354979D01*
X100593064Y-129206320D01*
X100593064Y-129187320D01*
X104103399Y-129187320D01*
X105361185Y-130445107D01*
X105361185Y-130445107D01*
G37*
X105361185Y-130445107D02*
X105366757Y-130473121D01*
X105498385Y-130670115D01*
X105695379Y-130801743D01*
X105927750Y-130847964D01*
X105971574Y-130847964D01*
X106146500Y-130882759D01*
X106321426Y-130847964D01*
X106365250Y-130847964D01*
X106597621Y-130801743D01*
X106794615Y-130670115D01*
X106926243Y-130473121D01*
X106934000Y-130434124D01*
X106941757Y-130473121D01*
X107073385Y-130670115D01*
X107270379Y-130801743D01*
X107502750Y-130847964D01*
X107546574Y-130847964D01*
X107634733Y-130865500D01*
X111849059Y-130865500D01*
X112782480Y-131798922D01*
X112782480Y-132045536D01*
X112763480Y-132045536D01*
X112663480Y-132065427D01*
X112563480Y-132045536D01*
X110763480Y-132045536D01*
X110614821Y-132075106D01*
X110488794Y-132159314D01*
X110404586Y-132285341D01*
X110375016Y-132434000D01*
X110375016Y-134234000D01*
X110394907Y-134334000D01*
X110375016Y-134434000D01*
X110375016Y-136234000D01*
X110394907Y-136334000D01*
X110375016Y-136434000D01*
X110375016Y-138234000D01*
X110394907Y-138334000D01*
X110375016Y-138434000D01*
X110375016Y-140234000D01*
X110394907Y-140334000D01*
X110375016Y-140434000D01*
X110375016Y-142053001D01*
X86912859Y-142053001D01*
X82802696Y-137942838D01*
X82772794Y-137898086D01*
X82595496Y-137779620D01*
X82439147Y-137748520D01*
X82439145Y-137748520D01*
X82437715Y-137748236D01*
X82435254Y-137735861D01*
X82434358Y-137734520D01*
X82435254Y-137733179D01*
X82437772Y-137720520D01*
X83795222Y-137720520D01*
X87406706Y-141332005D01*
X87436606Y-141376754D01*
X87481355Y-141406654D01*
X87481356Y-141406655D01*
X87529900Y-141439091D01*
X87613904Y-141495220D01*
X87770253Y-141526320D01*
X87770254Y-141526320D01*
X87823040Y-141536820D01*
X87875825Y-141526320D01*
X94159115Y-141526320D01*
X94211900Y-141536820D01*
X94264685Y-141526320D01*
X94264687Y-141526320D01*
X94421036Y-141495220D01*
X94598334Y-141376754D01*
X94628236Y-141332002D01*
X95589815Y-140370424D01*
X95914010Y-140370424D01*
X96146381Y-140324203D01*
X96343375Y-140192575D01*
X96475003Y-139995581D01*
X96521224Y-139763210D01*
X96521224Y-139250710D01*
X96475003Y-139018339D01*
X96343375Y-138821345D01*
X96146381Y-138689717D01*
X95914010Y-138643496D01*
X95476510Y-138643496D01*
X95244139Y-138689717D01*
X95047145Y-138821345D01*
X95001260Y-138890016D01*
X95001260Y-138329981D01*
X95046224Y-138103930D01*
X95046224Y-137191430D01*
X95001260Y-136965379D01*
X95001260Y-136405344D01*
X95047145Y-136474015D01*
X95244139Y-136605643D01*
X95476510Y-136651864D01*
X95914010Y-136651864D01*
X96146381Y-136605643D01*
X96343375Y-136474015D01*
X96475003Y-136277021D01*
X96521224Y-136044650D01*
X96521224Y-135532150D01*
X96475003Y-135299779D01*
X96343375Y-135102785D01*
X96146381Y-134971157D01*
X96011022Y-134944233D01*
X99866207Y-131089049D01*
X99939765Y-131039899D01*
X100134483Y-130748483D01*
X100185600Y-130491501D01*
X100185600Y-130491497D01*
X100202858Y-130404734D01*
X100185600Y-130317971D01*
X100185600Y-129594784D01*
X100204600Y-129594784D01*
X100353259Y-129565214D01*
X100479286Y-129481006D01*
X100563494Y-129354979D01*
X100593064Y-129206320D01*
X100593064Y-129187320D01*
X104103399Y-129187320D01*
X105361185Y-130445107D01*
G36*
X140201814Y-134308186D02*
X140327841Y-134392394D01*
X140476500Y-134421964D01*
X141406945Y-134421964D01*
X141550500Y-134565519D01*
X141550500Y-135079717D01*
X141540000Y-135132502D01*
X141550500Y-135185287D01*
X141550500Y-135185289D01*
X141571008Y-135288387D01*
X141581601Y-135341638D01*
X141670165Y-135474185D01*
X141670167Y-135474187D01*
X141700067Y-135518936D01*
X141744816Y-135548836D01*
X142912543Y-136716564D01*
X142942444Y-136761314D01*
X142987193Y-136791214D01*
X142987194Y-136791215D01*
X142997479Y-136798087D01*
X143119742Y-136879780D01*
X143276091Y-136910880D01*
X143276092Y-136910880D01*
X143328878Y-136921380D01*
X143381663Y-136910880D01*
X151938816Y-136910880D01*
X151938816Y-137274880D01*
X151958707Y-137374880D01*
X151938816Y-137474880D01*
X151938816Y-139274880D01*
X151968386Y-139423539D01*
X152052594Y-139549566D01*
X152178621Y-139633774D01*
X152327280Y-139663344D01*
X152346280Y-139663344D01*
X152346280Y-139909958D01*
X151725279Y-140530960D01*
X143863602Y-140530960D01*
X142983640Y-139650999D01*
X142983640Y-139527687D01*
X143000899Y-139440920D01*
X142932523Y-139097171D01*
X142902161Y-139051731D01*
X142882383Y-138952299D01*
X142750755Y-138755305D01*
X142553761Y-138623677D01*
X142525747Y-138618105D01*
X138342120Y-134434479D01*
X138512379Y-134548243D01*
X138744750Y-134594464D01*
X139182250Y-134594464D01*
X139414621Y-134548243D01*
X139611615Y-134416615D01*
X139711585Y-134267000D01*
X140174295Y-134267000D01*
X140201814Y-134308186D01*
X140201814Y-134308186D01*
G37*
X140201814Y-134308186D02*
X140327841Y-134392394D01*
X140476500Y-134421964D01*
X141406945Y-134421964D01*
X141550500Y-134565519D01*
X141550500Y-135079717D01*
X141540000Y-135132502D01*
X141550500Y-135185287D01*
X141550500Y-135185289D01*
X141571008Y-135288387D01*
X141581601Y-135341638D01*
X141670165Y-135474185D01*
X141670167Y-135474187D01*
X141700067Y-135518936D01*
X141744816Y-135548836D01*
X142912543Y-136716564D01*
X142942444Y-136761314D01*
X142987193Y-136791214D01*
X142987194Y-136791215D01*
X142997479Y-136798087D01*
X143119742Y-136879780D01*
X143276091Y-136910880D01*
X143276092Y-136910880D01*
X143328878Y-136921380D01*
X143381663Y-136910880D01*
X151938816Y-136910880D01*
X151938816Y-137274880D01*
X151958707Y-137374880D01*
X151938816Y-137474880D01*
X151938816Y-139274880D01*
X151968386Y-139423539D01*
X152052594Y-139549566D01*
X152178621Y-139633774D01*
X152327280Y-139663344D01*
X152346280Y-139663344D01*
X152346280Y-139909958D01*
X151725279Y-140530960D01*
X143863602Y-140530960D01*
X142983640Y-139650999D01*
X142983640Y-139527687D01*
X143000899Y-139440920D01*
X142932523Y-139097171D01*
X142902161Y-139051731D01*
X142882383Y-138952299D01*
X142750755Y-138755305D01*
X142553761Y-138623677D01*
X142525747Y-138618105D01*
X138342120Y-134434479D01*
X138512379Y-134548243D01*
X138744750Y-134594464D01*
X139182250Y-134594464D01*
X139414621Y-134548243D01*
X139611615Y-134416615D01*
X139711585Y-134267000D01*
X140174295Y-134267000D01*
X140201814Y-134308186D01*
G36*
X145162499Y-120902501D02*
X145569688Y-121174576D01*
X145928761Y-121246000D01*
X146171239Y-121246000D01*
X146530312Y-121174576D01*
X146719002Y-121048498D01*
X146719002Y-121521502D01*
X146530312Y-121395424D01*
X146171239Y-121324000D01*
X145928761Y-121324000D01*
X145569688Y-121395424D01*
X145162499Y-121667499D01*
X144890424Y-122074688D01*
X144794884Y-122555000D01*
X144890424Y-123035312D01*
X145162499Y-123442501D01*
X145569688Y-123714576D01*
X145928761Y-123786000D01*
X146171239Y-123786000D01*
X146530312Y-123714576D01*
X146719002Y-123588497D01*
X146719002Y-124061503D01*
X146530312Y-123935424D01*
X146171239Y-123864000D01*
X145928761Y-123864000D01*
X145569688Y-123935424D01*
X145162499Y-124207499D01*
X144890424Y-124614688D01*
X144794884Y-125095000D01*
X144890424Y-125575312D01*
X145162499Y-125982501D01*
X145569688Y-126254576D01*
X145928761Y-126326000D01*
X145980080Y-126326000D01*
X141978544Y-130327536D01*
X141614750Y-130327536D01*
X141382379Y-130373757D01*
X141185385Y-130505385D01*
X141053757Y-130702379D01*
X141007536Y-130934750D01*
X141007536Y-131447250D01*
X141053757Y-131679621D01*
X141185385Y-131876615D01*
X141382379Y-132008243D01*
X141614750Y-132054464D01*
X142052250Y-132054464D01*
X142284621Y-132008243D01*
X142481615Y-131876615D01*
X142613243Y-131679621D01*
X142621000Y-131640624D01*
X142628757Y-131679621D01*
X142760385Y-131876615D01*
X142872500Y-131951528D01*
X142872501Y-133995036D01*
X142576500Y-133995036D01*
X142507478Y-134008765D01*
X142472934Y-133957066D01*
X142428185Y-133927166D01*
X142164964Y-133663945D01*
X142164964Y-133433500D01*
X142135394Y-133284841D01*
X142051186Y-133158814D01*
X141925159Y-133074606D01*
X141776500Y-133045036D01*
X140476500Y-133045036D01*
X140327841Y-133074606D01*
X140201814Y-133158814D01*
X140177635Y-133195000D01*
X139711585Y-133195000D01*
X139611615Y-133045385D01*
X139414621Y-132913757D01*
X139182250Y-132867536D01*
X138744750Y-132867536D01*
X138512379Y-132913757D01*
X138315385Y-133045385D01*
X138269500Y-133114056D01*
X138269500Y-129041421D01*
X143524922Y-123786000D01*
X143631239Y-123786000D01*
X143990312Y-123714576D01*
X144397501Y-123442501D01*
X144669576Y-123035312D01*
X144765116Y-122555000D01*
X144669576Y-122074688D01*
X144397501Y-121667499D01*
X144337602Y-121627476D01*
X144441208Y-121558248D01*
X144469549Y-121515833D01*
X145130609Y-120854774D01*
X145162499Y-120902501D01*
X145162499Y-120902501D01*
G37*
X145162499Y-120902501D02*
X145569688Y-121174576D01*
X145928761Y-121246000D01*
X146171239Y-121246000D01*
X146530312Y-121174576D01*
X146719002Y-121048498D01*
X146719002Y-121521502D01*
X146530312Y-121395424D01*
X146171239Y-121324000D01*
X145928761Y-121324000D01*
X145569688Y-121395424D01*
X145162499Y-121667499D01*
X144890424Y-122074688D01*
X144794884Y-122555000D01*
X144890424Y-123035312D01*
X145162499Y-123442501D01*
X145569688Y-123714576D01*
X145928761Y-123786000D01*
X146171239Y-123786000D01*
X146530312Y-123714576D01*
X146719002Y-123588497D01*
X146719002Y-124061503D01*
X146530312Y-123935424D01*
X146171239Y-123864000D01*
X145928761Y-123864000D01*
X145569688Y-123935424D01*
X145162499Y-124207499D01*
X144890424Y-124614688D01*
X144794884Y-125095000D01*
X144890424Y-125575312D01*
X145162499Y-125982501D01*
X145569688Y-126254576D01*
X145928761Y-126326000D01*
X145980080Y-126326000D01*
X141978544Y-130327536D01*
X141614750Y-130327536D01*
X141382379Y-130373757D01*
X141185385Y-130505385D01*
X141053757Y-130702379D01*
X141007536Y-130934750D01*
X141007536Y-131447250D01*
X141053757Y-131679621D01*
X141185385Y-131876615D01*
X141382379Y-132008243D01*
X141614750Y-132054464D01*
X142052250Y-132054464D01*
X142284621Y-132008243D01*
X142481615Y-131876615D01*
X142613243Y-131679621D01*
X142621000Y-131640624D01*
X142628757Y-131679621D01*
X142760385Y-131876615D01*
X142872500Y-131951528D01*
X142872501Y-133995036D01*
X142576500Y-133995036D01*
X142507478Y-134008765D01*
X142472934Y-133957066D01*
X142428185Y-133927166D01*
X142164964Y-133663945D01*
X142164964Y-133433500D01*
X142135394Y-133284841D01*
X142051186Y-133158814D01*
X141925159Y-133074606D01*
X141776500Y-133045036D01*
X140476500Y-133045036D01*
X140327841Y-133074606D01*
X140201814Y-133158814D01*
X140177635Y-133195000D01*
X139711585Y-133195000D01*
X139611615Y-133045385D01*
X139414621Y-132913757D01*
X139182250Y-132867536D01*
X138744750Y-132867536D01*
X138512379Y-132913757D01*
X138315385Y-133045385D01*
X138269500Y-133114056D01*
X138269500Y-129041421D01*
X143524922Y-123786000D01*
X143631239Y-123786000D01*
X143990312Y-123714576D01*
X144397501Y-123442501D01*
X144669576Y-123035312D01*
X144765116Y-122555000D01*
X144669576Y-122074688D01*
X144397501Y-121667499D01*
X144337602Y-121627476D01*
X144441208Y-121558248D01*
X144469549Y-121515833D01*
X145130609Y-120854774D01*
X145162499Y-120902501D01*
G36*
X112588950Y-119308880D02*
X109683224Y-119308880D01*
X109683224Y-117765199D01*
X111360335Y-117765199D01*
X111410363Y-117775150D01*
X111460391Y-117765199D01*
X111460395Y-117765199D01*
X111608575Y-117735724D01*
X111776610Y-117623446D01*
X111804951Y-117581031D01*
X112393982Y-116992000D01*
X114905829Y-116992000D01*
X112588950Y-119308880D01*
X112588950Y-119308880D01*
G37*
X112588950Y-119308880D02*
X109683224Y-119308880D01*
X109683224Y-117765199D01*
X111360335Y-117765199D01*
X111410363Y-117775150D01*
X111460391Y-117765199D01*
X111460395Y-117765199D01*
X111608575Y-117735724D01*
X111776610Y-117623446D01*
X111804951Y-117581031D01*
X112393982Y-116992000D01*
X114905829Y-116992000D01*
X112588950Y-119308880D01*
G36*
X115347786Y-115938957D02*
X115347786Y-115976000D01*
X112233590Y-115976000D01*
X112183562Y-115966049D01*
X112133534Y-115976000D01*
X112133530Y-115976000D01*
X111985350Y-116005475D01*
X111817315Y-116117753D01*
X111788974Y-116160168D01*
X111199943Y-116749199D01*
X109683224Y-116749199D01*
X109683224Y-114984200D01*
X109653654Y-114835541D01*
X109569446Y-114709514D01*
X109443419Y-114625306D01*
X109294760Y-114595736D01*
X109249404Y-114595736D01*
X109413060Y-114432080D01*
X113840910Y-114432080D01*
X115347786Y-115938957D01*
X115347786Y-115938957D01*
G37*
X115347786Y-115938957D02*
X115347786Y-115976000D01*
X112233590Y-115976000D01*
X112183562Y-115966049D01*
X112133534Y-115976000D01*
X112133530Y-115976000D01*
X111985350Y-116005475D01*
X111817315Y-116117753D01*
X111788974Y-116160168D01*
X111199943Y-116749199D01*
X109683224Y-116749199D01*
X109683224Y-114984200D01*
X109653654Y-114835541D01*
X109569446Y-114709514D01*
X109443419Y-114625306D01*
X109294760Y-114595736D01*
X109249404Y-114595736D01*
X109413060Y-114432080D01*
X113840910Y-114432080D01*
X115347786Y-115938957D01*
G36*
X121950972Y-101451392D02*
X121979313Y-101493807D01*
X122147348Y-101606085D01*
X122295528Y-101635560D01*
X122295532Y-101635560D01*
X122345560Y-101645511D01*
X122395588Y-101635560D01*
X129466740Y-101635560D01*
X135157015Y-107325836D01*
X135185354Y-107368248D01*
X135227766Y-107396587D01*
X135227768Y-107396589D01*
X135342497Y-107473248D01*
X135353389Y-107480526D01*
X135501569Y-107510001D01*
X135501572Y-107510001D01*
X135551600Y-107519952D01*
X135601628Y-107510001D01*
X141484369Y-107510001D01*
X141534397Y-107519952D01*
X141584425Y-107510001D01*
X141584429Y-107510001D01*
X141732609Y-107480526D01*
X141900644Y-107368248D01*
X141928985Y-107325833D01*
X142271536Y-106983282D01*
X142271536Y-108165000D01*
X142301106Y-108313659D01*
X142385314Y-108439686D01*
X142511341Y-108523894D01*
X142660000Y-108553464D01*
X144187704Y-108553464D01*
X144168501Y-108649999D01*
X144179002Y-108702789D01*
X144179002Y-108821503D01*
X143990312Y-108695424D01*
X143631239Y-108624000D01*
X143388761Y-108624000D01*
X143029688Y-108695424D01*
X142622499Y-108967499D01*
X142350424Y-109374688D01*
X142254884Y-109855000D01*
X142350424Y-110335312D01*
X142622499Y-110742501D01*
X143029688Y-111014576D01*
X143388761Y-111086000D01*
X143631239Y-111086000D01*
X143990312Y-111014576D01*
X144179001Y-110888498D01*
X144179001Y-111361502D01*
X143990312Y-111235424D01*
X143631239Y-111164000D01*
X143388761Y-111164000D01*
X143095376Y-111222358D01*
X143076338Y-111203320D01*
X143076336Y-111203317D01*
X140852936Y-108979918D01*
X140823034Y-108935166D01*
X140645736Y-108816700D01*
X140489387Y-108785600D01*
X140489385Y-108785600D01*
X140436600Y-108775100D01*
X140383815Y-108785600D01*
X126504147Y-108785600D01*
X126451360Y-108775100D01*
X126242223Y-108816700D01*
X126178715Y-108859135D01*
X126064926Y-108935166D01*
X126035024Y-108979918D01*
X125103836Y-109911106D01*
X125059087Y-109941006D01*
X125029187Y-109985755D01*
X125029185Y-109985757D01*
X124940621Y-110118304D01*
X124899020Y-110327440D01*
X124909521Y-110380230D01*
X124909520Y-114142448D01*
X123470281Y-115581687D01*
X123446144Y-115460341D01*
X123361936Y-115334314D01*
X123235909Y-115250106D01*
X123087250Y-115220536D01*
X123022360Y-115220536D01*
X123022360Y-114113786D01*
X123040455Y-114101695D01*
X123172083Y-113904701D01*
X123218304Y-113672330D01*
X123218304Y-113159830D01*
X123172083Y-112927459D01*
X123040455Y-112730465D01*
X123022360Y-112718374D01*
X123022360Y-112072021D01*
X123049460Y-112044921D01*
X123168360Y-111757871D01*
X123168360Y-111447169D01*
X123049460Y-111160119D01*
X122829761Y-110940420D01*
X122542711Y-110821520D01*
X122433900Y-110821520D01*
X127314348Y-105941072D01*
X127640761Y-106006000D01*
X127883239Y-106006000D01*
X128242312Y-105934576D01*
X128649501Y-105662501D01*
X128921576Y-105255312D01*
X129017116Y-104775000D01*
X128921576Y-104294688D01*
X128649501Y-103887499D01*
X128242312Y-103615424D01*
X127883239Y-103544000D01*
X127640761Y-103544000D01*
X127281688Y-103615424D01*
X126874499Y-103887499D01*
X126602424Y-104294688D01*
X126506884Y-104775000D01*
X126595928Y-105222652D01*
X120905286Y-110913294D01*
X120895730Y-110919679D01*
X120895730Y-108468410D01*
X122089780Y-107274360D01*
X123180612Y-107274360D01*
X123230640Y-107284311D01*
X123280668Y-107274360D01*
X123280672Y-107274360D01*
X123428852Y-107244885D01*
X123596887Y-107132607D01*
X123625228Y-107090192D01*
X124774348Y-105941072D01*
X125100761Y-106006000D01*
X125343239Y-106006000D01*
X125702312Y-105934576D01*
X126109501Y-105662501D01*
X126381576Y-105255312D01*
X126477116Y-104775000D01*
X126381576Y-104294688D01*
X126109501Y-103887499D01*
X125702312Y-103615424D01*
X125343239Y-103544000D01*
X125100761Y-103544000D01*
X124741688Y-103615424D01*
X124334499Y-103887499D01*
X124062424Y-104294688D01*
X123966884Y-104775000D01*
X124055928Y-105222652D01*
X123020220Y-106258360D01*
X121929387Y-106258360D01*
X121919106Y-106256315D01*
X122226589Y-105948832D01*
X122226591Y-105948829D01*
X122234348Y-105941072D01*
X122560761Y-106006000D01*
X122803239Y-106006000D01*
X123162312Y-105934576D01*
X123569501Y-105662501D01*
X123841576Y-105255312D01*
X123937116Y-104775000D01*
X123841576Y-104294688D01*
X123569501Y-103887499D01*
X123162312Y-103615424D01*
X122803239Y-103544000D01*
X122560761Y-103544000D01*
X122201688Y-103615424D01*
X121794499Y-103887499D01*
X121522424Y-104294688D01*
X121426884Y-104775000D01*
X121515928Y-105222652D01*
X121508171Y-105230409D01*
X121508168Y-105230411D01*
X120634737Y-106103842D01*
X120638684Y-106084000D01*
X120650000Y-106027113D01*
X120650000Y-106027110D01*
X120659951Y-105977082D01*
X120650000Y-105927054D01*
X120650000Y-105916075D01*
X121029501Y-105662501D01*
X121301576Y-105255312D01*
X121397116Y-104775000D01*
X121301576Y-104294688D01*
X121029501Y-103887499D01*
X120622312Y-103615424D01*
X120335633Y-103558400D01*
X120475295Y-103558400D01*
X120528080Y-103568900D01*
X120580865Y-103558400D01*
X120580867Y-103558400D01*
X120737216Y-103527300D01*
X120914514Y-103408834D01*
X120944416Y-103364082D01*
X121543855Y-102764644D01*
X121632419Y-102632097D01*
X121674020Y-102422961D01*
X121634000Y-102221772D01*
X121634000Y-101134420D01*
X121950972Y-101451392D01*
X121950972Y-101451392D01*
G37*
X121950972Y-101451392D02*
X121979313Y-101493807D01*
X122147348Y-101606085D01*
X122295528Y-101635560D01*
X122295532Y-101635560D01*
X122345560Y-101645511D01*
X122395588Y-101635560D01*
X129466740Y-101635560D01*
X135157015Y-107325836D01*
X135185354Y-107368248D01*
X135227766Y-107396587D01*
X135227768Y-107396589D01*
X135342497Y-107473248D01*
X135353389Y-107480526D01*
X135501569Y-107510001D01*
X135501572Y-107510001D01*
X135551600Y-107519952D01*
X135601628Y-107510001D01*
X141484369Y-107510001D01*
X141534397Y-107519952D01*
X141584425Y-107510001D01*
X141584429Y-107510001D01*
X141732609Y-107480526D01*
X141900644Y-107368248D01*
X141928985Y-107325833D01*
X142271536Y-106983282D01*
X142271536Y-108165000D01*
X142301106Y-108313659D01*
X142385314Y-108439686D01*
X142511341Y-108523894D01*
X142660000Y-108553464D01*
X144187704Y-108553464D01*
X144168501Y-108649999D01*
X144179002Y-108702789D01*
X144179002Y-108821503D01*
X143990312Y-108695424D01*
X143631239Y-108624000D01*
X143388761Y-108624000D01*
X143029688Y-108695424D01*
X142622499Y-108967499D01*
X142350424Y-109374688D01*
X142254884Y-109855000D01*
X142350424Y-110335312D01*
X142622499Y-110742501D01*
X143029688Y-111014576D01*
X143388761Y-111086000D01*
X143631239Y-111086000D01*
X143990312Y-111014576D01*
X144179001Y-110888498D01*
X144179001Y-111361502D01*
X143990312Y-111235424D01*
X143631239Y-111164000D01*
X143388761Y-111164000D01*
X143095376Y-111222358D01*
X143076338Y-111203320D01*
X143076336Y-111203317D01*
X140852936Y-108979918D01*
X140823034Y-108935166D01*
X140645736Y-108816700D01*
X140489387Y-108785600D01*
X140489385Y-108785600D01*
X140436600Y-108775100D01*
X140383815Y-108785600D01*
X126504147Y-108785600D01*
X126451360Y-108775100D01*
X126242223Y-108816700D01*
X126178715Y-108859135D01*
X126064926Y-108935166D01*
X126035024Y-108979918D01*
X125103836Y-109911106D01*
X125059087Y-109941006D01*
X125029187Y-109985755D01*
X125029185Y-109985757D01*
X124940621Y-110118304D01*
X124899020Y-110327440D01*
X124909521Y-110380230D01*
X124909520Y-114142448D01*
X123470281Y-115581687D01*
X123446144Y-115460341D01*
X123361936Y-115334314D01*
X123235909Y-115250106D01*
X123087250Y-115220536D01*
X123022360Y-115220536D01*
X123022360Y-114113786D01*
X123040455Y-114101695D01*
X123172083Y-113904701D01*
X123218304Y-113672330D01*
X123218304Y-113159830D01*
X123172083Y-112927459D01*
X123040455Y-112730465D01*
X123022360Y-112718374D01*
X123022360Y-112072021D01*
X123049460Y-112044921D01*
X123168360Y-111757871D01*
X123168360Y-111447169D01*
X123049460Y-111160119D01*
X122829761Y-110940420D01*
X122542711Y-110821520D01*
X122433900Y-110821520D01*
X127314348Y-105941072D01*
X127640761Y-106006000D01*
X127883239Y-106006000D01*
X128242312Y-105934576D01*
X128649501Y-105662501D01*
X128921576Y-105255312D01*
X129017116Y-104775000D01*
X128921576Y-104294688D01*
X128649501Y-103887499D01*
X128242312Y-103615424D01*
X127883239Y-103544000D01*
X127640761Y-103544000D01*
X127281688Y-103615424D01*
X126874499Y-103887499D01*
X126602424Y-104294688D01*
X126506884Y-104775000D01*
X126595928Y-105222652D01*
X120905286Y-110913294D01*
X120895730Y-110919679D01*
X120895730Y-108468410D01*
X122089780Y-107274360D01*
X123180612Y-107274360D01*
X123230640Y-107284311D01*
X123280668Y-107274360D01*
X123280672Y-107274360D01*
X123428852Y-107244885D01*
X123596887Y-107132607D01*
X123625228Y-107090192D01*
X124774348Y-105941072D01*
X125100761Y-106006000D01*
X125343239Y-106006000D01*
X125702312Y-105934576D01*
X126109501Y-105662501D01*
X126381576Y-105255312D01*
X126477116Y-104775000D01*
X126381576Y-104294688D01*
X126109501Y-103887499D01*
X125702312Y-103615424D01*
X125343239Y-103544000D01*
X125100761Y-103544000D01*
X124741688Y-103615424D01*
X124334499Y-103887499D01*
X124062424Y-104294688D01*
X123966884Y-104775000D01*
X124055928Y-105222652D01*
X123020220Y-106258360D01*
X121929387Y-106258360D01*
X121919106Y-106256315D01*
X122226589Y-105948832D01*
X122226591Y-105948829D01*
X122234348Y-105941072D01*
X122560761Y-106006000D01*
X122803239Y-106006000D01*
X123162312Y-105934576D01*
X123569501Y-105662501D01*
X123841576Y-105255312D01*
X123937116Y-104775000D01*
X123841576Y-104294688D01*
X123569501Y-103887499D01*
X123162312Y-103615424D01*
X122803239Y-103544000D01*
X122560761Y-103544000D01*
X122201688Y-103615424D01*
X121794499Y-103887499D01*
X121522424Y-104294688D01*
X121426884Y-104775000D01*
X121515928Y-105222652D01*
X121508171Y-105230409D01*
X121508168Y-105230411D01*
X120634737Y-106103842D01*
X120638684Y-106084000D01*
X120650000Y-106027113D01*
X120650000Y-106027110D01*
X120659951Y-105977082D01*
X120650000Y-105927054D01*
X120650000Y-105916075D01*
X121029501Y-105662501D01*
X121301576Y-105255312D01*
X121397116Y-104775000D01*
X121301576Y-104294688D01*
X121029501Y-103887499D01*
X120622312Y-103615424D01*
X120335633Y-103558400D01*
X120475295Y-103558400D01*
X120528080Y-103568900D01*
X120580865Y-103558400D01*
X120580867Y-103558400D01*
X120737216Y-103527300D01*
X120914514Y-103408834D01*
X120944416Y-103364082D01*
X121543855Y-102764644D01*
X121632419Y-102632097D01*
X121674020Y-102422961D01*
X121634000Y-102221772D01*
X121634000Y-101134420D01*
X121950972Y-101451392D01*
G04 #@! TD*
M02*
