M48
;DRILL file {KiCad (5.0.2)-1} date 04.10.2019 12:45:47
;FORMAT={-:-/ absolute / metric / decimal}
FMAT,2
METRIC,TZ
T1C0.400
T2C0.762
T3C1.000
T4C2.200
%
G90
G05
T1
X79.055Y-128.295
X81.102Y-134.981
X89.159Y-130.917
X91.704Y-127.899
X95.682Y-135.773
X95.695Y-139.507
X97.292Y-134.981
X116.642Y-96.81
X116.733Y-101.707
X118.633Y-102.138
X119.365Y-101.122
X122.149Y-97.287
X122.387Y-111.603
X123.967Y-113.421
X127.889Y-111.562
X135.026Y-111.567
X147.386Y-138.826
T2
X131.188Y-115.884
X131.188Y-117.884
X131.188Y-119.884
X133.188Y-115.884
X133.188Y-117.884
X133.188Y-119.884
X106.395Y-115.884
X106.395Y-118.484
X106.395Y-121.084
X108.395Y-115.884
X108.395Y-118.484
X108.395Y-121.084
X110.395Y-115.884
X110.395Y-118.484
X110.395Y-121.084
X128.387Y-132.984
X128.387Y-134.984
X128.387Y-136.984
X128.387Y-138.984
X130.387Y-132.984
X130.387Y-134.984
X130.387Y-136.984
X130.387Y-138.984
X97.305Y-128.306
X99.305Y-128.306
X111.663Y-133.334
X111.663Y-135.334
X111.663Y-137.334
X111.663Y-139.334
X111.663Y-141.334
X113.663Y-133.334
X113.663Y-135.334
X113.663Y-137.334
X113.663Y-139.334
X113.663Y-141.334
X153.227Y-134.375
X153.227Y-136.375
X153.227Y-138.375
T3
X92.71Y-107.315
X92.71Y-109.855
X92.71Y-112.395
X92.71Y-114.935
X92.71Y-117.475
X92.71Y-120.015
X92.71Y-122.555
X92.71Y-125.095
X95.25Y-107.315
X95.25Y-109.855
X95.25Y-112.395
X95.25Y-114.935
X95.25Y-117.475
X95.25Y-120.015
X95.25Y-122.555
X95.25Y-125.095
X143.51Y-107.315
X143.51Y-109.855
X143.51Y-112.395
X143.51Y-114.935
X143.51Y-117.475
X143.51Y-120.015
X143.51Y-122.555
X143.51Y-125.095
X146.05Y-107.315
X146.05Y-109.855
X146.05Y-112.395
X146.05Y-114.935
X146.05Y-117.475
X146.05Y-120.015
X146.05Y-122.555
X146.05Y-125.095
X109.982Y-104.775
X112.522Y-104.775
X115.062Y-104.775
X117.602Y-104.775
X120.142Y-104.775
X122.682Y-104.775
X125.222Y-104.775
X127.762Y-104.775
T4
X119.38Y-143.51
X137.16Y-104.775
X101.6Y-104.775
T0
M30
