M48
;DRILL file {KiCad (5.0.2)-1} date 19.12.2019 15:39:09
;FORMAT={-:-/ absolute / metric / decimal}
FMAT,2
METRIC,TZ
T1C0.400
T2C0.800
T3C1.000
T4C2.200
%
G90
G05
T1
X4.902Y11.069
X6.045Y18.034
X12.959Y15.133
X14.224Y17.018
X15.352Y16.383
X17.78Y16.891
X19.482Y10.277
X19.495Y6.543
X21.092Y11.069
X21.209Y35.56
X21.252Y25.776
X22.543Y14.605
X28.53Y8.391
X28.588Y37.948
X41.656Y24.765
X41.894Y21.066
X41.91Y19.939
X41.91Y18.796
X43.561Y20.955
X48.895Y35.56
X52.578Y36.386
X53.975Y32.893
X55.372Y19.05
X58.826Y34.483
X61.468Y33.782
X62.492Y35.638
X65.532Y29.972
X65.659Y14.859
X71.186Y7.224
T2
X24.765Y35.56
X24.765Y33.56
X24.765Y31.56
X77.027Y11.675
X77.027Y9.675
X77.027Y7.675
X31.18Y43.75
X33.18Y43.75
X35.18Y43.75
X37.18Y43.75
X39.18Y43.75
X41.18Y43.75
X43.18Y43.75
X45.18Y43.75
X47.18Y43.75
X49.18Y43.75
X51.18Y43.75
X53.18Y43.75
X55.18Y43.75
X32.385Y35.56
X32.385Y33.56
X32.385Y31.56
X52.187Y13.066
X52.187Y11.066
X52.187Y9.066
X52.187Y7.066
X54.187Y13.066
X54.187Y11.066
X54.187Y9.066
X54.187Y7.066
X31.272Y12.716
X31.272Y10.716
X31.272Y8.716
X31.272Y6.716
X31.272Y4.716
X33.272Y12.716
X33.272Y10.716
X33.272Y8.716
X33.272Y6.716
X33.272Y4.716
X21.105Y17.744
X23.105Y17.744
X28.575Y35.56
X28.575Y33.56
X28.575Y31.56
X54.988Y30.166
X54.988Y28.166
X54.988Y26.166
X54.988Y24.166
X56.988Y30.166
X56.988Y28.166
X56.988Y26.166
X56.988Y24.166
T3
X16.51Y38.735
X16.51Y36.195
X16.51Y33.655
X16.51Y31.115
X16.51Y28.575
X16.51Y26.035
X16.51Y23.495
X16.51Y20.955
X19.05Y38.735
X19.05Y36.195
X19.05Y33.655
X19.05Y31.115
X19.05Y28.575
X19.05Y26.035
X19.05Y23.495
X19.05Y20.955
X67.31Y38.735
X67.31Y36.195
X67.31Y33.655
X67.31Y31.115
X67.31Y28.575
X67.31Y26.035
X67.31Y23.495
X67.31Y20.955
X69.85Y38.735
X69.85Y36.195
X69.85Y33.655
X69.85Y31.115
X69.85Y28.575
X69.85Y26.035
X69.85Y23.495
X69.85Y20.955
T4
X43.18Y2.54
X25.4Y41.275
X60.96Y41.275
T0
M30
